TitilliumWeb-LightItalic.ufo
<glyph name="exclam" format="2">
  <advance width="196.33333333333334"/>
  <unicode hex="0021"/>
  <outline>
    <contour>
      <point x="120.93939393939394" y="222.3939393939394" type="line"/>
      <point x="172.6969696969697" y="222.3939393939394" type="line"/>
      <point x="289.24242424242425" y="700.0" type="line"/>
      <point x="229.57575757575756" y="700.0" type="line"/>
    </contour>
    <contour>
      <point x="70.81818181818181" y="0.0" type="line"/>
      <point x="131.06060606060606" y="0.0" type="line"/>
      <point x="153.93939393939394" y="99.96969696969697" type="line"/>
      <point x="93.6969696969697" y="99.96969696969697" type="line"/>
    </contour>
  </outline>
</glyph>
<glyph name="numbersign" format="2">
  <advance width="560.0"/>
  <unicode hex="0023"/>
  <outline>
    <contour>
      <point x="135.54545454545453" y="0.0" type="line"/>
      <point x="190.93939393939394" y="0.0" type="line"/>
      <point x="235.72727272727272" y="183.93939393939394" type="line"/>
      <point x="403.3636363636364" y="183.93939393939394" type="line"/>
      <point x="358.57575757575756" y="0.0" type="line"/>
      <point x="413.969696969697" y="0.0" type="line"/>
      <point x="458.75757575757575" y="183.93939393939394" type="line"/>
      <point x="572.939393939394" y="183.93939393939394" type="line"/>
      <point x="585.7878787878788" y="235.33333333333334" type="line"/>
      <point x="471.6060606060606" y="235.33333333333334" type="line"/>
      <point x="520.3333333333334" y="432.24242424242425" type="line"/>
      <point x="634.5151515151515" y="432.24242424242425" type="line"/>
      <point x="647.3636363636364" y="483.6363636363636" type="line"/>
      <point x="533.1818181818181" y="483.6363636363636" type="line"/>
      <point x="579.4848484848485" y="667.5757575757576" type="line"/>
      <point x="524.0909090909091" y="667.5757575757576" type="line"/>
      <point x="477.7878787878788" y="483.6363636363636" type="line"/>
      <point x="310.1515151515151" y="483.6363636363636" type="line"/>
      <point x="356.45454545454544" y="667.5757575757576" type="line"/>
      <point x="301.06060606060606" y="667.5757575757576" type="line"/>
      <point x="254.75757575757575" y="483.6363636363636" type="line"/>
      <point x="140.57575757575756" y="483.6363636363636" type="line"/>
      <point x="127.72727272727272" y="432.24242424242425" type="line"/>
      <point x="241.9090909090909" y="432.24242424242425" type="line"/>
      <point x="193.1818181818182" y="235.33333333333334" type="line"/>
      <point x="79.0" y="235.33333333333334" type="line"/>
      <point x="66.15151515151516" y="183.93939393939394" type="line"/>
      <point x="180.33333333333334" y="183.93939393939394" type="line"/>
    </contour>
    <contour>
      <point x="248.57575757575756" y="235.33333333333334" type="line"/>
      <point x="297.3030303030303" y="432.24242424242425" type="line"/>
      <point x="464.93939393939394" y="432.24242424242425" type="line"/>
      <point x="416.2121212121212" y="235.33333333333334" type="line"/>
    </contour>
  </outline>
</glyph>
<glyph name="dollar" format="2">
  <advance width="560.0"/>
  <unicode hex="0024"/>
  <outline>
    <contour>
      <point x="162.4848484848485" y="-119.75757575757575" type="line"/>
      <point x="206.57575757575756" y="-119.75757575757575" type="line"/>
      <point x="551.2727272727273" y="785.3939393939394" type="line"/>
      <point x="505.42424242424244" y="785.3939393939394" type="line"/>
    </contour>
    <contour>
      <point x="286.2121212121212" y="-9.727272727272727" type="curve" smooth="yes"/>
      <point x="428.3939393939394" y="-9.727272727272727"/>
      <point x="520.3030303030303" y="76.84848484848484"/>
      <point x="520.3030303030303" y="219.27272727272728" type="curve" smooth="yes"/>
      <point x="520.3030303030303" y="305.5151515151515"/>
      <point x="478.8787878787879" y="333.1818181818182"/>
      <point x="385.030303030303" y="364.5151515151515" type="curve" smooth="yes"/>
      <point x="295.42424242424244" y="394.45454545454544"/>
      <point x="259.42424242424244" y="408.72727272727275"/>
      <point x="259.42424242424244" y="466.6969696969697" type="curve" smooth="yes"/>
      <point x="259.42424242424244" y="568.4545454545455"/>
      <point x="325.24242424242425" y="619.6060606060606"/>
      <point x="428.6969696969697" y="619.6060606060606" type="curve" smooth="yes"/>
      <point x="477.93939393939394" y="619.6060606060606"/>
      <point x="551.8787878787879" y="610.3636363636364"/>
      <point x="594.6060606060606" y="602.3636363636364" type="curve"/>
      <point x="605.2121212121212" y="647.3636363636364" type="line"/>
      <point x="567.0" y="657.3030303030303"/>
      <point x="493.6060606060606" y="670.7272727272727"/>
      <point x="433.030303030303" y="670.7272727272727" type="curve" smooth="yes"/>
      <point x="293.27272727272725" y="670.7272727272727"/>
      <point x="199.93939393939394" y="597.1818181818181"/>
      <point x="199.93939393939394" y="462.8181818181818" type="curve" smooth="yes"/>
      <point x="199.93939393939394" y="375.06060606060606"/>
      <point x="253.6060606060606" y="347.93939393939394"/>
      <point x="349.6969696969697" y="317.030303030303" type="curve" smooth="yes"/>
      <point x="434.93939393939394" y="290.1515151515151"/>
      <point x="460.06060606060606" y="274.3636363636364"/>
      <point x="460.06060606060606" y="214.63636363636363" type="curve" smooth="yes"/>
      <point x="460.06060606060606" y="107.54545454545455"/>
      <point x="397.3636363636364" y="42.878787878787875"/>
      <point x="290.27272727272725" y="42.878787878787875" type="curve" smooth="yes"/>
      <point x="238.0" y="42.878787878787875"/>
      <point x="155.72727272727272" y="52.36363636363636"/>
      <point x="106.96969696969697" y="59.848484848484844" type="curve"/>
      <point x="97.0909090909091" y="12.848484848484848" type="line"/>
      <point x="139.84848484848484" y="3.4242424242424243"/>
      <point x="222.57575757575756" y="-9.727272727272727"/>
    </contour>
  </outline>
</glyph>
<glyph name="percent" format="2">
  <advance width="560.0"/>
  <unicode hex="0025"/>
  <outline>
    <contour>
      <point x="210.4848484848485" y="-5.0606060606060606" type="line"/>
      <point x="553.4242424242424" y="694.5454545454545" type="line"/>
      <point x="510.030303030303" y="705.6060606060606" type="line"/>
      <point x="167.0909090909091" y="6.0" type="line"/>
    </contour>
    <contour>
      <point x="415.0" y="0.0" type="curve" smooth="yes"/>
      <point x="479.1212121212121" y="0.0"/>
      <point x="532.6060606060606" y="43.696969696969695"/>
      <point x="556.6060606060606" y="139.93939393939394" type="curve" smooth="yes"/>
      <point x="580.6060606060606" y="236.1818181818182"/>
      <point x="548.0909090909091" y="276.6060606060606"/>
      <point x="483.2121212121212" y="276.6060606060606" type="curve" smooth="yes"/>
      <point x="417.57575757575756" y="276.6060606060606"/>
      <point x="366.3636363636364" y="236.1818181818182"/>
      <point x="342.3636363636364" y="140.6969696969697" type="curve" smooth="yes"/>
      <point x="318.3636363636364" y="43.696969696969695"/>
      <point x="350.1212121212121" y="0.0"/>
    </contour>
    <contour>
      <point x="424.90909090909093" y="43.63636363636364" type="curve" smooth="yes"/>
      <point x="383.42424242424244" y="43.63636363636364"/>
      <point x="376.8484848484849" y="77.27272727272728"/>
      <point x="392.6363636363636" y="140.6969696969697" type="curve" smooth="yes"/>
      <point x="408.1818181818182" y="202.6060606060606"/>
      <point x="430.8181818181818" y="232.96969696969697"/>
      <point x="472.3030303030303" y="232.96969696969697" type="curve" smooth="yes"/>
      <point x="514.5454545454545" y="232.96969696969697"/>
      <point x="521.8787878787879" y="202.6060606060606"/>
      <point x="506.3333333333333" y="139.93939393939394" type="curve" smooth="yes"/>
      <point x="490.54545454545456" y="77.27272727272728"/>
      <point x="467.1515151515151" y="43.63636363636364"/>
    </contour>
    <contour>
      <point x="239.54545454545453" y="425.1515151515151" type="curve" smooth="yes"/>
      <point x="303.6666666666667" y="425.1515151515151"/>
      <point x="357.1515151515151" y="468.8484848484849"/>
      <point x="381.1515151515151" y="565.0909090909091" type="curve" smooth="yes"/>
      <point x="405.1515151515151" y="661.3333333333334"/>
      <point x="373.3939393939394" y="701.7575757575758"/>
      <point x="308.5151515151515" y="701.7575757575758" type="curve" smooth="yes"/>
      <point x="242.87878787878788" y="701.7575757575758"/>
      <point x="190.9090909090909" y="661.3333333333334"/>
      <point x="166.9090909090909" y="565.8484848484849" type="curve" smooth="yes"/>
      <point x="142.9090909090909" y="468.8484848484849"/>
      <point x="174.66666666666666" y="425.1515151515151"/>
    </contour>
    <contour>
      <point x="250.45454545454547" y="468.7878787878788" type="curve" smooth="yes"/>
      <point x="208.96969696969697" y="468.7878787878788"/>
      <point x="201.63636363636363" y="503.1818181818182"/>
      <point x="217.1818181818182" y="565.8484848484849" type="curve" smooth="yes"/>
      <point x="232.96969696969697" y="627.7575757575758"/>
      <point x="256.1212121212121" y="658.1212121212121"/>
      <point x="297.6060606060606" y="658.1212121212121" type="curve" smooth="yes"/>
      <point x="339.8484848484849" y="658.1212121212121"/>
      <point x="346.6666666666667" y="627.7575757575758"/>
      <point x="330.8787878787879" y="565.0909090909091" type="curve" smooth="yes"/>
      <point x="315.3333333333333" y="502.42424242424244"/>
      <point x="292.6969696969697" y="468.7878787878788"/>
    </contour>
  </outline>
</glyph>
<glyph name="ampersand" format="2">
  <advance width="600.0"/>
  <unicode hex="0026"/>
  <outline>
    <contour>
      <point x="228.24242424242425" y="-9.727272727272727" type="curve" smooth="yes"/>
      <point x="324.1515151515151" y="-9.727272727272727"/>
      <point x="404.6363636363636" y="26.303030303030305"/>
      <point x="470.24242424242425" y="109.39393939393939" type="curve"/>
      <point x="568.6060606060606" y="-8.212121212121213" type="line"/>
      <point x="613.1212121212121" y="32.57575757575758" type="line"/>
      <point x="508.4848484848485" y="157.9090909090909" type="line"/>
      <point x="538.4545454545455" y="204.3939393939394"/>
      <point x="579.2121212121212" y="296.72727272727275"/>
      <point x="601.939393939394" y="366.2121212121212" type="curve"/>
      <point x="544.6363636363636" y="372.8787878787879" type="line"/>
      <point x="529.5757575757576" y="321.2121212121212"/>
      <point x="494.0" y="236.33333333333334"/>
      <point x="473.42424242424244" y="200.93939393939394" type="curve"/>
      <point x="347.3939393939394" y="361.90909090909093" type="line"/>
      <point x="494.24242424242425" y="416.3939393939394"/>
      <point x="551.8484848484849" y="482.969696969697"/>
      <point x="551.8484848484849" y="589.3030303030303" type="curve" smooth="yes"/>
      <point x="551.8484848484849" y="656.1515151515151"/>
      <point x="507.54545454545456" y="698.3636363636364"/>
      <point x="412.0" y="698.3636363636364" type="curve" smooth="yes"/>
      <point x="267.6363636363636" y="698.3636363636364"/>
      <point x="209.57575757575756" y="594.4242424242424"/>
      <point x="209.57575757575756" y="496.3636363636364" type="curve" smooth="yes"/>
      <point x="209.57575757575756" y="467.6666666666667"/>
      <point x="217.54545454545453" y="442.1818181818182"/>
      <point x="238.5151515151515" y="409.7878787878788" type="curve"/>
      <point x="80.12121212121212" y="361.3636363636364"/>
      <point x="25.333333333333332" y="270.6060606060606"/>
      <point x="25.333333333333332" y="135.93939393939394" type="curve" smooth="yes"/>
      <point x="25.333333333333332" y="44.24242424242424"/>
      <point x="80.48484848484848" y="-9.727272727272727"/>
    </contour>
    <contour>
      <point x="228.84848484848484" y="44.36363636363636" type="curve" smooth="yes"/>
      <point x="126.93939393939394" y="44.36363636363636"/>
      <point x="85.81818181818181" y="80.03030303030303"/>
      <point x="85.81818181818181" y="147.3030303030303" type="curve" smooth="yes"/>
      <point x="85.81818181818181" y="251.54545454545453"/>
      <point x="129.87878787878788" y="329.93939393939394"/>
      <point x="267.27272727272725" y="367.24242424242425" type="curve"/>
      <point x="436.42424242424244" y="149.72727272727272" type="line"/>
      <point x="383.1818181818182" y="78.0"/>
      <point x="311.6060606060606" y="44.36363636363636"/>
    </contour>
    <contour>
      <point x="315.6969696969697" y="400.969696969697" type="curve"/>
      <point x="290.6060606060606" y="428.90909090909093" type="line" smooth="yes"/>
      <point x="273.8484848484849" y="451.3939393939394"/>
      <point x="268.3636363636364" y="474.1818181818182"/>
      <point x="268.3636363636364" y="496.2121212121212" type="curve" smooth="yes"/>
      <point x="268.3636363636364" y="566.2121212121212"/>
      <point x="305.90909090909093" y="646.4848484848485"/>
      <point x="409.27272727272725" y="646.4848484848485" type="curve" smooth="yes"/>
      <point x="468.54545454545456" y="646.4848484848485"/>
      <point x="492.8787878787879" y="625.0909090909091"/>
      <point x="492.8787878787879" y="584.939393939394" type="curve" smooth="yes"/>
      <point x="492.8787878787879" y="517.1818181818181"/>
      <point x="468.06060606060606" y="455.6969696969697"/>
    </contour>
  </outline>
</glyph>
<glyph name="quotesingle" format="2">
  <advance width="168.3030303030303"/>
  <unicode hex="0027"/>
  <outline>
    <contour>
      <point x="165.8181818181818" y="474.1212121212121" type="line"/>
      <point x="218.6969696969697" y="474.1212121212121" type="line"/>
      <point x="273.06060606060606" y="695.5757575757576" type="line"/>
      <point x="216.24242424242425" y="695.5757575757576" type="line"/>
    </contour>
  </outline>
</glyph>
<glyph name="parenleft" format="2">
  <advance width="225.66666666666666"/>
  <unicode hex="0028"/>
  <outline>
    <contour>
      <point x="108.03030303030303" y="-123.75757575757575" type="curve"/>
      <point x="164.06060606060606" y="-123.75757575757575" type="line"/>
      <point x="157.8181818181818" y="-84.60606060606061"/>
      <point x="149.57575757575756" y="5.0"/>
      <point x="149.57575757575756" y="108.51515151515152" type="curve" smooth="yes"/>
      <point x="149.57575757575756" y="332.1515151515151"/>
      <point x="274.57575757575756" y="604.7272727272727"/>
      <point x="369.57575757575756" y="748.0" type="curve"/>
      <point x="312.75757575757575" y="748.0" type="line"/>
      <point x="216.3030303030303" y="613.6969696969697"/>
      <point x="88.87878787878788" y="347.09090909090907"/>
      <point x="88.87878787878788" y="108.51515151515152" type="curve" smooth="yes"/>
      <point x="88.87878787878788" y="-0.42424242424242387"/>
      <point x="99.81818181818181" y="-87.81818181818181"/>
    </contour>
  </outline>
</glyph>
<glyph name="parenright" format="2">
  <advance width="225.15151515151516"/>
  <unicode hex="0029"/>
  <outline>
    <contour>
      <point x="262.1212121212121" y="753.7575757575758" type="curve"/>
      <point x="206.0909090909091" y="753.7575757575758" type="line"/>
      <point x="212.33333333333334" y="714.6060606060606"/>
      <point x="220.57575757575756" y="625.0"/>
      <point x="220.57575757575756" y="521.4848484848485" type="curve" smooth="yes"/>
      <point x="220.57575757575756" y="297.8484848484849"/>
      <point x="95.57575757575758" y="25.272727272727273"/>
      <point x="0.5757575757575761" y="-118.0" type="curve"/>
      <point x="57.39393939393939" y="-118.0" type="line"/>
      <point x="153.84848484848484" y="16.303030303030305"/>
      <point x="281.27272727272725" y="282.90909090909093"/>
      <point x="281.27272727272725" y="521.4848484848485" type="curve" smooth="yes"/>
      <point x="281.27272727272725" y="630.4242424242424"/>
      <point x="270.3333333333333" y="717.8181818181819"/>
    </contour>
  </outline>
</glyph>
<glyph name="asterisk" format="2">
  <advance width="410.8787878787879"/>
  <unicode hex="002A"/>
  <outline>
    <contour>
      <point x="353.0" y="374.42424242424244" type="line"/>
      <point x="394.93939393939394" y="387.3333333333333" type="line"/>
      <point x="353.90909090909093" y="514.1515151515151" type="line"/>
      <point x="487.5151515151515" y="514.1515151515151" type="line"/>
      <point x="487.5151515151515" y="557.8484848484849" type="line"/>
      <point x="355.42424242424244" y="557.8484848484849" type="line"/>
      <point x="396.45454545454544" y="685.9090909090909" type="line"/>
      <point x="354.030303030303" y="699.5454545454545" type="line"/>
      <point x="312.75757575757575" y="572.4848484848485" type="line"/>
      <point x="204.93939393939394" y="651.5454545454545" type="line"/>
      <point x="178.63636363636363" y="615.8181818181819" type="line"/>
      <point x="285.93939393939394" y="537.5151515151515" type="line"/>
      <point x="177.15151515151516" y="458.0" type="line"/>
      <point x="202.93939393939394" y="423.24242424242425" type="line"/>
      <point x="311.24242424242425" y="502.24242424242425" type="line"/>
    </contour>
  </outline>
</glyph>
<glyph name="plus" format="2">
  <advance width="560.0"/>
  <unicode hex="002B"/>
  <outline>
    <contour>
      <point x="308.57575757575756" y="20.242424242424242" type="line"/>
      <point x="364.93939393939394" y="20.242424242424242" type="line"/>
      <point x="364.93939393939394" y="223.57575757575756" type="line"/>
      <point x="560.939393939394" y="223.57575757575756" type="line"/>
      <point x="560.939393939394" y="278.42424242424244" type="line"/>
      <point x="364.93939393939394" y="278.42424242424244" type="line"/>
      <point x="364.93939393939394" y="479.75757575757575" type="line"/>
      <point x="308.57575757575756" y="479.75757575757575" type="line"/>
      <point x="308.57575757575756" y="278.42424242424244" type="line"/>
      <point x="114.57575757575758" y="278.42424242424244" type="line"/>
      <point x="114.57575757575758" y="223.57575757575756" type="line"/>
      <point x="308.57575757575756" y="223.57575757575756" type="line"/>
    </contour>
  </outline>
</glyph>
<glyph name="comma" format="2">
  <advance width="185.6060606060606"/>
  <unicode hex="002C"/>
  <outline>
    <contour>
      <point x="-1.4848484848484844" y="-129.24242424242425" type="line"/>
      <point x="46.63636363636364" y="-129.24242424242425" type="line"/>
      <point x="157.96969696969697" y="99.96969696969697" type="line"/>
      <point x="92.03030303030303" y="99.96969696969697" type="line"/>
    </contour>
  </outline>
</glyph>
<glyph name="period" format="2">
  <advance width="172.45454545454547"/>
  <unicode hex="002E"/>
  <outline>
    <contour>
      <point x="56.484848484848484" y="0.0" type="line"/>
      <point x="116.72727272727272" y="0.0" type="line"/>
      <point x="139.6060606060606" y="99.96969696969697" type="line"/>
      <point x="79.36363636363636" y="99.96969696969697" type="line"/>
    </contour>
  </outline>
</glyph>
<glyph name="slash" format="2">
  <advance width="405.8787878787879"/>
  <unicode hex="002F"/>
  <outline>
    <contour>
      <point x="98.60606060606061" y="-6.575757575757576" type="line"/>
      <point x="525.060606060606" y="683.0909090909091" type="line"/>
      <point x="469.5151515151515" y="704.3636363636364" type="line"/>
      <point x="43.06060606060606" y="13.93939393939394" type="line"/>
    </contour>
  </outline>
</glyph>
<glyph name="zero" format="2">
  <advance width="560.0"/>
  <unicode hex="0030"/>
  <outline>
    <contour>
      <point x="296.6060606060606" y="-9.727272727272727" type="curve" smooth="yes"/>
      <point x="494.09090909090907" y="-9.727272727272727"/>
      <point x="608.6666666666666" y="237.3939393939394"/>
      <point x="608.6666666666666" y="478.93939393939394" type="curve" smooth="yes"/>
      <point x="608.6666666666666" y="603.8484848484849"/>
      <point x="542.1212121212121" y="670.4848484848485"/>
      <point x="412.3636363636364" y="670.4848484848485" type="curve" smooth="yes"/>
      <point x="209.57575757575756" y="670.4848484848485"/>
      <point x="103.33333333333333" y="404.42424242424244"/>
      <point x="103.33333333333333" y="177.27272727272728" type="curve" smooth="yes"/>
      <point x="103.33333333333333" y="54.63636363636364"/>
      <point x="172.15151515151516" y="-9.727272727272727"/>
    </contour>
    <contour>
      <point x="297.09090909090907" y="43.878787878787875" type="curve" smooth="yes"/>
      <point x="214.12121212121212" y="43.878787878787875"/>
      <point x="164.78787878787878" y="87.18181818181819"/>
      <point x="164.78787878787878" y="183.9090909090909" type="curve" smooth="yes"/>
      <point x="164.78787878787878" y="353.2121212121212"/>
      <point x="243.21212121212122" y="616.8787878787879"/>
      <point x="411.6363636363636" y="616.8787878787879" type="curve" smooth="yes"/>
      <point x="501.6666666666667" y="616.8787878787879"/>
      <point x="547.2121212121212" y="567.5151515151515"/>
      <point x="547.2121212121212" y="474.09090909090907" type="curve" smooth="yes"/>
      <point x="547.2121212121212" y="287.09090909090907"/>
      <point x="461.2121212121212" y="43.878787878787875"/>
    </contour>
  </outline>
</glyph>
<glyph name="one" format="2">
  <advance width="560.0"/>
  <unicode hex="0031"/>
  <outline>
    <contour>
      <point x="317.6363636363636" y="0.0" type="line"/>
      <point x="378.1212121212121" y="0.0" type="line"/>
      <point x="529.3636363636364" y="660.7575757575758" type="line"/>
      <point x="476.27272727272725" y="660.7575757575758" type="line"/>
      <point x="240.96969696969697" y="528.8787878787879" type="line"/>
      <point x="256.0" y="478.45454545454544" type="line"/>
      <point x="451.57575757575756" y="585.8787878787879" type="line"/>
    </contour>
  </outline>
</glyph>
<glyph name="two" format="2">
  <advance width="560.0"/>
  <unicode hex="0032"/>
  <outline>
    <contour>
      <point x="68.3030303030303" y="0.0" type="line"/>
      <point x="490.27272727272725" y="0.0" type="line"/>
      <point x="503.3636363636364" y="53.60606060606061" type="line"/>
      <point x="157.57575757575756" y="53.60606060606061" type="line"/>
      <point x="413.8181818181818" y="259.7878787878788" type="line" smooth="yes"/>
      <point x="515.7878787878788" y="341.3030303030303"/>
      <point x="598.969696969697" y="420.45454545454544"/>
      <point x="598.969696969697" y="527.3333333333334" type="curve" smooth="yes"/>
      <point x="598.969696969697" y="626.5151515151515"/>
      <point x="535.4545454545455" y="671.2424242424242"/>
      <point x="414.6060606060606" y="671.2424242424242" type="curve" smooth="yes"/>
      <point x="348.8181818181818" y="671.2424242424242"/>
      <point x="266.27272727272725" y="655.2727272727273"/>
      <point x="223.0" y="642.7878787878788" type="curve"/>
      <point x="217.12121212121212" y="595.060606060606" type="line"/>
      <point x="263.6969696969697" y="604.8484848484849"/>
      <point x="347.09090909090907" y="617.6363636363636"/>
      <point x="404.6666666666667" y="617.6363636363636" type="curve" smooth="yes"/>
      <point x="490.75757575757575" y="617.6363636363636"/>
      <point x="537.5151515151515" y="591.3030303030303"/>
      <point x="537.5151515151515" y="519.0909090909091" type="curve" smooth="yes"/>
      <point x="537.5151515151515" y="439.0"/>
      <point x="459.030303030303" y="365.54545454545456"/>
      <point x="351.1212121212121" y="275.90909090909093" type="curve" smooth="yes"/>
      <point x="80.15151515151516" y="49.878787878787875" type="line"/>
    </contour>
  </outline>
</glyph>
<glyph name="three" format="2">
  <advance width="560.0"/>
  <unicode hex="0033"/>
  <outline>
    <contour>
      <point x="269.6060606060606" y="-9.727272727272727" type="curve" smooth="yes"/>
      <point x="417.8787878787879" y="-9.727272727272727"/>
      <point x="535.4242424242424" y="74.66666666666667"/>
      <point x="535.4242424242424" y="216.93939393939394" type="curve" smooth="yes"/>
      <point x="535.4242424242424" y="294.75757575757575"/>
      <point x="501.75757575757575" y="330.6060606060606"/>
      <point x="451.969696969697" y="351.54545454545456" type="curve"/>
      <point x="530.8787878787879" y="381.3939393939394"/>
      <point x="591.6666666666666" y="440.030303030303"/>
      <point x="591.6666666666666" y="536.5757575757576" type="curve" smooth="yes"/>
      <point x="591.6666666666666" y="623.6969696969697"/>
      <point x="538.5151515151515" y="670.4848484848485"/>
      <point x="418.42424242424244" y="670.4848484848485" type="curve" smooth="yes"/>
      <point x="346.93939393939394" y="670.4848484848485"/>
      <point x="265.1515151515151" y="655.060606060606"/>
      <point x="223.36363636363637" y="643.1212121212121" type="curve"/>
      <point x="217.6969696969697" y="597.060606060606" type="line"/>
      <point x="260.72727272727275" y="605.3333333333334"/>
      <point x="342.3030303030303" y="616.8787878787879"/>
      <point x="408.3939393939394" y="616.8787878787879" type="curve" smooth="yes"/>
      <point x="492.6060606060606" y="616.8787878787879"/>
      <point x="530.2121212121212" y="588.8181818181819"/>
      <point x="530.2121212121212" y="522.3030303030303" type="curve" smooth="yes"/>
      <point x="530.2121212121212" y="432.24242424242425"/>
      <point x="430.8758787878788" y="370.4312727272727"/>
      <point x="362.93939393939394" y="369.8787878787879" type="curve" smooth="yes"/>
      <point x="233.1818181818182" y="368.42424242424244" type="line"/>
      <point x="220.3030303030303" y="318.6969696969697" type="line"/>
      <point x="350.09090909090907" y="318.2121212121212" type="line" smooth="yes"/>
      <point x="438.8181818181818" y="317.969696969697"/>
      <point x="473.969696969697" y="276.2121212121212"/>
      <point x="473.969696969697" y="213.21212121212122" type="curve" smooth="yes"/>
      <point x="473.969696969697" y="109.15151515151516"/>
      <point x="382.42424242424244" y="43.878787878787875"/>
      <point x="274.030303030303" y="43.878787878787875" type="curve" smooth="yes"/>
      <point x="216.45454545454547" y="43.878787878787875"/>
      <point x="134.72727272727272" y="59.21212121212121"/>
      <point x="88.75757575757575" y="71.03030303030303" type="curve"/>
      <point x="74.9090909090909" y="24.0" type="line"/>
      <point x="117.39393939393939" y="9.757575757575758"/>
      <point x="199.87878787878788" y="-9.727272727272727"/>
    </contour>
  </outline>
</glyph>
<glyph name="four" format="2">
  <advance width="560.0"/>
  <unicode hex="0034"/>
  <outline>
    <contour>
      <point x="368.969696969697" y="-1.2121212121212122" type="line"/>
      <point x="429.2121212121212" y="-1.2121212121212122" type="line"/>
      <point x="458.4848484848485" y="127.15151515151516" type="line"/>
      <point x="542.7272727272727" y="127.15151515151516" type="line"/>
      <point x="555.3333333333334" y="179.78787878787878" type="line"/>
      <point x="470.8484848484849" y="179.78787878787878" type="line"/>
      <point x="522.4545454545455" y="404.75757575757575" type="line"/>
      <point x="462.2121212121212" y="404.75757575757575" type="line"/>
      <point x="410.6060606060606" y="179.78787878787878" type="line"/>
      <point x="155.9090909090909" y="179.78787878787878" type="line"/>
      <point x="481.8787878787879" y="660.0" type="line"/>
      <point x="414.45454545454544" y="660.0" type="line"/>
      <point x="89.96969696969697" y="173.36363636363637" type="line"/>
      <point x="79.0909090909091" y="127.15151515151516" type="line"/>
      <point x="398.24242424242425" y="127.15151515151516" type="line"/>
    </contour>
  </outline>
</glyph>
<glyph name="five" format="2">
  <advance width="560.0"/>
  <unicode hex="0035"/>
  <outline>
    <contour>
      <point x="278.06060606060606" y="-8.212121212121213" type="curve" smooth="yes"/>
      <point x="433.3636363636364" y="-8.212121212121213"/>
      <point x="554.6969696969697" y="114.15151515151516"/>
      <point x="554.6969696969697" y="270.8787878787879" type="curve" smooth="yes"/>
      <point x="554.6969696969697" y="369.72727272727275"/>
      <point x="489.969696969697" y="412.6969696969697"/>
      <point x="384.4848484848485" y="412.6969696969697" type="curve" smooth="yes"/>
      <point x="331.27272727272725" y="412.6969696969697"/>
      <point x="257.3030303030303" y="387.1212121212121"/>
      <point x="215.6969696969697" y="367.3030303030303" type="curve"/>
      <point x="292.8787878787879" y="606.6363636363636" type="line"/>
      <point x="614.7575757575758" y="606.6363636363636" type="line"/>
      <point x="627.3636363636364" y="660.2424242424242" type="line"/>
      <point x="254.8181818181818" y="660.2424242424242" type="line"/>
      <point x="150.63636363636363" y="320.93939393939394" type="line"/>
      <point x="199.87878787878788" y="312.3333333333333" type="line"/>
      <point x="240.3030303030303" y="332.6969696969697"/>
      <point x="314.09090909090907" y="359.09090909090907"/>
      <point x="369.030303030303" y="359.09090909090907" type="curve" smooth="yes"/>
      <point x="451.030303030303" y="359.09090909090907"/>
      <point x="493.24242424242425" y="325.72727272727275"/>
      <point x="493.24242424242425" y="263.6060606060606" type="curve" smooth="yes"/>
      <point x="493.24242424242425" y="142.54545454545453"/>
      <point x="397.6060606060606" y="45.39393939393939"/>
      <point x="277.93939393939394" y="45.39393939393939" type="curve" smooth="yes"/>
      <point x="219.9090909090909" y="45.39393939393939"/>
      <point x="135.42424242424244" y="60.878787878787875"/>
      <point x="87.6969696969697" y="72.87878787878788" type="curve"/>
      <point x="72.60606060606061" y="23.424242424242426" type="line"/>
      <point x="119.57575757575758" y="9.969696969696969"/>
      <point x="207.21212121212122" y="-8.212121212121213"/>
    </contour>
  </outline>
</glyph>
<glyph name="six" format="2">
  <advance width="560.0"/>
  <unicode hex="0036"/>
  <outline>
    <contour>
      <point x="300.6363636363636" y="-9.727272727272727" type="curve" smooth="yes"/>
      <point x="468.54545454545456" y="-9.727272727272727"/>
      <point x="565.5757575757576" y="98.51515151515152"/>
      <point x="565.5757575757576" y="254.78787878787878" type="curve" smooth="yes"/>
      <point x="565.5757575757576" y="350.1515151515151"/>
      <point x="510.54545454545456" y="410.6060606060606"/>
      <point x="390.6363636363636" y="410.6060606060606" type="curve" smooth="yes"/>
      <point x="321.09090909090907" y="410.6060606060606"/>
      <point x="240.3939393939394" y="385.3030303030303"/>
      <point x="199.57575757575756" y="365.75757575757575" type="curve"/>
      <point x="231.03030303030303" y="475.8484848484849"/>
      <point x="303.24242424242425" y="616.8787878787879"/>
      <point x="455.1515151515151" y="616.8787878787879" type="curve" smooth="yes"/>
      <point x="511.6363636363636" y="616.8787878787879"/>
      <point x="578.9090909090909" y="607.1212121212121"/>
      <point x="613.6666666666666" y="600.3636363636364" type="curve"/>
      <point x="630.9090909090909" y="650.7575757575758" type="line"/>
      <point x="595.4545454545455" y="659.0"/>
      <point x="526.7575757575758" y="670.4848484848485"/>
      <point x="469.72727272727275" y="670.4848484848485" type="curve" smooth="yes"/>
      <point x="223.15151515151516" y="670.4848484848485"/>
      <point x="115.66666666666667" y="397.27272727272725"/>
      <point x="115.66666666666667" y="215.42424242424244" type="curve" smooth="yes"/>
      <point x="115.66666666666667" y="69.0909090909091"/>
      <point x="182.4848484848485" y="-9.727272727272727"/>
    </contour>
    <contour>
      <point x="302.06060606060606" y="43.878787878787875" type="curve" smooth="yes"/>
      <point x="216.8181818181818" y="43.878787878787875"/>
      <point x="177.87878787878788" y="110.93939393939394"/>
      <point x="177.87878787878788" y="214.45454545454547" type="curve" smooth="yes"/>
      <point x="177.87878787878788" y="251.33333333333334"/>
      <point x="182.87878787878788" y="295.54545454545456"/>
      <point x="188.3939393939394" y="313.3030303030303" type="curve"/>
      <point x="230.6060606060606" y="332.3939393939394"/>
      <point x="309.45454545454544" y="357.0"/>
      <point x="373.1212121212121" y="357.0" type="curve" smooth="yes"/>
      <point x="467.8484848484849" y="357.0"/>
      <point x="504.1212121212121" y="318.5151515151515"/>
      <point x="504.1212121212121" y="241.03030303030303" type="curve" smooth="yes"/>
      <point x="504.1212121212121" y="133.06060606060606"/>
      <point x="437.1212121212121" y="43.878787878787875"/>
    </contour>
  </outline>
</glyph>
<glyph name="seven" format="2">
  <advance width="560.0"/>
  <unicode hex="0037"/>
  <outline>
    <contour>
      <point x="208.66666666666666" y="-11.181818181818182" type="line"/>
      <point x="605.0909090909091" y="561.2424242424242" type="line"/>
      <point x="628.4242424242424" y="660.0" type="line"/>
      <point x="233.84848484848484" y="660.0" type="line"/>
      <point x="221.24242424242425" y="605.6363636363636" type="line"/>
      <point x="553.8181818181819" y="605.6363636363636" type="line"/>
      <point x="545.8181818181819" y="569.939393939394" type="line"/>
      <point x="154.12121212121212" y="8.151515151515152" type="line"/>
    </contour>
  </outline>
</glyph>
<glyph name="eight" format="2">
  <advance width="560.0"/>
  <unicode hex="0038"/>
  <outline>
    <contour>
      <point x="269.75757575757575" y="-10.212121212121213" type="curve" smooth="yes"/>
      <point x="521.1212121212121" y="-10.212121212121213"/>
      <point x="569.6969696969697" y="154.24242424242425"/>
      <point x="569.6969696969697" y="219.27272727272728" type="curve" smooth="yes"/>
      <point x="569.6969696969697" y="270.3636363636364"/>
      <point x="554.3636363636364" y="315.8484848484849"/>
      <point x="472.24242424242425" y="346.06060606060606" type="curve"/>
      <point x="581.3939393939394" y="376.1515151515151"/>
      <point x="638.7575757575758" y="457.4848484848485"/>
      <point x="638.7575757575758" y="537.7272727272727" type="curve" smooth="yes"/>
      <point x="638.7575757575758" y="618.3333333333334"/>
      <point x="579.8181818181819" y="670.7272727272727"/>
      <point x="440.24242424242425" y="670.7272727272727" type="curve" smooth="yes"/>
      <point x="236.03030303030303" y="670.7272727272727"/>
      <point x="159.8181818181818" y="558.2727272727273"/>
      <point x="159.8181818181818" y="461.72727272727275" type="curve" smooth="yes"/>
      <point x="159.8181818181818" y="407.969696969697"/>
      <point x="175.75757575757575" y="377.6666666666667"/>
      <point x="239.6969696969697" y="346.06060606060606" type="curve"/>
      <point x="151.57575757575756" y="310.54545454545456"/>
      <point x="65.75757575757575" y="247.33333333333334"/>
      <point x="65.75757575757575" y="126.72727272727272" type="curve" smooth="yes"/>
      <point x="65.75757575757575" y="26.060606060606062"/>
      <point x="152.57575757575756" y="-10.212121212121213"/>
    </contour>
    <contour>
      <point x="284.09090909090907" y="43.39393939393939" type="curve" smooth="yes"/>
      <point x="182.45454545454544" y="43.39393939393939"/>
      <point x="131.42424242424244" y="77.27272727272728"/>
      <point x="131.42424242424244" y="136.06060606060606" type="curve" smooth="yes"/>
      <point x="131.42424242424244" y="244.6969696969697"/>
      <point x="219.9090909090909" y="295.3636363636364"/>
      <point x="295.969696969697" y="316.6666666666667" type="curve"/>
      <point x="399.8787878787879" y="316.6666666666667" type="line"/>
      <point x="468.2121212121212" y="297.1212121212121"/>
      <point x="506.5151515151515" y="277.8484848484849"/>
      <point x="506.5151515151515" y="210.24242424242425" type="curve" smooth="yes"/>
      <point x="506.5151515151515" y="149.9090909090909"/>
      <point x="447.72727272727275" y="43.39393939393939"/>
    </contour>
    <contour>
      <point x="308.8181818181818" y="368.54545454545456" type="line"/>
      <point x="241.15151515151516" y="392.06060606060606"/>
      <point x="221.27272727272728" y="422.75757575757575"/>
      <point x="221.27272727272728" y="464.8484848484849" type="curve" smooth="yes"/>
      <point x="221.27272727272728" y="537.0909090909091"/>
      <point x="273.27272727272725" y="617.1212121212121"/>
      <point x="426.1515151515151" y="617.1212121212121" type="curve" smooth="yes"/>
      <point x="530.6363636363636" y="617.1212121212121"/>
      <point x="573.3333333333334" y="585.3636363636364"/>
      <point x="573.3333333333334" y="520.0909090909091" type="curve" smooth="yes"/>
      <point x="573.3333333333334" y="430.27272727272725"/>
      <point x="468.1515151515151" y="382.2121212121212"/>
      <point x="412.72727272727275" y="368.54545454545456" type="curve"/>
    </contour>
  </outline>
</glyph>
<glyph name="nine" format="2">
  <advance width="560.0"/>
  <unicode hex="0039"/>
  <outline>
    <contour>
      <point x="238.36363636363637" y="-9.727272727272727" type="curve" smooth="yes"/>
      <point x="399.4848484848485" y="-9.727272727272727"/>
      <point x="531.5151515151515" y="88.0"/>
      <point x="579.2424242424242" y="347.27272727272725" type="curve" smooth="yes"/>
      <point x="620.9090909090909" y="551.7878787878788"/>
      <point x="576.030303030303" y="670.4848484848485"/>
      <point x="429.3636363636364" y="670.4848484848485" type="curve" smooth="yes"/>
      <point x="286.4848484848485" y="670.4848484848485"/>
      <point x="178.78787878787878" y="574.2424242424242"/>
      <point x="153.03030303030303" y="447.06060606060606" type="curve" smooth="yes"/>
      <point x="128.03030303030303" y="313.4848484848485"/>
      <point x="189.8181818181818" y="251.87878787878788"/>
      <point x="312.6666666666667" y="251.87878787878788" type="curve" smooth="yes"/>
      <point x="367.4848484848485" y="251.87878787878788"/>
      <point x="464.45454545454544" y="276.6060606060606"/>
      <point x="507.6363636363636" y="290.0" type="curve"/>
      <point x="464.1818181818182" y="122.24242424242425"/>
      <point x="372.7878787878788" y="46.57575757575758"/>
      <point x="252.6969696969697" y="46.57575757575758" type="curve" smooth="yes"/>
      <point x="196.21212121212122" y="46.57575757575758"/>
      <point x="131.6060606060606" y="57.09090909090909"/>
      <point x="99.03030303030303" y="64.60606060606061" type="curve"/>
      <point x="78.24242424242425" y="11.515151515151516" type="line"/>
      <point x="115.54545454545455" y="2.515151515151515"/>
      <point x="184.36363636363637" y="-9.727272727272727"/>
    </contour>
    <contour>
      <point x="331.42424242424244" y="307.2121212121212" type="curve" smooth="yes"/>
      <point x="236.78787878787878" y="307.2121212121212"/>
      <point x="193.0909090909091" y="350.5151515151515"/>
      <point x="214.3030303030303" y="449.969696969697" type="curve" smooth="yes"/>
      <point x="235.5151515151515" y="552.5151515151515"/>
      <point x="319.72727272727275" y="614.4242424242424"/>
      <point x="415.27272727272725" y="614.4242424242424" type="curve" smooth="yes"/>
      <point x="533.6363636363636" y="614.4242424242424"/>
      <point x="559.939393939394" y="508.3636363636364"/>
      <point x="522.0" y="343.42424242424244" type="curve"/>
      <point x="469.06060606060606" y="328.3333333333333"/>
      <point x="381.030303030303" y="307.2121212121212"/>
    </contour>
  </outline>
</glyph>
<glyph name="less" format="2">
  <advance width="560.0"/>
  <unicode hex="003C"/>
  <outline>
    <contour>
      <point x="523.7878787878788" y="13.787878787878787" type="line"/>
      <point x="523.7878787878788" y="77.81818181818181" type="line"/>
      <point x="164.3030303030303" y="251.72727272727272" type="line"/>
      <point x="523.7878787878788" y="423.45454545454544" type="line"/>
      <point x="523.7878787878788" y="485.969696969697" type="line"/>
      <point x="104.15151515151516" y="277.969696969697" type="line"/>
      <point x="104.15151515151516" y="224.03030303030303" type="line"/>
    </contour>
  </outline>
</glyph>
<glyph name="equal" format="2">
  <advance width="560.0"/>
  <unicode hex="003D"/>
  <outline>
    <contour>
      <point x="123.57575757575758" y="312.42424242424244" type="line"/>
      <point x="552.4242424242424" y="312.42424242424244" type="line"/>
      <point x="552.4242424242424" y="367.5151515151515" type="line"/>
      <point x="123.57575757575758" y="367.5151515151515" type="line"/>
    </contour>
    <contour>
      <point x="123.57575757575758" y="133.96969696969697" type="line"/>
      <point x="552.4242424242424" y="133.96969696969697" type="line"/>
      <point x="552.4242424242424" y="189.06060606060606" type="line"/>
      <point x="123.57575757575758" y="189.06060606060606" type="line"/>
    </contour>
  </outline>
</glyph>
<glyph name="greater" format="2">
  <advance width="560.0"/>
  <unicode hex="003E"/>
  <outline>
    <contour>
      <point x="149.6969696969697" y="13.787878787878787" type="line"/>
      <point x="569.3333333333334" y="224.03030303030303" type="line"/>
      <point x="569.3333333333334" y="277.969696969697" type="line"/>
      <point x="149.6969696969697" y="485.969696969697" type="line"/>
      <point x="149.6969696969697" y="423.45454545454544" type="line"/>
      <point x="509.1818181818182" y="251.72727272727272" type="line"/>
      <point x="149.6969696969697" y="77.81818181818181" type="line"/>
    </contour>
  </outline>
</glyph>
<glyph name="question" format="2">
  <advance width="409.7878787878788"/>
  <unicode hex="003F"/>
  <outline>
    <contour>
      <point x="185.36363636363637" y="192.84848484848484" type="curve"/>
      <point x="241.66666666666666" y="192.84848484848484" type="line"/>
      <point x="249.9090909090909" y="232.0909090909091" type="line" smooth="yes"/>
      <point x="256.42424242424244" y="264.6969696969697"/>
      <point x="281.2012121212121" y="299.8036363636364"/>
      <point x="331.6060606060606" y="339.93939393939394" type="curve" smooth="yes"/>
      <point x="461.29212121212123" y="442.47030303030306"/>
      <point x="499.27272727272725" y="479.6363636363636"/>
      <point x="499.27272727272725" y="580.6969696969697" type="curve" smooth="yes"/>
      <point x="499.27272727272725" y="670.7272727272727"/>
      <point x="431.3030303030303" y="704.8787878787879"/>
      <point x="339.5151515151515" y="704.8787878787879" type="curve" smooth="yes"/>
      <point x="291.54545454545456" y="704.8787878787879"/>
      <point x="223.8181818181818" y="690.6363636363636"/>
      <point x="186.33333333333334" y="680.1515151515151" type="curve"/>
      <point x="182.93939393939394" y="630.4545454545455" type="line"/>
      <point x="220.0" y="638.4848484848485"/>
      <point x="285.54545454545456" y="650.030303030303"/>
      <point x="327.45454545454544" y="650.030303030303" type="curve" smooth="yes"/>
      <point x="393.6666666666667" y="650.030303030303"/>
      <point x="436.06060606060606" y="631.3939393939394"/>
      <point x="436.06060606060606" y="577.3030303030303" type="curve" smooth="yes"/>
      <point x="436.06060606060606" y="501.6666666666667"/>
      <point x="401.50957575757576" y="467.8993939393939"/>
      <point x="294.93939393939394" y="383.0" type="curve" smooth="yes"/>
      <point x="234.35781818181817" y="335.4749090909091"/>
      <point x="200.96" y="294.1064242424242"/>
      <point x="191.84848484848484" y="247.24242424242425" type="curve" smooth="yes"/>
      <point x="188.12121212121212" y="228.6060606060606"/>
      <point x="186.12121212121212" y="204.75757575757575"/>
    </contour>
    <contour>
      <point x="146.5151515151515" y="0.7575757575757576" type="line"/>
      <point x="206.75757575757575" y="0.7575757575757576" type="line"/>
      <point x="229.6060606060606" y="103.60606060606061" type="line"/>
      <point x="168.6060606060606" y="103.60606060606061" type="line"/>
    </contour>
  </outline>
</glyph>
<glyph name="at" format="2">
  <advance width="926.4242424242424"/>
  <unicode hex="0040"/>
  <outline>
    <contour>
      <point x="434.93939393939394" y="-199.42424242424244" type="curve" smooth="yes"/>
      <point x="467.93939393939394" y="-199.42424242424244"/>
      <point x="534.1818181818181" y="-194.1818181818182"/>
      <point x="574.6666666666666" y="-190.1818181818182" type="curve"/>
      <point x="584.7575757575758" y="-136.0" type="line"/>
      <point x="541.7575757575758" y="-140.0"/>
      <point x="475.75757575757575" y="-145.75757575757575"/>
      <point x="448.5151515151515" y="-145.75757575757575" type="curve" smooth="yes"/>
      <point x="149.45454545454547" y="-145.75757575757575"/>
      <point x="114.89551515151516" y="42.34375757575758"/>
      <point x="168.78787878787878" y="263.42424242424244" type="curve" smooth="yes"/>
      <point x="239.4409696969697" y="552.6770909090909"/>
      <point x="374.6666666666667" y="665.7575757575758"/>
      <point x="628.6363636363636" y="665.7575757575758" type="curve" smooth="yes"/>
      <point x="919.6060606060606" y="665.7575757575758"/>
      <point x="943.8252121212121" y="505.0358787878788"/>
      <point x="897.939393939394" y="307.0" type="curve" smooth="yes"/>
      <point x="845.3706666666667" y="80.61139393939393"/>
      <point x="795.5454545454545" y="46.54545454545455"/>
      <point x="730.030303030303" y="46.54545454545455" type="curve" smooth="yes"/>
      <point x="693.939393939394" y="46.54545454545455"/>
      <point x="673.3939393939394" y="51.0"/>
      <point x="674.1212121212121" y="90.9090909090909" type="curve" smooth="yes"/>
      <point x="675.0909090909091" y="147.15151515151516"/>
      <point x="745.4545454545455" y="439.45454545454544"/>
      <point x="757.2424242424242" y="486.57575757575756" type="curve"/>
      <point x="699.5454545454545" y="497.24242424242425"/>
      <point x="613.3030303030303" y="509.72727272727275"/>
      <point x="575.3636363636364" y="509.72727272727275" type="curve" smooth="yes"/>
      <point x="436.1515151515151" y="509.72727272727275"/>
      <point x="355.3088484848485" y="401.25333333333333"/>
      <point x="321.09090909090907" y="208.66666666666666" type="curve" smooth="yes"/>
      <point x="305.854303030303" y="122.43515151515152"/>
      <point x="294.3636363636364" y="-10.484848484848484"/>
      <point x="432.1212121212121" y="-9.727272727272727" type="curve" smooth="yes"/>
      <point x="494.1515151515151" y="-9.727272727272727"/>
      <point x="583.3939393939394" y="29.151515151515152"/>
      <point x="623.3939393939394" y="49.15151515151515" type="curve"/>
      <point x="629.7575757575758" y="4.757575757575758"/>
      <point x="664.4848484848485" y="-10.0"/>
      <point x="717.4545454545455" y="-10.0" type="curve" smooth="yes"/>
      <point x="819.939393939394" y="-10.0"/>
      <point x="889.9917575757576" y="31.024484848484846"/>
      <point x="953.030303030303" y="297.27272727272725" type="curve" smooth="yes"/>
      <point x="1007.2339393939394" y="526.4790303030303"/>
      <point x="959.2424242424242" y="719.4242424242424"/>
      <point x="639.5454545454545" y="719.4242424242424" type="curve" smooth="yes"/>
      <point x="346.5151515151515" y="719.4242424242424"/>
      <point x="188.1590303030303" y="598.7328484848485"/>
      <point x="109.18181818181819" y="263.42424242424244" type="curve" smooth="yes"/>
      <point x="58.73478787878788" y="49.217454545454544"/>
      <point x="83.36363636363636" y="-199.42424242424244"/>
    </contour>
    <contour>
      <point x="445.90909090909093" y="45.18181818181819" type="curve" smooth="yes"/>
      <point x="365.23684848484845" y="45.54109090909091"/>
      <point x="363.8484848484849" y="129.42424242424244"/>
      <point x="380.3333333333333" y="207.9090909090909" type="curve" smooth="yes"/>
      <point x="412.72727272727275" y="362.90909090909093"/>
      <point x="462.6666666666667" y="457.8484848484849"/>
      <point x="571.3333333333334" y="457.8484848484849" type="curve" smooth="yes"/>
      <point x="613.7878787878788" y="457.8484848484849"/>
      <point x="662.060606060606" y="449.6060606060606"/>
      <point x="688.8484848484849" y="443.09090909090907" type="curve"/>
      <point x="660.0" y="325.2121212121212"/>
      <point x="618.6363636363636" y="134.6060606060606"/>
      <point x="615.6363636363636" y="100.60606060606061" type="curve"/>
      <point x="576.3030303030303" y="79.33333333333333"/>
      <point x="504.0870303030303" y="44.81381818181818"/>
    </contour>
  </outline>
</glyph>
<glyph name="A" format="2">
  <advance width="554.7878787878788"/>
  <unicode hex="0041"/>
  <outline>
    <contour>
      <point x="27.393939393939394" y="0.0" type="line"/>
      <point x="88.87878787878788" y="0.0" type="line"/>
      <point x="188.0909090909091" y="192.24242424242425" type="line"/>
      <point x="462.6060606060606" y="192.24242424242425" type="line"/>
      <point x="470.72727272727275" y="0.0" type="line"/>
      <point x="531.4545454545455" y="0.0" type="line"/>
      <point x="507.75757575757575" y="695.1515151515151" type="line"/>
      <point x="382.6363636363636" y="695.1515151515151" type="line"/>
    </contour>
    <contour>
      <point x="214.33333333333334" y="245.57575757575756" type="line"/>
      <point x="417.42424242424244" y="641.060606060606" type="line"/>
      <point x="449.7878787878788" y="641.060606060606" type="line"/>
      <point x="462.3030303030303" y="245.57575757575756" type="line"/>
    </contour>
  </outline>
</glyph>
<glyph name="B" format="2">
  <advance width="578.3030303030303"/>
  <unicode hex="0042"/>
  <outline>
    <contour>
      <point x="80.9090909090909" y="0.0" type="line"/>
      <point x="314.93939393939394" y="0.0" type="line" smooth="yes"/>
      <point x="486.09090909090907" y="0.0"/>
      <point x="578.3939393939394" y="94.87878787878788"/>
      <point x="578.3939393939394" y="240.33333333333334" type="curve" smooth="yes"/>
      <point x="578.3939393939394" y="306.24242424242425"/>
      <point x="546.4242424242424" y="340.4848484848485"/>
      <point x="489.90909090909093" y="359.8484848484849" type="curve"/>
      <point x="561.939393939394" y="388.2121212121212"/>
      <point x="623.8787878787879" y="456.1515151515151"/>
      <point x="623.8787878787879" y="562.5454545454545" type="curve" smooth="yes"/>
      <point x="623.8787878787879" y="659.7575757575758"/>
      <point x="567.4848484848485" y="695.1515151515151"/>
      <point x="461.030303030303" y="695.1515151515151" type="curve" smooth="yes"/>
      <point x="240.93939393939394" y="695.1515151515151" type="line"/>
    </contour>
    <contour>
      <point x="154.24242424242425" y="53.60606060606061" type="line"/>
      <point x="217.4848484848485" y="328.93939393939394" type="line"/>
      <point x="386.54545454545456" y="328.93939393939394" type="line" smooth="yes"/>
      <point x="458.8181818181818" y="328.93939393939394"/>
      <point x="515.1818181818181" y="311.1818181818182"/>
      <point x="515.1818181818181" y="238.84848484848484" type="curve" smooth="yes"/>
      <point x="515.1818181818181" y="126.12121212121212"/>
      <point x="447.3939393939394" y="53.60606060606061"/>
      <point x="327.54545454545456" y="53.60606060606061" type="curve" smooth="yes"/>
    </contour>
    <contour>
      <point x="229.0909090909091" y="381.8181818181818" type="line"/>
      <point x="289.06060606060606" y="641.5454545454545" type="line"/>
      <point x="450.3939393939394" y="641.5454545454545" type="line" smooth="yes"/>
      <point x="527.0" y="641.5454545454545"/>
      <point x="561.6666666666666" y="621.5454545454545"/>
      <point x="561.6666666666666" y="555.0" type="curve" smooth="yes"/>
      <point x="561.6666666666666" y="459.42424242424244"/>
      <point x="495.93939393939394" y="381.8181818181818"/>
      <point x="396.4848484848485" y="381.8181818181818" type="curve" smooth="yes"/>
    </contour>
  </outline>
</glyph>
<glyph name="C" format="2">
  <advance width="506.1212121212121"/>
  <unicode hex="0043"/>
  <outline>
    <contour>
      <point x="305.5151515151515" y="-9.727272727272727" type="curve" smooth="yes"/>
      <point x="362.7878787878788" y="-9.727272727272727"/>
      <point x="435.27272727272725" y="2.242424242424242"/>
      <point x="473.0" y="11.727272727272727" type="curve"/>
      <point x="476.42424242424244" y="62.66666666666667" type="line"/>
      <point x="440.42424242424244" y="55.151515151515156"/>
      <point x="371.42424242424244" y="45.121212121212125"/>
      <point x="313.6666666666667" y="45.121212121212125" type="curve" smooth="yes"/>
      <point x="219.54545454545456" y="45.121212121212125"/>
      <point x="178.87878787878788" y="93.03030303030303"/>
      <point x="178.87878787878788" y="191.21212121212122" type="curve" smooth="yes"/>
      <point x="178.87878787878788" y="387.27272727272725"/>
      <point x="274.09090909090907" y="650.030303030303"/>
      <point x="459.90909090909093" y="650.030303030303" type="curve" smooth="yes"/>
      <point x="514.6060606060606" y="650.030303030303"/>
      <point x="580.6969696969697" y="640.7575757575758"/>
      <point x="615.2727272727273" y="634.2424242424242" type="curve"/>
      <point x="629.0909090909091" y="683.2121212121212" type="line"/>
      <point x="591.8484848484849" y="692.4242424242424"/>
      <point x="521.1212121212121" y="704.8787878787879"/>
      <point x="464.1515151515151" y="704.8787878787879" type="curve" smooth="yes"/>
      <point x="221.8181818181818" y="704.8787878787879"/>
      <point x="115.66666666666667" y="401.3030303030303"/>
      <point x="115.66666666666667" y="188.78787878787878" type="curve" smooth="yes"/>
      <point x="115.66666666666667" y="59.0"/>
      <point x="177.87878787878788" y="-9.727272727272727"/>
    </contour>
  </outline>
</glyph>
<glyph name="D" format="2">
  <advance width="607.2727272727273"/>
  <unicode hex="0044"/>
  <outline>
    <contour>
      <point x="80.9090909090909" y="0.0" type="line"/>
      <point x="319.6060606060606" y="0.0" type="line" smooth="yes"/>
      <point x="546.939393939394" y="0.0"/>
      <point x="649.3939393939394" y="281.8484848484849"/>
      <point x="649.3939393939394" y="489.6666666666667" type="curve" smooth="yes"/>
      <point x="649.3939393939394" y="632.969696969697"/>
      <point x="588.8484848484849" y="695.1515151515151"/>
      <point x="466.3030303030303" y="695.1515151515151" type="curve" smooth="yes"/>
      <point x="241.6969696969697" y="695.1515151515151" type="line"/>
    </contour>
    <contour>
      <point x="155.24242424242425" y="54.09090909090909" type="line"/>
      <point x="289.57575757575756" y="641.060606060606" type="line"/>
      <point x="454.2121212121212" y="641.060606060606" type="line" smooth="yes"/>
      <point x="548.7272727272727" y="641.060606060606"/>
      <point x="586.1818181818181" y="594.7878787878788"/>
      <point x="586.1818181818181" y="489.6666666666667" type="curve" smooth="yes"/>
      <point x="586.1818181818181" y="317.93939393939394"/>
      <point x="499.8484848484849" y="54.09090909090909"/>
      <point x="329.3333333333333" y="54.09090909090909" type="curve" smooth="yes"/>
    </contour>
  </outline>
</glyph>
<glyph name="E" format="2">
  <advance width="506.8484848484849"/>
  <unicode hex="0045"/>
  <outline>
    <contour>
      <point x="80.9090909090909" y="0.0" type="line"/>
      <point x="463.4848484848485" y="0.0" type="line"/>
      <point x="476.09090909090907" y="54.09090909090909" type="line"/>
      <point x="154.4848484848485" y="54.09090909090909" type="line"/>
      <point x="217.24242424242425" y="327.72727272727275" type="line"/>
      <point x="482.8484848484849" y="327.72727272727275" type="line"/>
      <point x="495.6969696969697" y="381.8181818181818" type="line"/>
      <point x="229.84848484848484" y="381.8181818181818" type="line"/>
      <point x="289.57575757575756" y="641.060606060606" type="line"/>
      <point x="610.939393939394" y="641.060606060606" type="line"/>
      <point x="623.7878787878788" y="695.1515151515151" type="line"/>
      <point x="241.45454545454547" y="695.1515151515151" type="line"/>
    </contour>
  </outline>
</glyph>
<glyph name="F" format="2">
  <advance width="483.06060606060606"/>
  <unicode hex="0046"/>
  <outline>
    <contour>
      <point x="80.9090909090909" y="0.0" type="line"/>
      <point x="141.63636363636363" y="0.0" type="line"/>
      <point x="210.03030303030303" y="296.3636363636364" type="line"/>
      <point x="478.1212121212121" y="296.3636363636364" type="line"/>
      <point x="491.2121212121212" y="350.45454545454544" type="line"/>
      <point x="222.87878787878788" y="350.45454545454544" type="line"/>
      <point x="289.57575757575756" y="641.060606060606" type="line"/>
      <point x="601.9090909090909" y="641.060606060606" type="line"/>
      <point x="614.7575757575758" y="695.1515151515151" type="line"/>
      <point x="241.6969696969697" y="695.1515151515151" type="line"/>
    </contour>
  </outline>
</glyph>
<glyph name="G" format="2">
  <advance width="573.3030303030303"/>
  <unicode hex="0047"/>
  <outline>
    <contour>
      <point x="320.1818181818182" y="-9.727272727272727" type="curve" smooth="yes"/>
      <point x="392.4848484848485" y="-9.727272727272727"/>
      <point x="473.06060606060606" y="6.03030303030303"/>
      <point x="513.4242424242424" y="17.78787878787879" type="curve"/>
      <point x="591.6060606060606" y="353.75757575757575" type="line"/>
      <point x="415.6060606060606" y="353.75757575757575" type="line"/>
      <point x="403.0" y="301.1212121212121" type="line"/>
      <point x="518.5151515151515" y="301.1212121212121" type="line"/>
      <point x="463.06060606060606" y="62.24242424242424" type="line"/>
      <point x="431.3636363636364" y="54.93939393939394"/>
      <point x="372.030303030303" y="44.36363636363636"/>
      <point x="325.8181818181818" y="44.36363636363636" type="curve" smooth="yes"/>
      <point x="231.72727272727272" y="44.36363636363636"/>
      <point x="179.6060606060606" y="85.51515151515152"/>
      <point x="179.6060606060606" y="181.3030303030303" type="curve" smooth="yes"/>
      <point x="179.6060606060606" y="377.72727272727275"/>
      <point x="264.8787878787879" y="650.7878787878788"/>
      <point x="460.8181818181818" y="650.7878787878788" type="curve" smooth="yes"/>
      <point x="526.3333333333334" y="650.7878787878788"/>
      <point x="607.8484848484849" y="638.2727272727273"/>
      <point x="651.6060606060606" y="629.2727272727273" type="curve"/>
      <point x="666.939393939394" y="676.2424242424242" type="line"/>
      <point x="624.1818181818181" y="688.6969696969697"/>
      <point x="541.2121212121212" y="704.8787878787879"/>
      <point x="469.54545454545456" y="704.8787878787879" type="curve" smooth="yes"/>
      <point x="224.84848484848484" y="704.8787878787879"/>
      <point x="116.39393939393939" y="424.1818181818182"/>
      <point x="116.39393939393939" y="181.54545454545453" type="curve" smooth="yes"/>
      <point x="116.39393939393939" y="51.42424242424242"/>
      <point x="189.0909090909091" y="-9.727272727272727"/>
    </contour>
  </outline>
</glyph>
<glyph name="H" format="2">
  <advance width="624.5454545454545"/>
  <unicode hex="0048"/>
  <outline>
    <contour>
      <point x="80.9090909090909" y="0.0" type="line"/>
      <point x="141.63636363636363" y="0.0" type="line"/>
      <point x="215.96969696969697" y="322.8484848484849" type="line"/>
      <point x="557.2424242424242" y="322.8484848484849" type="line"/>
      <point x="482.90909090909093" y="0.0" type="line"/>
      <point x="543.6363636363636" y="0.0" type="line"/>
      <point x="704.4242424242424" y="695.1515151515151" type="line"/>
      <point x="643.6969696969697" y="695.1515151515151" type="line"/>
      <point x="570.0909090909091" y="376.93939393939394" type="line"/>
      <point x="228.8181818181818" y="376.93939393939394" type="line"/>
      <point x="302.42424242424244" y="695.1515151515151" type="line"/>
      <point x="241.6969696969697" y="695.1515151515151" type="line"/>
    </contour>
  </outline>
</glyph>
<glyph name="I" format="2">
  <advance width="222.54545454545456"/>
  <unicode hex="0049"/>
  <outline>
    <contour>
      <point x="80.9090909090909" y="0.0" type="line"/>
      <point x="141.63636363636363" y="0.0" type="line"/>
      <point x="302.42424242424244" y="695.1515151515151" type="line"/>
      <point x="241.6969696969697" y="695.1515151515151" type="line"/>
    </contour>
  </outline>
</glyph>
<glyph name="J" format="2">
  <advance width="260.27272727272725"/>
  <unicode hex="004A"/>
  <outline>
    <contour>
      <point x="6.757575757575758" y="-70.51515151515152" type="line"/>
      <point x="153.72727272727272" y="-70.51515151515152"/>
      <point x="173.61866666666666" y="-40.17769696969697"/>
      <point x="208.8181818181818" y="113.78787878787878" type="curve" smooth="yes"/>
      <point x="343.1515151515151" y="695.1515151515151" type="line"/>
      <point x="282.42424242424244" y="695.1515151515151" type="line"/>
      <point x="149.6060606060606" y="120.60606060606061" type="line" smooth="yes"/>
      <point x="122.51515151515152" y="2.4545454545454533"/>
      <point x="107.0" y="-15.939393939393938"/>
      <point x="16.87878787878788" y="-16.424242424242422" type="curve"/>
    </contour>
  </outline>
</glyph>
<glyph name="K" format="2">
  <advance width="515.7575757575758"/>
  <unicode hex="004B"/>
  <outline>
    <contour>
      <point x="80.9090909090909" y="0.0" type="line"/>
      <point x="141.63636363636363" y="0.0" type="line"/>
      <point x="214.0" y="313.72727272727275" type="line"/>
      <point x="320.3030303030303" y="315.42424242424244" type="line"/>
      <point x="432.4848484848485" y="0.0" type="line"/>
      <point x="496.42424242424244" y="0.0" type="line"/>
      <point x="373.57575757575756" y="344.3030303030303" type="line"/>
      <point x="656.4848484848485" y="695.1515151515151" type="line"/>
      <point x="587.3030303030303" y="695.1515151515151" type="line"/>
      <point x="324.93939393939394" y="369.75757575757575" type="line"/>
      <point x="226.0909090909091" y="367.8181818181818" type="line"/>
      <point x="302.42424242424244" y="695.1515151515151" type="line"/>
      <point x="241.6969696969697" y="695.1515151515151" type="line"/>
    </contour>
  </outline>
</glyph>
<glyph name="L" format="2">
  <advance width="436.3939393939394"/>
  <unicode hex="004C"/>
  <outline>
    <contour>
      <point x="80.9090909090909" y="0.0" type="line"/>
      <point x="428.8484848484849" y="0.0" type="line"/>
      <point x="441.45454545454544" y="54.09090909090909" type="line"/>
      <point x="154.4848484848485" y="54.09090909090909" type="line"/>
      <point x="302.42424242424244" y="695.1515151515151" type="line"/>
      <point x="241.6969696969697" y="695.1515151515151" type="line"/>
    </contour>
  </outline>
</glyph>
<glyph name="M" format="2">
  <advance width="777.6363636363636"/>
  <unicode hex="004D"/>
  <outline>
    <contour>
      <point x="80.9090909090909" y="0.0" type="line"/>
      <point x="141.63636363636363" y="0.0" type="line"/>
      <point x="289.3333333333333" y="641.060606060606" type="line"/>
      <point x="301.1515151515151" y="641.060606060606" type="line"/>
      <point x="358.969696969697" y="23.18181818181818" type="line"/>
      <point x="425.3333333333333" y="23.18181818181818" type="line"/>
      <point x="773.6363636363636" y="641.060606060606" type="line"/>
      <point x="784.939393939394" y="641.060606060606" type="line"/>
      <point x="636.0" y="0.0" type="line"/>
      <point x="696.7272727272727" y="0.0" type="line"/>
      <point x="857.5151515151515" y="695.1515151515151" type="line"/>
      <point x="749.3636363636364" y="695.1515151515151" type="line"/>
      <point x="403.6666666666667" y="85.75757575757575" type="line"/>
      <point x="348.8787878787879" y="695.1515151515151" type="line"/>
      <point x="241.6969696969697" y="695.1515151515151" type="line"/>
    </contour>
  </outline>
</glyph>
<glyph name="N" format="2">
  <advance width="625.2424242424242"/>
  <unicode hex="004E"/>
  <outline>
    <contour>
      <point x="80.9090909090909" y="0.0" type="line"/>
      <point x="139.6969696969697" y="0.0" type="line"/>
      <point x="287.1515151515151" y="636.939393939394" type="line"/>
      <point x="309.0" y="636.939393939394" type="line"/>
      <point x="434.06060606060606" y="0.0" type="line"/>
      <point x="544.3333333333334" y="0.0" type="line"/>
      <point x="705.1212121212121" y="695.1515151515151" type="line"/>
      <point x="645.6060606060606" y="695.1515151515151" type="line"/>
      <point x="499.6060606060606" y="60.63636363636364" type="line"/>
      <point x="478.5151515151515" y="60.63636363636364" type="line"/>
      <point x="356.1515151515151" y="695.1515151515151" type="line"/>
      <point x="241.6969696969697" y="695.1515151515151" type="line"/>
    </contour>
  </outline>
</glyph>
<glyph name="O" format="2">
  <advance width="630.9090909090909"/>
  <unicode hex="004F"/>
  <outline>
    <contour>
      <point x="328.6363636363636" y="-9.727272727272727" type="curve" smooth="yes"/>
      <point x="397.3636363636364" y="-9.727272727272727"/>
      <point x="458.27272727272725" y="13.303030303030303"/>
      <point x="506.5151515151515" y="52.81818181818182" type="curve" smooth="yes"/>
      <point x="619.0" y="146.36363636363637"/>
      <point x="672.7878787878788" y="328.6666666666667"/>
      <point x="672.7878787878788" y="498.3939393939394" type="curve" smooth="yes"/>
      <point x="672.7878787878788" y="641.6060606060606"/>
      <point x="598.9090909090909" y="704.8787878787879"/>
      <point x="459.3636363636364" y="704.8787878787879" type="curve" smooth="yes"/>
      <point x="388.1515151515151" y="704.8787878787879"/>
      <point x="326.93939393939394" y="678.0909090909091"/>
      <point x="276.6969696969697" y="631.8181818181819" type="curve" smooth="yes"/>
      <point x="172.21212121212122" y="536.030303030303"/>
      <point x="116.9090909090909" y="360.4848484848485"/>
      <point x="116.9090909090909" y="196.75757575757575" type="curve" smooth="yes"/>
      <point x="116.9090909090909" y="47.45454545454545"/>
      <point x="180.72727272727272" y="-9.727272727272727"/>
    </contour>
    <contour>
      <point x="334.45454545454544" y="44.36363636363636" type="curve" smooth="yes"/>
      <point x="221.54545454545456" y="44.36363636363636"/>
      <point x="179.36363636363637" y="87.0"/>
      <point x="179.36363636363637" y="199.3939393939394" type="curve" smooth="yes"/>
      <point x="179.36363636363637" y="335.75757575757575"/>
      <point x="233.03030303030303" y="528.060606060606"/>
      <point x="339.6363636363636" y="610.939393939394" type="curve" smooth="yes"/>
      <point x="373.0" y="636.7272727272727"/>
      <point x="411.8484848484849" y="650.7878787878788"/>
      <point x="455.4848484848485" y="650.7878787878788" type="curve" smooth="yes"/>
      <point x="562.8484848484849" y="650.7878787878788"/>
      <point x="609.5757575757576" y="602.8484848484849"/>
      <point x="609.5757575757576" y="495.75757575757575" type="curve" smooth="yes"/>
      <point x="609.5757575757576" y="352.2121212121212"/>
      <point x="561.7272727272727" y="168.6060606060606"/>
      <point x="457.8484848484849" y="86.6969696969697" type="curve" smooth="yes"/>
      <point x="423.4848484848485" y="59.90909090909091"/>
      <point x="382.1212121212121" y="44.36363636363636"/>
    </contour>
  </outline>
</glyph>
<glyph name="P" format="2">
  <advance width="547.0"/>
  <unicode hex="0050"/>
  <outline>
    <contour>
      <point x="80.9090909090909" y="0.0" type="line"/>
      <point x="141.63636363636363" y="0.0" type="line"/>
      <point x="197.24242424242425" y="241.45454545454544" type="line"/>
      <point x="366.3333333333333" y="241.45454545454544" type="line" smooth="yes"/>
      <point x="537.7575757575758" y="241.45454545454544"/>
      <point x="626.4848484848485" y="371.7878787878788"/>
      <point x="626.4848484848485" y="538.7575757575758" type="curve" smooth="yes"/>
      <point x="626.4848484848485" y="642.4545454545455"/>
      <point x="578.8787878787879" y="695.1515151515151"/>
      <point x="465.72727272727275" y="695.1515151515151" type="curve" smooth="yes"/>
      <point x="241.6969696969697" y="695.1515151515151" type="line"/>
    </contour>
    <contour>
      <point x="210.0909090909091" y="296.3030303030303" type="line"/>
      <point x="289.57575757575756" y="640.3030303030303" type="line"/>
      <point x="457.24242424242425" y="640.3030303030303" type="line" smooth="yes"/>
      <point x="533.939393939394" y="640.3030303030303"/>
      <point x="563.2727272727273" y="605.6969696969697"/>
      <point x="563.2727272727273" y="538.2727272727273" type="curve" smooth="yes"/>
      <point x="563.2727272727273" y="409.57575757575756"/>
      <point x="504.6969696969697" y="296.3030303030303"/>
      <point x="376.75757575757575" y="296.3030303030303" type="curve" smooth="yes"/>
    </contour>
  </outline>
</glyph>
<glyph name="Q" format="2">
  <advance width="630.9090909090909"/>
  <unicode hex="0051"/>
  <outline>
    <contour>
      <point x="447.8484848484849" y="-142.63636363636363" type="line"/>
      <point x="505.3636363636364" y="-123.87878787878788" type="line"/>
      <point x="453.6666666666667" y="32.57575757575758" type="line"/>
      <point x="398.3333333333333" y="13.818181818181818" type="line"/>
    </contour>
    <component base="O"/>
  </outline>
</glyph>
<glyph name="R" format="2">
  <advance width="565.8181818181819"/>
  <unicode hex="0052"/>
  <outline>
    <contour>
      <point x="80.9090909090909" y="0.0" type="line"/>
      <point x="141.63636363636363" y="0.0" type="line"/>
      <point x="204.5151515151515" y="270.54545454545456" type="line"/>
      <point x="387.3939393939394" y="270.54545454545456" type="line"/>
      <point x="464.969696969697" y="0.0" type="line"/>
      <point x="525.6969696969697" y="0.0" type="line"/>
      <point x="444.93939393939394" y="278.1818181818182" type="line"/>
      <point x="523.3939393939394" y="296.7878787878788"/>
      <point x="628.7575757575758" y="370.3939393939394"/>
      <point x="628.7575757575758" y="535.2424242424242" type="curve" smooth="yes"/>
      <point x="628.7575757575758" y="652.2727272727273"/>
      <point x="569.6060606060606" y="695.1515151515151"/>
      <point x="457.3939393939394" y="695.1515151515151" type="curve" smooth="yes"/>
      <point x="241.6969696969697" y="695.1515151515151" type="line"/>
    </contour>
    <contour>
      <point x="216.36363636363637" y="324.1515151515151" type="line"/>
      <point x="289.8181818181818" y="641.5454545454545" type="line"/>
      <point x="449.3939393939394" y="641.5454545454545" type="line" smooth="yes"/>
      <point x="529.8787878787879" y="641.5454545454545"/>
      <point x="565.5454545454545" y="614.2727272727273"/>
      <point x="565.5454545454545" y="533.7878787878788" type="curve" smooth="yes"/>
      <point x="565.5454545454545" y="410.3030303030303"/>
      <point x="492.4848484848485" y="324.1515151515151"/>
      <point x="379.6060606060606" y="324.1515151515151" type="curve" smooth="yes"/>
    </contour>
  </outline>
</glyph>
<glyph name="S" format="2">
  <advance width="500.3030303030303"/>
  <unicode hex="0053"/>
  <outline>
    <contour>
      <point x="256.4848484848485" y="-9.727272727272727" type="curve" smooth="yes"/>
      <point x="405.93939393939394" y="-9.727272727272727"/>
      <point x="502.1212121212121" y="81.12121212121212"/>
      <point x="502.1212121212121" y="230.57575757575756" type="curve" smooth="yes"/>
      <point x="502.1212121212121" y="321.09090909090907"/>
      <point x="458.42424242424244" y="349.75757575757575"/>
      <point x="360.06060606060606" y="383.09090909090907" type="curve" smooth="yes"/>
      <point x="265.93939393939394" y="414.030303030303"/>
      <point x="227.66666666666666" y="429.06060606060606"/>
      <point x="227.66666666666666" y="490.3030303030303" type="curve" smooth="yes"/>
      <point x="227.66666666666666" y="597.8484848484849"/>
      <point x="297.5151515151515" y="651.2727272727273"/>
      <point x="406.75757575757575" y="651.2727272727273" type="curve" smooth="yes"/>
      <point x="457.75757575757575" y="651.2727272727273"/>
      <point x="535.969696969697" y="641.2727272727273"/>
      <point x="580.6969696969697" y="633.2727272727273" type="curve"/>
      <point x="591.3030303030303" y="679.7575757575758" type="line"/>
      <point x="551.3333333333334" y="690.4545454545455"/>
      <point x="474.42424242424244" y="704.8787878787879"/>
      <point x="411.09090909090907" y="704.8787878787879" type="curve" smooth="yes"/>
      <point x="264.3030303030303" y="704.8787878787879"/>
      <point x="165.6969696969697" y="627.5757575757576"/>
      <point x="165.6969696969697" y="486.42424242424244" type="curve" smooth="yes"/>
      <point x="165.6969696969697" y="394.1515151515151"/>
      <point x="222.63636363636363" y="365.27272727272725"/>
      <point x="323.24242424242425" y="333.3636363636364" type="curve" smooth="yes"/>
      <point x="412.75757575757575" y="304.72727272727275"/>
      <point x="439.3939393939394" y="288.1818181818182"/>
      <point x="439.3939393939394" y="225.93939393939394" type="curve" smooth="yes"/>
      <point x="439.3939393939394" y="113.06060606060606"/>
      <point x="373.42424242424244" y="44.36363636363636"/>
      <point x="260.54545454545456" y="44.36363636363636" type="curve" smooth="yes"/>
      <point x="205.75757575757575" y="44.36363636363636"/>
      <point x="118.96969696969697" y="54.60606060606061"/>
      <point x="68.45454545454545" y="62.09090909090909" type="curve"/>
      <point x="57.57575757575758" y="13.09090909090909" type="line"/>
      <point x="103.0909090909091" y="3.4242424242424243"/>
      <point x="189.33333333333334" y="-9.727272727272727"/>
    </contour>
  </outline>
</glyph>
<glyph name="T" format="2">
  <advance width="471.90909090909093"/>
  <unicode hex="0054"/>
  <outline>
    <contour>
      <point x="204.21212121212122" y="0.0" type="line"/>
      <point x="264.93939393939394" y="0.0" type="line"/>
      <point x="412.8787878787879" y="641.060606060606" type="line"/>
      <point x="607.8181818181819" y="641.060606060606" type="line"/>
      <point x="620.6666666666666" y="695.1515151515151" type="line"/>
      <point x="170.54545454545453" y="695.1515151515151" type="line"/>
      <point x="157.6969696969697" y="641.060606060606" type="line"/>
      <point x="352.1515151515151" y="641.060606060606" type="line"/>
    </contour>
  </outline>
</glyph>
<glyph name="U" format="2">
  <advance width="593.4848484848485"/>
  <unicode hex="0055"/>
  <outline>
    <contour>
      <point x="310.75757575757575" y="-9.727272727272727" type="curve" smooth="yes"/>
      <point x="461.6666666666667" y="-9.727272727272727"/>
      <point x="531.8181818181819" y="63.27272727272727"/>
      <point x="564.7575757575758" y="205.24242424242425" type="curve" smooth="yes"/>
      <point x="677.8484848484849" y="695.1515151515151" type="line"/>
      <point x="617.1212121212121" y="695.1515151515151" type="line"/>
      <point x="504.030303030303" y="206.0" type="line" smooth="yes"/>
      <point x="479.72727272727275" y="100.03030303030303"/>
      <point x="430.2121212121212" y="45.121212121212125"/>
      <point x="315.1818181818182" y="45.121212121212125" type="curve" smooth="yes"/>
      <point x="229.57575757575756" y="45.121212121212125"/>
      <point x="175.6060606060606" y="71.78787878787878"/>
      <point x="175.6060606060606" y="138.4848484848485" type="curve" smooth="yes"/>
      <point x="175.6060606060606" y="160.21212121212122"/>
      <point x="179.63733333333334" y="188.78060606060606"/>
      <point x="185.36363636363637" y="212.8181818181818" type="curve" smooth="yes"/>
      <point x="296.93939393939394" y="695.1515151515151" type="line"/>
      <point x="236.21212121212122" y="695.1515151515151" type="line"/>
      <point x="125.84848484848484" y="218.15151515151516" type="line" smooth="yes"/>
      <point x="119.60606060606061" y="192.21212121212122"/>
      <point x="115.12121212121212" y="156.03030303030303"/>
      <point x="115.12121212121212" y="132.15151515151516" type="curve" smooth="yes"/>
      <point x="115.12121212121212" y="34.484848484848484"/>
      <point x="192.8181818181818" y="-9.727272727272727"/>
    </contour>
  </outline>
</glyph>
<glyph name="V" format="2">
  <advance width="542.1212121212121"/>
  <unicode hex="0056"/>
  <outline>
    <contour>
      <point x="198.42424242424244" y="0.0" type="line"/>
      <point x="337.2121212121212" y="0.0" type="line"/>
      <point x="672.4848484848485" y="695.1515151515151" type="line"/>
      <point x="611.7575757575758" y="695.1515151515151" type="line"/>
      <point x="303.3636363636364" y="54.09090909090909" type="line"/>
      <point x="254.45454545454547" y="54.09090909090909" type="line"/>
      <point x="245.12121212121212" y="695.1515151515151" type="line"/>
      <point x="184.3939393939394" y="695.1515151515151" type="line"/>
    </contour>
  </outline>
</glyph>
<glyph name="W" format="2">
  <advance width="819.5454545454545"/>
  <unicode hex="0057"/>
  <outline>
    <contour>
      <point x="164.21212121212122" y="0.0" type="line"/>
      <point x="283.09090909090907" y="0.0" type="line"/>
      <point x="544.7272727272727" y="590.2121212121212" type="line"/>
      <point x="529.1515151515151" y="0.0" type="line"/>
      <point x="645.060606060606" y="0.0" type="line"/>
      <point x="944.3939393939394" y="695.1515151515151" type="line"/>
      <point x="883.6666666666666" y="695.1515151515151" type="line"/>
      <point x="611.1818181818181" y="55.78787878787879" type="line"/>
      <point x="582.7878787878788" y="55.78787878787879" type="line"/>
      <point x="597.6060606060606" y="685.1515151515151" type="line"/>
      <point x="531.969696969697" y="685.1515151515151" type="line"/>
      <point x="251.42424242424244" y="55.78787878787879" type="line"/>
      <point x="221.5151515151515" y="55.78787878787879" type="line"/>
      <point x="250.63636363636363" y="695.1515151515151" type="line"/>
      <point x="189.9090909090909" y="695.1515151515151" type="line"/>
    </contour>
  </outline>
</glyph>
<glyph name="X" format="2">
  <advance width="511.6666666666667"/>
  <unicode hex="0058"/>
  <outline>
    <contour>
      <point x="15.393939393939394" y="0.0" type="line"/>
      <point x="83.87878787878788" y="0.0" type="line"/>
      <point x="326.3636363636364" y="298.3030303030303" type="line"/>
      <point x="427.57575757575756" y="0.0" type="line"/>
      <point x="490.0" y="0.0" type="line"/>
      <point x="372.5151515151515" y="343.5151515151515" type="line"/>
      <point x="655.8484848484849" y="695.1515151515151" type="line"/>
      <point x="587.3636363636364" y="695.1515151515151" type="line"/>
      <point x="347.6060606060606" y="394.030303030303" type="line"/>
      <point x="247.84848484848484" y="695.1515151515151" type="line"/>
      <point x="185.1818181818182" y="695.1515151515151" type="line"/>
      <point x="300.93939393939394" y="348.3030303030303" type="line"/>
    </contour>
  </outline>
</glyph>
<glyph name="Y" format="2">
  <advance width="489.6060606060606"/>
  <unicode hex="0059"/>
  <outline>
    <contour>
      <point x="211.5151515151515" y="0.0" type="line"/>
      <point x="269.8181818181818" y="0.0" type="line"/>
      <point x="339.3333333333333" y="297.8484848484849" type="line"/>
      <point x="635.2424242424242" y="695.1515151515151" type="line"/>
      <point x="569.5454545454545" y="695.1515151515151" type="line"/>
      <point x="324.030303030303" y="357.42424242424244" type="line"/>
      <point x="234.36363636363637" y="695.1515151515151" type="line"/>
      <point x="173.15151515151516" y="695.1515151515151" type="line"/>
      <point x="281.7878787878788" y="304.6060606060606" type="line"/>
    </contour>
  </outline>
</glyph>
<glyph name="Z" format="2">
  <advance width="496.06060606060606"/>
  <unicode hex="005A"/>
  <outline>
    <contour>
      <point x="38.27272727272727" y="0.0" type="line"/>
      <point x="454.0" y="0.0" type="line"/>
      <point x="466.8484848484849" y="54.09090909090909" type="line"/>
      <point x="116.21212121212122" y="54.09090909090909" type="line"/>
      <point x="122.21212121212122" y="78.84848484848484" type="line"/>
      <point x="595.6666666666666" y="602.3636363636364" type="line"/>
      <point x="617.060606060606" y="695.1515151515151" type="line"/>
      <point x="201.33333333333334" y="695.1515151515151" type="line"/>
      <point x="188.4848484848485" y="641.060606060606" type="line"/>
      <point x="538.1515151515151" y="641.060606060606" type="line"/>
      <point x="531.6363636363636" y="613.2727272727273" type="line"/>
      <point x="58.666666666666664" y="89.27272727272728" type="line"/>
    </contour>
  </outline>
</glyph>
<glyph name="bracketleft" format="2">
  <advance width="283.8787878787879"/>
  <unicode hex="005B"/>
  <outline>
    <contour>
      <point x="35.0" y="-122.0" type="line"/>
      <point x="220.0909090909091" y="-122.0" type="line"/>
      <point x="233.6969696969697" y="-69.36363636363636" type="line"/>
      <point x="107.06060606060606" y="-69.36363636363636" type="line"/>
      <point x="286.3636363636364" y="694.3636363636364" type="line"/>
      <point x="413.0" y="694.3636363636364" type="line"/>
      <point x="425.09090909090907" y="747.0" type="line"/>
      <point x="238.5151515151515" y="747.0" type="line"/>
    </contour>
  </outline>
</glyph>
<glyph name="backslash" format="2">
  <advance width="410.5151515151515"/>
  <unicode hex="005C"/>
  <outline>
    <contour>
      <point x="319.75757575757575" y="0.0" type="line"/>
      <point x="382.24242424242425" y="10.606060606060606" type="line"/>
      <point x="251.75757575757575" y="701.2424242424242" type="line"/>
      <point x="189.03030303030303" y="690.6363636363636" type="line"/>
    </contour>
  </outline>
</glyph>
<glyph name="bracketright" format="2">
  <advance width="283.6363636363636"/>
  <unicode hex="005D"/>
  <outline>
    <contour>
      <point x="393.6363636363636" y="747.7575757575758" type="line"/>
      <point x="208.54545454545453" y="747.7575757575758" type="line"/>
      <point x="194.93939393939394" y="695.1212121212121" type="line"/>
      <point x="321.57575757575756" y="695.1212121212121" type="line"/>
      <point x="142.27272727272728" y="-68.60606060606061" type="line"/>
      <point x="15.636363636363637" y="-68.60606060606061" type="line"/>
      <point x="3.545454545454545" y="-121.24242424242425" type="line"/>
      <point x="190.12121212121212" y="-121.24242424242425" type="line"/>
    </contour>
  </outline>
</glyph>
<glyph name="asciicircum" format="2">
  <advance width="560.0"/>
  <unicode hex="005E"/>
  <outline>
    <contour>
      <point x="132.27272727272728" y="320.57575757575756" type="line"/>
      <point x="196.5151515151515" y="320.57575757575756" type="line"/>
      <point x="343.6060606060606" y="601.2121212121212" type="line"/>
      <point x="496.54545454545456" y="320.57575757575756" type="line"/>
      <point x="560.7878787878788" y="320.57575757575756" type="line"/>
      <point x="370.57575757575756" y="660.0" type="line"/>
      <point x="315.6666666666667" y="660.0" type="line"/>
    </contour>
  </outline>
</glyph>
<glyph name="underscore" format="2">
  <advance width="603.0"/>
  <unicode hex="005F"/>
  <outline>
    <contour>
      <point x="46.03030303030303" y="-138.33333333333334" type="line"/>
      <point x="493.27272727272725" y="-138.33333333333334" type="line"/>
      <point x="507.6363636363636" y="-79.24242424242425" type="line"/>
      <point x="58.878787878787875" y="-79.24242424242425" type="line"/>
    </contour>
  </outline>
</glyph>
<glyph name="grave" format="2">
  <advance width="518.0"/>
  <unicode hex="0060"/>
  <outline>
    <contour>
      <point x="466.1818181818182" y="598.9090909090909" type="line"/>
      <point x="493.3939393939394" y="639.5757575757576" type="line"/>
      <point x="318.6060606060606" y="733.3636363636364" type="line"/>
      <point x="289.45454545454544" y="687.7575757575758" type="line"/>
    </contour>
  </outline>
</glyph>
<glyph name="a" format="2">
  <advance width="493.1515151515151"/>
  <unicode hex="0061"/>
  <outline>
    <contour>
      <point x="216.45454545454547" y="-9.727272727272727" type="curve" smooth="yes"/>
      <point x="281.54545454545456" y="-9.727272727272727"/>
      <point x="355.969696969697" y="60.72727272727273"/>
      <point x="393.8181818181818" y="113.87878787878788" type="curve"/>
      <point x="390.06060606060606" y="98.0909090909091"/>
      <point x="380.27272727272725" y="39.15151515151515"/>
      <point x="374.0" y="-1.2424242424242424" type="curve"/>
      <point x="431.24242424242425" y="1.4848484848484849" type="line"/>
      <point x="437.24242424242425" y="42.75757575757576"/>
      <point x="449.0" y="114.78787878787878"/>
      <point x="459.75757575757575" y="161.3030303030303" type="curve" smooth="yes"/>
      <point x="535.5151515151515" y="486.57575757575756" type="line"/>
      <point x="478.45454545454544" y="496.7878787878788"/>
      <point x="387.0" y="509.72727272727275"/>
      <point x="342.3333333333333" y="509.72727272727275" type="curve" smooth="yes"/>
      <point x="177.0" y="509.72727272727275"/>
      <point x="91.36363636363636" y="291.6060606060606"/>
      <point x="91.36363636363636" y="130.6060606060606" type="curve" smooth="yes"/>
      <point x="91.36363636363636" y="42.515151515151516"/>
      <point x="130.36363636363637" y="-9.727272727272727"/>
    </contour>
    <contour>
      <point x="232.9090909090909" y="42.90909090909091" type="curve" smooth="yes"/>
      <point x="172.96969696969697" y="42.90909090909091"/>
      <point x="152.36363636363637" y="74.72727272727272"/>
      <point x="152.36363636363637" y="130.6060606060606" type="curve" smooth="yes"/>
      <point x="152.36363636363637" y="264.030303030303"/>
      <point x="217.6060606060606" y="457.8484848484849"/>
      <point x="343.3030303030303" y="457.8484848484849" type="curve" smooth="yes"/>
      <point x="382.0" y="457.8484848484849"/>
      <point x="436.8484848484849" y="449.09090909090907"/>
      <point x="467.1212121212121" y="443.09090909090907" type="curve"/>
      <point x="406.72727272727275" y="184.1818181818182" type="line"/>
      <point x="361.6060606060606" y="123.45454545454545"/>
      <point x="283.3636363636364" y="42.90909090909091"/>
    </contour>
  </outline>
</glyph>
<glyph name="b" format="2">
  <advance width="492.1515151515151"/>
  <unicode hex="0062"/>
  <outline>
    <contour>
      <point x="262.6060606060606" y="-9.484848484848484" type="curve" smooth="yes"/>
      <point x="446.3030303030303" y="-9.484848484848484"/>
      <point x="515.7878787878788" y="236.66666666666666"/>
      <point x="515.7878787878788" y="359.6060606060606" type="curve" smooth="yes"/>
      <point x="515.7878787878788" y="445.90909090909093"/>
      <point x="491.8787878787879" y="509.72727272727275"/>
      <point x="386.24242424242425" y="509.72727272727275" type="curve" smooth="yes"/>
      <point x="326.3333333333333" y="509.72727272727275"/>
      <point x="259.6666666666667" y="462.54545454545456"/>
      <point x="225.57575757575756" y="426.90909090909093" type="curve"/>
      <point x="294.2121212121212" y="722.7272727272727" type="line"/>
      <point x="235.21212121212122" y="722.7272727272727" type="line"/>
      <point x="71.63636363636364" y="13.666666666666668" type="line"/>
      <point x="121.3030303030303" y="3.4545454545454546"/>
      <point x="207.84848484848484" y="-9.484848484848484"/>
    </contour>
    <contour>
      <point x="261.3636363636364" y="42.39393939393939" type="curve" smooth="yes"/>
      <point x="228.0909090909091" y="42.39393939393939"/>
      <point x="172.9090909090909" y="50.66666666666667"/>
      <point x="140.27272727272728" y="56.18181818181819" type="curve"/>
      <point x="210.93939393939394" y="362.3939393939394" type="line"/>
      <point x="249.8181818181818" y="403.3333333333333"/>
      <point x="319.54545454545456" y="457.09090909090907"/>
      <point x="368.969696969697" y="457.09090909090907" type="curve" smooth="yes"/>
      <point x="444.27272727272725" y="457.09090909090907"/>
      <point x="454.54545454545456" y="414.0"/>
      <point x="454.54545454545456" y="356.2121212121212" type="curve" smooth="yes"/>
      <point x="454.54545454545456" y="282.4848484848485"/>
      <point x="407.90909090909093" y="42.39393939393939"/>
    </contour>
  </outline>
</glyph>
<glyph name="c" format="2">
  <advance width="404.45454545454544"/>
  <unicode hex="0063"/>
  <outline>
    <contour>
      <point x="248.03030303030303" y="-9.727272727272727" type="curve" smooth="yes"/>
      <point x="291.93939393939394" y="-9.727272727272727"/>
      <point x="346.8787878787879" y="2.0"/>
      <point x="376.3636363636364" y="10.727272727272727" type="curve"/>
      <point x="379.030303030303" y="58.96969696969697" type="line"/>
      <point x="346.4848484848485" y="52.18181818181819"/>
      <point x="293.93939393939394" y="42.63636363636364"/>
      <point x="265.969696969697" y="42.63636363636364" type="curve" smooth="yes"/>
      <point x="185.96969696969697" y="42.63636363636364"/>
      <point x="155.87878787878788" y="79.6969696969697"/>
      <point x="155.87878787878788" y="146.3030303030303" type="curve" smooth="yes"/>
      <point x="155.87878787878788" y="299.3939393939394"/>
      <point x="217.87878787878788" y="457.3636363636364"/>
      <point x="356.6969696969697" y="457.3636363636364" type="curve" smooth="yes"/>
      <point x="387.93939393939394" y="457.3636363636364"/>
      <point x="434.8484848484849" y="451.1212121212121"/>
      <point x="461.7878787878788" y="446.6363636363636" type="curve"/>
      <point x="476.8484848484849" y="493.8787878787879" type="line"/>
      <point x="448.90909090909093" y="500.8181818181818"/>
      <point x="397.7878787878788" y="509.72727272727275"/>
      <point x="358.1515151515151" y="509.72727272727275" type="curve" smooth="yes"/>
      <point x="178.6060606060606" y="509.72727272727275"/>
      <point x="94.87878787878788" y="327.969696969697"/>
      <point x="94.87878787878788" y="137.0" type="curve" smooth="yes"/>
      <point x="94.87878787878788" y="43.18181818181818"/>
      <point x="144.45454545454547" y="-9.727272727272727"/>
    </contour>
  </outline>
</glyph>
<glyph name="d" format="2">
  <advance width="492.3939393939394"/>
  <unicode hex="0064"/>
  <outline>
    <contour>
      <point x="212.63636363636363" y="-9.727272727272727" type="curve" smooth="yes"/>
      <point x="280.7878787878788" y="-9.727272727272727"/>
      <point x="352.24242424242425" y="52.03030303030303"/>
      <point x="387.6060606060606" y="98.96969696969697" type="curve"/>
      <point x="365.72727272727275" y="0.0" type="line"/>
      <point x="423.0" y="0.0" type="line"/>
      <point x="590.3030303030303" y="722.7272727272727" type="line"/>
      <point x="531.3030303030303" y="722.7272727272727" type="line"/>
      <point x="477.75757575757575" y="492.27272727272725" type="line"/>
      <point x="446.030303030303" y="499.75757575757575"/>
      <point x="386.4848484848485" y="509.4848484848485"/>
      <point x="340.3333333333333" y="509.4848484848485" type="curve" smooth="yes"/>
      <point x="181.9090909090909" y="509.4848484848485"/>
      <point x="91.36363636363636" y="298.969696969697"/>
      <point x="91.36363636363636" y="128.63636363636363" type="curve" smooth="yes"/>
      <point x="91.36363636363636" y="35.57575757575758"/>
      <point x="133.3030303030303" y="-9.727272727272727"/>
    </contour>
    <contour>
      <point x="230.63636363636363" y="42.151515151515156" type="curve" smooth="yes"/>
      <point x="177.21212121212122" y="42.151515151515156"/>
      <point x="152.36363636363637" y="73.18181818181819"/>
      <point x="152.36363636363637" y="128.87878787878788" type="curve" smooth="yes"/>
      <point x="152.36363636363637" y="262.3030303030303"/>
      <point x="218.36363636363637" y="457.6060606060606"/>
      <point x="340.3333333333333" y="457.6060606060606" type="curve" smooth="yes"/>
      <point x="383.4848484848485" y="457.6060606060606"/>
      <point x="437.8484848484849" y="448.8484848484849"/>
      <point x="466.6363636363636" y="442.8484848484849" type="curve"/>
      <point x="404.24242424242425" y="172.4848484848485" type="line"/>
      <point x="361.3939393939394" y="116.48484848484848"/>
      <point x="285.6666666666667" y="42.151515151515156"/>
    </contour>
  </outline>
</glyph>
<glyph name="e" format="2">
  <advance width="457.8181818181818"/>
  <unicode hex="0065"/>
  <outline>
    <contour>
      <point x="240.15151515151516" y="-9.727272727272727" type="curve" smooth="yes"/>
      <point x="304.8484848484849" y="-9.727272727272727"/>
      <point x="378.54545454545456" y="7.03030303030303"/>
      <point x="416.27272727272725" y="19.78787878787879" type="curve"/>
      <point x="419.90909090909093" y="68.78787878787878" type="line"/>
      <point x="381.6969696969697" y="58.24242424242424"/>
      <point x="309.969696969697" y="43.66666666666667"/>
      <point x="255.42424242424244" y="43.66666666666667" type="curve" smooth="yes"/>
      <point x="194.21212121212122" y="43.66666666666667"/>
      <point x="153.63636363636363" y="78.57575757575758"/>
      <point x="153.63636363636363" y="143.57575757575756" type="curve" smooth="yes"/>
      <point x="153.63636363636363" y="169.21212121212122"/>
      <point x="158.42424242424244" y="207.45454545454547"/>
      <point x="165.72727272727272" y="236.66666666666666" type="curve"/>
      <point x="221.93939393939394" y="236.66666666666666" type="line" smooth="yes"/>
      <point x="407.6363636363636" y="236.66666666666666"/>
      <point x="502.72727272727275" y="274.1818181818182"/>
      <point x="502.72727272727275" y="395.3333333333333" type="curve" smooth="yes"/>
      <point x="502.72727272727275" y="475.8181818181818"/>
      <point x="446.8484848484849" y="509.4848484848485"/>
      <point x="361.8181818181818" y="509.4848484848485" type="curve" smooth="yes"/>
      <point x="175.9090909090909" y="509.4848484848485"/>
      <point x="93.12121212121212" y="307.93939393939394"/>
      <point x="93.12121212121212" y="137.54545454545453" type="curve" smooth="yes"/>
      <point x="93.12121212121212" y="39.484848484848484"/>
      <point x="149.3939393939394" y="-9.727272727272727"/>
    </contour>
    <contour>
      <point x="174.66666666666666" y="284.90909090909093" type="line"/>
      <point x="205.3030303030303" y="387.2121212121212"/>
      <point x="260.2121212121212" y="459.06060606060606"/>
      <point x="359.3636363636364" y="459.06060606060606" type="curve" smooth="yes"/>
      <point x="413.3333333333333" y="459.06060606060606"/>
      <point x="443.45454545454544" y="441.24242424242425"/>
      <point x="443.45454545454544" y="394.09090909090907" type="curve" smooth="yes"/>
      <point x="443.45454545454544" y="308.45454545454544"/>
      <point x="374.06060606060606" y="284.90909090909093"/>
      <point x="233.84848484848484" y="284.90909090909093" type="curve" smooth="yes"/>
    </contour>
  </outline>
</glyph>
<glyph name="f" format="2">
  <advance width="304.5151515151515"/>
  <unicode hex="0066"/>
  <outline>
    <contour>
      <point x="34.333333333333336" y="-225.3939393939394" type="line"/>
      <point x="85.63636363636364" y="-225.3939393939394" type="line"/>
      <point x="145.6060606060606" y="0.0" type="line"/>
      <point x="250.0" y="448.1212121212121" type="line"/>
      <point x="389.1212121212121" y="448.1212121212121" type="line"/>
      <point x="402.72727272727275" y="500.0" type="line"/>
      <point x="260.6060606060606" y="500.0" type="line"/>
      <point x="272.42424242424244" y="547.7878787878788" type="line" smooth="yes"/>
      <point x="295.3030303030303" y="639.5454545454545"/>
      <point x="318.93939393939394" y="680.5757575757576"/>
      <point x="376.42424242424244" y="680.5757575757576" type="curve" smooth="yes"/>
      <point x="400.6969696969697" y="680.5757575757576"/>
      <point x="432.4848484848485" y="676.5757575757576"/>
      <point x="449.75757575757575" y="673.5757575757576" type="curve"/>
      <point x="461.6363636363636" y="720.8181818181819" type="line"/>
      <point x="442.1515151515151" y="725.5151515151515"/>
      <point x="406.6969696969697" y="732.4545454545455"/>
      <point x="380.27272727272725" y="732.4545454545455" type="curve" smooth="yes"/>
      <point x="288.969696969697" y="732.4545454545455"/>
      <point x="245.81066666666666" y="682.8795151515152"/>
      <point x="213.42424242424244" y="549.5454545454545" type="curve" smooth="yes"/>
      <point x="201.6060606060606" y="500.0" type="line"/>
      <point x="143.45454545454547" y="500.0" type="line"/>
      <point x="130.6060606060606" y="447.6363636363636" type="line"/>
      <point x="190.24242424242425" y="447.6363636363636" type="line"/>
    </contour>
  </outline>
</glyph>
<glyph name="g" format="2">
  <advance width="464.3030303030303"/>
  <unicode hex="0067"/>
  <outline>
    <contour>
      <point x="188.87878787878788" y="-236.8181818181818" type="curve" smooth="yes"/>
      <point x="346.6969696969697" y="-236.8181818181818"/>
      <point x="441.24242424242425" y="-149.0"/>
      <point x="441.24242424242425" y="-54.72727272727273" type="curve" smooth="yes"/>
      <point x="441.24242424242425" y="19.363636363636363"/>
      <point x="398.06060606060606" y="49.151515151515156"/>
      <point x="287.8787878787879" y="62.18181818181818" type="curve" smooth="yes"/>
      <point x="219.12121212121212" y="70.66666666666667"/>
      <point x="196.15151515151516" y="77.18181818181819"/>
      <point x="196.15151515151516" y="101.75757575757575" type="curve" smooth="yes"/>
      <point x="196.15151515151516" y="122.84848484848484"/>
      <point x="215.75757575757575" y="156.03030303030303"/>
      <point x="230.84848484848484" y="175.63636363636363" type="curve"/>
      <point x="238.84848484848484" y="174.3939393939394"/>
      <point x="252.8181818181818" y="172.9090909090909"/>
      <point x="260.969696969697" y="172.9090909090909" type="curve" smooth="yes"/>
      <point x="406.45454545454544" y="172.9090909090909"/>
      <point x="472.24242424242425" y="287.72727272727275"/>
      <point x="472.24242424242425" y="374.3333333333333" type="curve" smooth="yes"/>
      <point x="472.24242424242425" y="408.969696969697"/>
      <point x="463.42424242424244" y="431.0"/>
      <point x="452.3333333333333" y="447.3030303030303" type="curve"/>
      <point x="549.7272727272727" y="447.3030303030303" type="line"/>
      <point x="561.8484848484849" y="500.0" type="line"/>
      <point x="413.57575757575756" y="494.0" type="line"/>
      <point x="397.72727272727275" y="500.4848484848485"/>
      <point x="362.6666666666667" y="509.72727272727275"/>
      <point x="324.3939393939394" y="509.72727272727275" type="curve" smooth="yes"/>
      <point x="193.84848484848484" y="509.72727272727275"/>
      <point x="124.21212121212122" y="399.2121212121212"/>
      <point x="124.21212121212122" y="306.90909090909093" type="curve" smooth="yes"/>
      <point x="124.21212121212122" y="247.4848484848485"/>
      <point x="148.1818181818182" y="208.93939393939394"/>
      <point x="193.72727272727272" y="188.72727272727272" type="curve"/>
      <point x="170.75757575757575" y="165.96969696969697"/>
      <point x="140.54545454545453" y="123.45454545454545"/>
      <point x="140.54545454545453" y="91.21212121212122" type="curve" smooth="yes"/>
      <point x="140.54545454545453" y="72.51515151515152"/>
      <point x="146.06060606060606" y="58.75757575757576"/>
      <point x="155.24242424242425" y="50.333333333333336" type="curve"/>
      <point x="96.96969696969697" y="19.545454545454547"/>
      <point x="20.363636363636363" y="-29.81818181818182"/>
      <point x="20.363636363636363" y="-107.39393939393939" type="curve" smooth="yes"/>
      <point x="20.363636363636363" y="-186.1818181818182"/>
      <point x="84.87878787878788" y="-236.8181818181818"/>
    </contour>
    <contour>
      <point x="194.21212121212122" y="-185.42424242424244" type="curve" smooth="yes"/>
      <point x="115.60606060606061" y="-185.42424242424244"/>
      <point x="77.96969696969697" y="-146.3030303030303"/>
      <point x="77.96969696969697" y="-94.57575757575758" type="curve" smooth="yes"/>
      <point x="77.96969696969697" y="-44.84848484848485"/>
      <point x="137.96969696969697" y="1.5757575757575757"/>
      <point x="188.75757575757575" y="27.21212121212121" type="curve"/>
      <point x="201.96969696969697" y="22.454545454545453"/>
      <point x="229.66666666666666" y="15.93939393939394"/>
      <point x="276.7878787878788" y="10.696969696969697" type="curve" smooth="yes"/>
      <point x="353.3939393939394" y="2.1818181818181817"/>
      <point x="382.6666666666667" y="-12.666666666666668"/>
      <point x="382.6666666666667" y="-58.60606060606061" type="curve" smooth="yes"/>
      <point x="382.6666666666667" y="-136.54545454545453"/>
      <point x="293.6666666666667" y="-185.42424242424244"/>
    </contour>
    <contour>
      <point x="268.72727272727275" y="223.57575757575756" type="curve" smooth="yes"/>
      <point x="203.3030303030303" y="223.57575757575756"/>
      <point x="181.3030303030303" y="258.969696969697"/>
      <point x="181.3030303030303" y="309.8787878787879" type="curve" smooth="yes"/>
      <point x="181.3030303030303" y="372.3030303030303"/>
      <point x="229.72727272727272" y="459.06060606060606"/>
      <point x="320.1515151515151" y="459.06060606060606" type="curve" smooth="yes"/>
      <point x="390.1212121212121" y="459.06060606060606"/>
      <point x="415.1515151515151" y="427.45454545454544"/>
      <point x="415.1515151515151" y="367.45454545454544" type="curve" smooth="yes"/>
      <point x="415.1515151515151" y="314.8787878787879"/>
      <point x="372.54545454545456" y="223.57575757575756"/>
    </contour>
  </outline>
</glyph>
<glyph name="h" format="2">
  <advance width="494.8181818181818"/>
  <unicode hex="0068"/>
  <outline>
    <contour>
      <point x="69.39393939393939" y="0.0" type="line"/>
      <point x="128.3939393939394" y="0.0" type="line"/>
      <point x="204.63636363636363" y="329.93939393939394" type="line"/>
      <point x="245.5151515151515" y="384.72727272727275"/>
      <point x="320.06060606060606" y="456.6060606060606"/>
      <point x="374.1212121212121" y="456.6060606060606" type="curve" smooth="yes"/>
      <point x="425.7878787878788" y="456.6060606060606"/>
      <point x="448.969696969697" y="427.27272727272725"/>
      <point x="448.969696969697" y="377.3939393939394" type="curve" smooth="yes"/>
      <point x="448.969696969697" y="340.0"/>
      <point x="438.4848484848485" y="286.5151515151515"/>
      <point x="430.2121212121212" y="252.42424242424244" type="curve" smooth="yes"/>
      <point x="371.6666666666667" y="0.0" type="line"/>
      <point x="429.90909090909093" y="0.0" type="line"/>
      <point x="488.93939393939394" y="254.0909090909091" type="line" smooth="yes"/>
      <point x="498.2121212121212" y="293.1818181818182"/>
      <point x="509.1818181818182" y="344.3333333333333"/>
      <point x="509.1818181818182" y="387.6666666666667" type="curve" smooth="yes"/>
      <point x="509.1818181818182" y="461.1212121212121"/>
      <point x="469.09090909090907" y="509.72727272727275"/>
      <point x="392.4848484848485" y="509.72727272727275" type="curve" smooth="yes"/>
      <point x="326.3030303030303" y="509.72727272727275"/>
      <point x="256.1212121212121" y="447.6969696969697"/>
      <point x="221.27272727272728" y="401.4848484848485" type="curve"/>
      <point x="295.45454545454544" y="722.7272727272727" type="line"/>
      <point x="236.45454545454547" y="722.7272727272727" type="line"/>
    </contour>
  </outline>
</glyph>
<glyph name="i" format="2">
  <advance width="196.78787878787878"/>
  <unicode hex="0069"/>
  <outline>
    <contour>
      <point x="68.63636363636364" y="0.0" type="line"/>
      <point x="127.63636363636364" y="0.0" type="line"/>
      <point x="243.3939393939394" y="500.0" type="line"/>
      <point x="184.3939393939394" y="500.0" type="line"/>
    </contour>
    <contour>
      <point x="210.54545454545453" y="617.1515151515151" type="line"/>
      <point x="270.7878787878788" y="617.1515151515151" type="line"/>
      <point x="288.90909090909093" y="695.8181818181819" type="line"/>
      <point x="228.9090909090909" y="695.8181818181819" type="line"/>
    </contour>
  </outline>
</glyph>
<glyph name="j" format="2">
  <advance width="196.78787878787878"/>
  <unicode hex="006A"/>
  <outline>
    <contour>
      <point x="-72.6969696969697" y="-236.8181818181818" type="line"/>
      <point x="78.06060606060606" y="-166.63636363636363"/>
      <point x="92.6659393939394" y="-150.1350303030303"/>
      <point x="127.63636363636364" y="0.0" type="curve" smooth="yes"/>
      <point x="243.3939393939394" y="500.0" type="line"/>
      <point x="184.3939393939394" y="500.0" type="line"/>
      <point x="68.63636363636364" y="0.0" type="line" smooth="yes"/>
      <point x="42.50836363636364" y="-113.2710303030303"/>
      <point x="31.727272727272727" y="-125.81818181818181"/>
      <point x="-91.96969696969697" y="-188.15151515151516" type="curve"/>
    </contour>
    <contour>
      <point x="212.33333333333334" y="618.0" type="line"/>
      <point x="271.8181818181818" y="618.0" type="line"/>
      <point x="289.1818181818182" y="695.1515151515151" type="line"/>
      <point x="229.93939393939394" y="695.1515151515151" type="line"/>
    </contour>
  </outline>
</glyph>
<glyph name="k" format="2">
  <advance width="439.72727272727275"/>
  <unicode hex="006B"/>
  <outline>
    <contour>
      <point x="69.39393939393939" y="0.0" type="line"/>
      <point x="128.3939393939394" y="0.0" type="line"/>
      <point x="185.0" y="246.45454545454544" type="line"/>
      <point x="258.3333333333333" y="247.9090909090909" type="line"/>
      <point x="352.54545454545456" y="0.0" type="line"/>
      <point x="415.3030303030303" y="0.0" type="line"/>
      <point x="313.6969696969697" y="270.3636363636364" type="line"/>
      <point x="534.6666666666666" y="499.75757575757575" type="line"/>
      <point x="464.1818181818182" y="499.75757575757575" type="line"/>
      <point x="269.0" y="299.06060606060606" type="line"/>
      <point x="197.12121212121212" y="297.3636363636364" type="line"/>
      <point x="295.45454545454544" y="722.7272727272727" type="line"/>
      <point x="236.45454545454547" y="722.7272727272727" type="line"/>
    </contour>
  </outline>
</glyph>
<glyph name="l" format="2">
  <advance width="206.87878787878788"/>
  <unicode hex="006C"/>
  <outline>
    <contour>
      <point x="73.93939393939394" y="0.0" type="line"/>
      <point x="132.93939393939394" y="0.0" type="line"/>
      <point x="300.0" y="722.7272727272727" type="line"/>
      <point x="241.0" y="722.7272727272727" type="line"/>
    </contour>
  </outline>
</glyph>
<glyph name="m" format="2">
  <advance width="774.4848484848485"/>
  <unicode hex="006D"/>
  <outline>
    <contour>
      <point x="68.63636363636364" y="0.0" type="line"/>
      <point x="127.63636363636364" y="0.0" type="line"/>
      <point x="204.63636363636363" y="331.45454545454544" type="line"/>
      <point x="244.5151515151515" y="385.4848484848485"/>
      <point x="318.06060606060606" y="456.6060606060606"/>
      <point x="372.8787878787879" y="456.6060606060606" type="curve" smooth="yes"/>
      <point x="422.030303030303" y="456.6060606060606"/>
      <point x="447.2121212121212" y="427.27272727272725"/>
      <point x="447.2121212121212" y="377.3939393939394" type="curve" smooth="yes"/>
      <point x="447.2121212121212" y="343.030303030303"/>
      <point x="436.72727272727275" y="286.5151515151515"/>
      <point x="428.45454545454544" y="252.42424242424244" type="curve" smooth="yes"/>
      <point x="369.90909090909093" y="0.0" type="line"/>
      <point x="428.90909090909093" y="0.0" type="line"/>
      <point x="487.93939393939394" y="254.0909090909091" type="line" smooth="yes"/>
      <point x="498.4848484848485" y="298.54545454545456"/>
      <point x="504.4848484848485" y="340.030303030303"/>
      <point x="505.2121212121212" y="358.45454545454544" type="curve"/>
      <point x="540.3030303030303" y="400.8787878787879"/>
      <point x="604.7575757575758" y="456.6060606060606"/>
      <point x="654.4848484848485" y="456.6060606060606" type="curve" smooth="yes"/>
      <point x="702.6666666666666" y="456.6060606060606"/>
      <point x="728.6060606060606" y="427.030303030303"/>
      <point x="728.6060606060606" y="376.42424242424244" type="curve" smooth="yes"/>
      <point x="728.6060606060606" y="339.5151515151515"/>
      <point x="718.1212121212121" y="286.5151515151515"/>
      <point x="709.8484848484849" y="252.42424242424244" type="curve" smooth="yes"/>
      <point x="650.8181818181819" y="0.0" type="line"/>
      <point x="709.8181818181819" y="0.0" type="line"/>
      <point x="768.8484848484849" y="254.0909090909091" type="line" smooth="yes"/>
      <point x="777.3636363636364" y="291.6666666666667"/>
      <point x="788.6060606060606" y="343.3333333333333"/>
      <point x="788.6060606060606" y="387.6666666666667" type="curve" smooth="yes"/>
      <point x="788.6060606060606" y="461.1212121212121"/>
      <point x="749.0" y="509.72727272727275"/>
      <point x="672.3939393939394" y="509.72727272727275" type="curve" smooth="yes"/>
      <point x="610.3333333333334" y="509.72727272727275"/>
      <point x="539.030303030303" y="456.09090909090907"/>
      <point x="502.75757575757575" y="416.0" type="curve"/>
      <point x="500.06060606060606" y="456.09090909090907"/>
      <point x="468.3333333333333" y="509.72727272727275"/>
      <point x="392.6969696969697" y="509.72727272727275" type="curve" smooth="yes"/>
      <point x="325.3030303030303" y="509.72727272727275"/>
      <point x="255.12121212121212" y="448.45454545454544"/>
      <point x="221.03030303030303" y="402.75757575757575" type="curve"/>
      <point x="241.93939393939394" y="500.0" type="line"/>
      <point x="184.3939393939394" y="500.0" type="line"/>
    </contour>
  </outline>
</glyph>
<glyph name="n" format="2">
  <advance width="494.06060606060606"/>
  <unicode hex="006E"/>
  <outline>
    <contour>
      <point x="68.63636363636364" y="0.0" type="line"/>
      <point x="127.63636363636364" y="0.0" type="line"/>
      <point x="204.63636363636363" y="331.45454545454544" type="line"/>
      <point x="244.5151515151515" y="385.4848484848485"/>
      <point x="318.3030303030303" y="456.6060606060606"/>
      <point x="373.1212121212121" y="456.6060606060606" type="curve" smooth="yes"/>
      <point x="424.5151515151515" y="456.6060606060606"/>
      <point x="448.2121212121212" y="427.27272727272725"/>
      <point x="448.2121212121212" y="377.3939393939394" type="curve" smooth="yes"/>
      <point x="448.2121212121212" y="340.0"/>
      <point x="437.72727272727275" y="286.5151515151515"/>
      <point x="429.45454545454544" y="252.42424242424244" type="curve" smooth="yes"/>
      <point x="370.90909090909093" y="0.0" type="line"/>
      <point x="429.1515151515151" y="0.0" type="line"/>
      <point x="488.93939393939394" y="256.3636363636364" type="line" smooth="yes"/>
      <point x="497.42157575757574" y="293.9469090909091"/>
      <point x="508.42424242424244" y="344.8181818181818"/>
      <point x="508.42424242424244" y="387.6666666666667" type="curve" smooth="yes"/>
      <point x="508.42424242424244" y="461.1212121212121"/>
      <point x="468.3333333333333" y="509.72727272727275"/>
      <point x="391.72727272727275" y="509.72727272727275" type="curve" smooth="yes"/>
      <point x="325.54545454545456" y="509.72727272727275"/>
      <point x="255.12121212121212" y="448.2121212121212"/>
      <point x="220.78787878787878" y="402.5151515151515" type="curve"/>
      <point x="241.93939393939394" y="500.0" type="line"/>
      <point x="184.3939393939394" y="500.0" type="line"/>
    </contour>
  </outline>
</glyph>
<glyph name="o" format="2">
  <advance width="493.72727272727275"/>
  <unicode hex="006F"/>
  <outline>
    <contour>
      <point x="258.06060606060606" y="-9.727272727272727" type="curve" smooth="yes"/>
      <point x="414.6969696969697" y="-9.727272727272727"/>
      <point x="512.5757575757576" y="154.36363636363637"/>
      <point x="512.5757575757576" y="344.72727272727275" type="curve" smooth="yes"/>
      <point x="512.5757575757576" y="454.4848484848485"/>
      <point x="454.72727272727275" y="509.4848484848485"/>
      <point x="345.1212121212121" y="509.4848484848485" type="curve" smooth="yes"/>
      <point x="198.75757575757575" y="509.4848484848485"/>
      <point x="94.39393939393939" y="342.3636363636364"/>
      <point x="94.39393939393939" y="148.21212121212122" type="curve" smooth="yes"/>
      <point x="94.39393939393939" y="38.45454545454545"/>
      <point x="150.72727272727272" y="-9.727272727272727"/>
    </contour>
    <contour>
      <point x="258.06060606060606" y="42.151515151515156" type="curve" smooth="yes"/>
      <point x="188.03030303030303" y="42.151515151515156"/>
      <point x="153.9090909090909" y="79.75757575757575"/>
      <point x="153.9090909090909" y="147.72727272727272" type="curve" smooth="yes"/>
      <point x="153.9090909090909" y="309.3030303030303"/>
      <point x="230.4848484848485" y="457.6060606060606"/>
      <point x="345.1212121212121" y="457.6060606060606" type="curve" smooth="yes"/>
      <point x="418.93939393939394" y="457.6060606060606"/>
      <point x="453.06060606060606" y="411.6666666666667"/>
      <point x="453.06060606060606" y="345.2121212121212" type="curve" smooth="yes"/>
      <point x="453.06060606060606" y="183.63636363636363"/>
      <point x="376.4848484848485" y="42.151515151515156"/>
    </contour>
  </outline>
</glyph>
<glyph name="p" format="2">
  <advance width="491.3939393939394"/>
  <unicode hex="0070"/>
  <outline>
    <contour>
      <point x="16.848484848484848" y="-225.15151515151516" type="line"/>
      <point x="75.36363636363636" y="-225.15151515151516" type="line"/>
      <point x="129.3939393939394" y="8.484848484848484" type="line"/>
      <point x="161.3939393939394" y="1.0"/>
      <point x="220.93939393939394" y="-9.484848484848484"/>
      <point x="267.06060606060606" y="-9.484848484848484" type="curve" smooth="yes"/>
      <point x="427.75757575757575" y="-9.484848484848484"/>
      <point x="516.030303030303" y="206.33333333333334"/>
      <point x="516.030303030303" y="368.5151515151515" type="curve" smooth="yes"/>
      <point x="516.030303030303" y="458.6969696969697"/>
      <point x="477.3333333333333" y="509.72727272727275"/>
      <point x="389.969696969697" y="509.72727272727275" type="curve" smooth="yes"/>
      <point x="326.06060606060606" y="509.72727272727275"/>
      <point x="255.63636363636363" y="447.969696969697"/>
      <point x="219.78787878787878" y="401.030303030303" type="curve"/>
      <point x="241.9090909090909" y="500.0" type="line"/>
      <point x="184.3939393939394" y="500.0" type="line"/>
    </contour>
    <contour>
      <point x="267.06060606060606" y="42.39393939393939" type="curve" smooth="yes"/>
      <point x="223.9090909090909" y="42.39393939393939"/>
      <point x="169.54545454545456" y="51.151515151515156"/>
      <point x="140.75757575757575" y="57.90909090909091" type="curve"/>
      <point x="203.15151515151516" y="327.5151515151515" type="line"/>
      <point x="246.0" y="383.5151515151515"/>
      <point x="322.4848484848485" y="457.09090909090907"/>
      <point x="374.4848484848485" y="457.09090909090907" type="curve" smooth="yes"/>
      <point x="430.93939393939394" y="457.09090909090907"/>
      <point x="455.030303030303" y="426.8181818181818"/>
      <point x="455.030303030303" y="366.57575757575756" type="curve" smooth="yes"/>
      <point x="455.030303030303" y="242.24242424242425"/>
      <point x="390.54545454545456" y="42.39393939393939"/>
    </contour>
  </outline>
</glyph>
<glyph name="q" format="2">
  <advance width="490.3939393939394"/>
  <unicode hex="0071"/>
  <outline>
    <contour>
      <point x="313.72727272727275" y="-217.57575757575756" type="line"/>
      <point x="371.969696969697" y="-217.57575757575756" type="line"/>
      <point x="534.5151515151515" y="486.3333333333333" type="line"/>
      <point x="482.45454545454544" y="496.54545454545456"/>
      <point x="392.4848484848485" y="509.4848484848485"/>
      <point x="339.57575757575756" y="509.4848484848485" type="curve" smooth="yes"/>
      <point x="179.84848484848484" y="509.4848484848485"/>
      <point x="90.60606060606061" y="293.8484848484849"/>
      <point x="90.60606060606061" y="130.1818181818182" type="curve" smooth="yes"/>
      <point x="90.60606060606061" y="42.63636363636364"/>
      <point x="131.27272727272728" y="-9.727272727272727"/>
      <point x="215.66666666666666" y="-9.727272727272727" type="curve" smooth="yes"/>
      <point x="281.54545454545456" y="-9.727272727272727"/>
      <point x="351.4848484848485" y="52.27272727272727"/>
      <point x="386.09090909090907" y="98.45454545454545" type="curve"/>
    </contour>
    <contour>
      <point x="232.9090909090909" y="42.90909090909091" type="curve" smooth="yes"/>
      <point x="174.93939393939394" y="42.90909090909091"/>
      <point x="151.6060606060606" y="74.6969696969697"/>
      <point x="151.6060606060606" y="132.66666666666666" type="curve" smooth="yes"/>
      <point x="151.6060606060606" y="265.75757575757575"/>
      <point x="220.0909090909091" y="457.6060606060606"/>
      <point x="339.3333333333333" y="457.6060606060606" type="curve" smooth="yes"/>
      <point x="384.0" y="457.6060606060606"/>
      <point x="437.8484848484849" y="448.8484848484849"/>
      <point x="465.8787878787879" y="442.8484848484849" type="curve"/>
      <point x="403.4848484848485" y="171.72727272727272" type="line"/>
      <point x="360.6363636363636" y="116.48484848484848"/>
      <point x="284.90909090909093" y="42.90909090909091"/>
    </contour>
  </outline>
</glyph>
<glyph name="r" format="2">
  <advance width="311.27272727272725"/>
  <unicode hex="0072"/>
  <outline>
    <contour>
      <point x="68.63636363636364" y="0.0" type="line"/>
      <point x="128.3939393939394" y="0.0" type="line"/>
      <point x="214.27272727272728" y="371.06060606060606" type="line"/>
      <point x="264.1212121212121" y="398.1515151515151"/>
      <point x="348.06060606060606" y="438.27272727272725"/>
      <point x="397.6969696969697" y="450.030303030303" type="curve"/>
      <point x="413.2121212121212" y="510.4848484848485" type="line"/>
      <point x="346.09090909090907" y="495.90909090909093"/>
      <point x="266.969696969697" y="453.1818181818182"/>
      <point x="225.9090909090909" y="424.969696969697" type="curve"/>
      <point x="243.15151515151516" y="500.0" type="line"/>
      <point x="185.15151515151516" y="500.0" type="line"/>
    </contour>
  </outline>
</glyph>
<glyph name="s" format="2">
  <advance width="428.2121212121212"/>
  <unicode hex="0073"/>
  <outline>
    <contour>
      <point x="206.87878787878788" y="-9.727272727272727" type="curve" smooth="yes"/>
      <point x="325.5151515151515" y="-9.727272727272727"/>
      <point x="422.030303030303" y="49.515151515151516"/>
      <point x="422.030303030303" y="170.42424242424244" type="curve" smooth="yes"/>
      <point x="422.030303030303" y="242.87878787878788"/>
      <point x="374.03684848484846" y="259.62666666666667"/>
      <point x="284.4848484848485" y="281.3030303030303" type="curve" smooth="yes"/>
      <point x="207.00654545454546" y="299.83878787878785"/>
      <point x="186.96969696969697" y="311.6060606060606"/>
      <point x="186.96969696969697" y="348.0" type="curve" smooth="yes"/>
      <point x="186.96969696969697" y="406.06060606060606"/>
      <point x="236.0" y="457.6060606060606"/>
      <point x="313.3636363636364" y="457.6060606060606" type="curve" smooth="yes"/>
      <point x="360.3636363636364" y="457.6060606060606"/>
      <point x="430.54545454545456" y="450.1212121212121"/>
      <point x="470.0" y="443.8787878787879" type="curve"/>
      <point x="482.6363636363636" y="491.3636363636364" type="line"/>
      <point x="444.57575757575756" y="499.06060606060606"/>
      <point x="375.09090909090907" y="509.4848484848485"/>
      <point x="321.57575757575756" y="509.4848484848485" type="curve" smooth="yes"/>
      <point x="208.27272727272728" y="509.4848484848485"/>
      <point x="127.21212121212122" y="436.1818181818182"/>
      <point x="127.21212121212122" y="334.969696969697" type="curve" smooth="yes"/>
      <point x="127.21212121212122" y="269.030303030303"/>
      <point x="173.64242424242425" y="249.38472727272728"/>
      <point x="257.1212121212121" y="229.9090909090909" type="curve" smooth="yes"/>
      <point x="332.46060606060604" y="212.62715151515152"/>
      <point x="361.54545454545456" y="203.84848484848484"/>
      <point x="361.54545454545456" y="158.57575757575756" type="curve" smooth="yes"/>
      <point x="361.54545454545456" y="79.06060606060606"/>
      <point x="295.8181818181818" y="42.151515151515156"/>
      <point x="214.3030303030303" y="42.151515151515156" type="curve" smooth="yes"/>
      <point x="170.6060606060606" y="42.151515151515156"/>
      <point x="102.9090909090909" y="51.39393939393939"/>
      <point x="63.42424242424242" y="58.63636363636364" type="curve"/>
      <point x="52.06060606060606" y="10.636363636363637" type="line"/>
      <point x="87.33333333333333" y="1.696969696969697"/>
      <point x="154.06060606060606" y="-9.727272727272727"/>
    </contour>
  </outline>
</glyph>
<glyph name="t" format="2">
  <advance width="315.3636363636364"/>
  <unicode hex="0074"/>
  <outline>
    <contour>
      <point x="216.54545454545453" y="-9.727272727272727" type="curve" smooth="yes"/>
      <point x="246.66666666666666" y="-9.727272727272727"/>
      <point x="287.3636363636364" y="-2.787878787878788"/>
      <point x="309.6060606060606" y="1.9090909090909092" type="curve"/>
      <point x="313.7878787878788" y="48.66666666666667" type="line"/>
      <point x="290.4848484848485" y="45.90909090909091"/>
      <point x="252.66666666666666" y="42.151515151515156"/>
      <point x="233.66666666666666" y="42.151515151515156" type="curve" smooth="yes"/>
      <point x="194.4848484848485" y="42.151515151515156"/>
      <point x="178.15151515151516" y="62.515151515151516"/>
      <point x="178.15151515151516" y="93.63636363636364" type="curve" smooth="yes"/>
      <point x="178.15151515151516" y="117.48484848484848"/>
      <point x="184.42424242424244" y="153.0909090909091"/>
      <point x="191.45454545454544" y="182.96969696969697" type="curve" smooth="yes"/>
      <point x="253.36363636363637" y="448.1212121212121" type="line"/>
      <point x="402.06060606060606" y="448.1212121212121" type="line"/>
      <point x="414.90909090909093" y="500.0" type="line"/>
      <point x="265.969696969697" y="500.0" type="line"/>
      <point x="303.3030303030303" y="653.7575757575758" type="line"/>
      <point x="244.3030303030303" y="653.7575757575758" type="line"/>
      <point x="207.72727272727272" y="500.0" type="line"/>
      <point x="139.3030303030303" y="500.0" type="line"/>
      <point x="125.96969696969697" y="448.1212121212121" type="line"/>
      <point x="194.36363636363637" y="448.1212121212121" type="line"/>
      <point x="132.93939393939394" y="185.87878787878788" type="line" smooth="yes"/>
      <point x="124.93939393939394" y="153.63636363636363"/>
      <point x="116.42424242424242" y="114.87878787878788"/>
      <point x="116.42424242424242" y="81.60606060606061" type="curve" smooth="yes"/>
      <point x="116.42424242424242" y="22.606060606060606"/>
      <point x="153.66666666666666" y="-9.727272727272727"/>
    </contour>
  </outline>
</glyph>
<glyph name="u" format="2">
  <advance width="494.06060606060606"/>
  <unicode hex="0075"/>
  <outline>
    <contour>
      <point x="217.33333333333334" y="-9.727272727272727" type="curve" smooth="yes"/>
      <point x="283.5151515151515" y="-9.727272727272727"/>
      <point x="353.93939393939394" y="51.78787878787879"/>
      <point x="388.27272727272725" y="97.48484848484848" type="curve"/>
      <point x="367.1212121212121" y="0.0" type="line"/>
      <point x="424.6666666666667" y="0.0" type="line"/>
      <point x="540.4242424242424" y="500.0" type="line"/>
      <point x="481.42424242424244" y="500.0" type="line"/>
      <point x="404.42424242424244" y="168.54545454545453" type="line"/>
      <point x="364.54545454545456" y="114.51515151515152"/>
      <point x="290.75757575757575" y="43.39393939393939"/>
      <point x="235.93939393939394" y="43.39393939393939" type="curve" smooth="yes"/>
      <point x="186.78787878787878" y="43.39393939393939"/>
      <point x="160.84848484848484" y="72.72727272727272"/>
      <point x="160.84848484848484" y="122.60606060606061" type="curve" smooth="yes"/>
      <point x="160.84848484848484" y="160.0"/>
      <point x="171.33333333333334" y="213.4848484848485"/>
      <point x="179.6060606060606" y="247.57575757575756" type="curve" smooth="yes"/>
      <point x="238.15151515151516" y="500.0" type="line"/>
      <point x="179.9090909090909" y="500.0" type="line"/>
      <point x="120.12121212121212" y="243.63636363636363" type="line" smooth="yes"/>
      <point x="111.60606060606061" y="206.3030303030303"/>
      <point x="100.63636363636364" y="155.1818181818182"/>
      <point x="100.63636363636364" y="112.33333333333333" type="curve" smooth="yes"/>
      <point x="100.63636363636364" y="38.878787878787875"/>
      <point x="141.4848484848485" y="-9.727272727272727"/>
    </contour>
  </outline>
</glyph>
<glyph name="v" format="2">
  <advance width="451.6363636363636"/>
  <unicode hex="0076"/>
  <outline>
    <contour>
      <point x="159.87878787878788" y="0.0" type="line"/>
      <point x="282.0" y="0.0" type="line"/>
      <point x="540.4848484848485" y="500.0" type="line"/>
      <point x="478.969696969697" y="500.0" type="line"/>
      <point x="249.63636363636363" y="51.151515151515156" type="line"/>
      <point x="214.96969696969697" y="51.151515151515156" type="line"/>
      <point x="200.93939393939394" y="500.0" type="line"/>
      <point x="141.9090909090909" y="500.0" type="line"/>
    </contour>
  </outline>
</glyph>
<glyph name="w" format="2">
  <advance width="722.6060606060606"/>
  <unicode hex="0077"/>
  <outline>
    <contour>
      <point x="144.63636363636363" y="0.0" type="line"/>
      <point x="252.27272727272728" y="0.0" type="line"/>
      <point x="454.7878787878788" y="414.030303030303" type="line"/>
      <point x="463.06060606060606" y="0.0" type="line"/>
      <point x="573.1818181818181" y="0.0" type="line"/>
      <point x="805.969696969697" y="500.0" type="line"/>
      <point x="745.2121212121212" y="500.0" type="line"/>
      <point x="537.1212121212121" y="51.878787878787875" type="line"/>
      <point x="518.6666666666666" y="51.878787878787875" type="line"/>
      <point x="508.3636363636364" y="490.0" type="line"/>
      <point x="437.42424242424244" y="490.0" type="line"/>
      <point x="220.0909090909091" y="51.878787878787875" type="line"/>
      <point x="202.3939393939394" y="51.878787878787875" type="line"/>
      <point x="205.6060606060606" y="500.0" type="line"/>
      <point x="146.36363636363637" y="500.0" type="line"/>
    </contour>
  </outline>
</glyph>
<glyph name="x" format="2">
  <advance width="415.6060606060606"/>
  <unicode hex="0078"/>
  <outline>
    <contour>
      <point x="21.90909090909091" y="0.0" type="line"/>
      <point x="88.18181818181819" y="0.0" type="line"/>
      <point x="255.33333333333334" y="204.57575757575756" type="line"/>
      <point x="327.6666666666667" y="0.0" type="line"/>
      <point x="390.1818181818182" y="0.0" type="line"/>
      <point x="299.57575757575756" y="245.3030303030303" type="line"/>
      <point x="510.969696969697" y="500.0" type="line"/>
      <point x="445.42424242424244" y="500.0" type="line"/>
      <point x="276.27272727272725" y="290.93939393939394" type="line"/>
      <point x="201.66666666666666" y="500.0" type="line"/>
      <point x="139.9090909090909" y="500.0" type="line"/>
      <point x="230.78787878787878" y="250.0" type="line"/>
    </contour>
  </outline>
</glyph>
<glyph name="y" format="2">
  <advance width="451.8787878787879"/>
  <unicode hex="0079"/>
  <outline>
    <contour>
      <point x="105.78787878787878" y="-223.63636363636363" type="line"/>
      <point x="166.8181818181818" y="-223.63636363636363" type="line"/>
      <point x="540.4848484848485" y="500.0" type="line"/>
      <point x="478.969696969697" y="500.0" type="line"/>
      <point x="248.9090909090909" y="51.151515151515156" type="line"/>
      <point x="214.96969696969697" y="51.151515151515156" type="line"/>
      <point x="200.93939393939394" y="500.0" type="line"/>
      <point x="141.9090909090909" y="500.0" type="line"/>
      <point x="159.87878787878788" y="0.0" type="line"/>
      <point x="223.93939393939394" y="0.0" type="line"/>
    </contour>
  </outline>
</glyph>
<glyph name="z" format="2">
  <advance width="418.54545454545456"/>
  <unicode hex="007A"/>
  <outline>
    <contour>
      <point x="39.303030303030305" y="0.0" type="line"/>
      <point x="379.75757575757575" y="0.0" type="line"/>
      <point x="392.09090909090907" y="51.878787878787875" type="line"/>
      <point x="120.54545454545455" y="51.878787878787875" type="line"/>
      <point x="484.6666666666667" y="448.8484848484849" type="line"/>
      <point x="495.24242424242425" y="500.0" type="line"/>
      <point x="154.78787878787878" y="500.0" type="line"/>
      <point x="141.6969696969697" y="448.1212121212121" type="line"/>
      <point x="411.5151515151515" y="448.1212121212121" type="line"/>
      <point x="47.63636363636364" y="51.39393939393939" type="line"/>
    </contour>
  </outline>
</glyph>
<glyph name="braceleft" format="2">
  <advance width="319.06060606060606"/>
  <unicode hex="007B"/>
  <outline>
    <contour>
      <point x="253.8181818181818" y="-125.42424242424242" type="curve"/>
      <point x="268.90909090909093" y="-70.27272727272728" type="line"/>
      <point x="202.87878787878788" y="-70.27272727272728"/>
      <point x="172.27272727272728" y="-45.45454545454545"/>
      <point x="172.27272727272728" y="4.242424242424242" type="curve" smooth="yes"/>
      <point x="172.27272727272728" y="59.18181818181818"/>
      <point x="221.06060606060606" y="181.75757575757575"/>
      <point x="221.06060606060606" y="222.78787878787878" type="curve" smooth="yes" name="hr00"/>
      <point x="221.06060606060606" y="273.8181818181818"/>
      <point x="193.4848484848485" y="296.8181818181818"/>
      <point x="157.78787878787878" y="311.4848484848485" type="curve"/>
      <point x="228.8181818181818" y="334.72727272727275"/>
      <point x="260.06060606060606" y="365.72727272727275"/>
      <point x="279.06060606060606" y="451.3030303030303" type="curve" smooth="yes"/>
      <point x="283.27272727272725" y="470.57575757575756"/>
      <point x="295.8181818181818" y="544.3939393939394"/>
      <point x="300.7878787878788" y="568.969696969697" type="curve" smooth="yes"/>
      <point x="317.6060606060606" y="648.1212121212121"/>
      <point x="354.5151515151515" y="691.2727272727273"/>
      <point x="451.1515151515151" y="696.2727272727273" type="curve"/>
      <point x="461.030303030303" y="751.4242424242424" type="line"/>
      <point x="342.42424242424244" y="746.4242424242424"/>
      <point x="285.5151515151515" y="701.8484848484849"/>
      <point x="252.27272727272728" y="597.6969696969697" type="curve" smooth="yes"/>
      <point x="241.75757575757575" y="560.0909090909091"/>
      <point x="228.27272727272728" y="478.7878787878788"/>
      <point x="224.03030303030303" y="460.030303030303" type="curve" smooth="yes"/>
      <point x="210.0" y="392.27272727272725"/>
      <point x="190.9090909090909" y="361.93939393939394"/>
      <point x="99.87878787878788" y="337.42424242424244" type="curve"/>
      <point x="88.0" y="287.8787878787879" type="line"/>
      <point x="138.24242424242425" y="271.4848484848485"/>
      <point x="161.8181818181818" y="251.06060606060606"/>
      <point x="161.8181818181818" y="207.42424242424244" type="curve" smooth="yes"/>
      <point x="161.8181818181818" y="170.45454545454547"/>
      <point x="113.75757575757575" y="45.121212121212125"/>
      <point x="113.75757575757575" y="-12.545454545454545" type="curve" smooth="yes"/>
      <point x="113.75757575757575" y="-84.96969696969697"/>
      <point x="159.33333333333334" y="-122.39393939393939"/>
    </contour>
  </outline>
</glyph>
<glyph name="bar" format="2">
  <advance width="305.45454545454544"/>
  <unicode hex="007C"/>
  <outline>
    <contour>
      <point x="180.4848484848485" y="-225.15151515151516" type="line"/>
      <point x="239.4848484848485" y="-225.15151515151516" type="line"/>
      <point x="239.4848484848485" y="722.7272727272727" type="line"/>
      <point x="180.4848484848485" y="722.7272727272727" type="line"/>
    </contour>
  </outline>
</glyph>
<glyph name="braceright" format="2">
  <advance width="318.8181818181818"/>
  <unicode hex="007D"/>
  <outline>
    <contour>
      <point x="209.0" y="748.4242424242424" type="curve"/>
      <point x="193.9090909090909" y="693.2727272727273" type="line"/>
      <point x="259.93939393939394" y="693.2727272727273"/>
      <point x="290.54545454545456" y="668.4545454545455"/>
      <point x="290.54545454545456" y="618.7575757575758" type="curve" smooth="yes"/>
      <point x="290.54545454545456" y="563.8181818181819"/>
      <point x="241.75757575757575" y="441.24242424242425"/>
      <point x="241.75757575757575" y="400.2121212121212" type="curve" smooth="yes"/>
      <point x="241.75757575757575" y="349.1818181818182"/>
      <point x="269.3333333333333" y="326.1818181818182"/>
      <point x="305.030303030303" y="311.5151515151515" type="curve"/>
      <point x="234.0" y="288.27272727272725"/>
      <point x="202.75757575757575" y="257.27272727272725"/>
      <point x="183.75757575757575" y="171.6969696969697" type="curve" smooth="yes"/>
      <point x="179.54545454545453" y="152.42424242424244"/>
      <point x="167.0" y="78.60606060606061"/>
      <point x="162.03030303030303" y="54.03030303030303" type="curve" smooth="yes"/>
      <point x="145.21212121212122" y="-25.12121212121212"/>
      <point x="108.3030303030303" y="-68.27272727272728"/>
      <point x="11.666666666666666" y="-73.27272727272728" type="curve"/>
      <point x="1.7878787878787872" y="-128.42424242424244" type="line"/>
      <point x="120.39393939393939" y="-123.42424242424242"/>
      <point x="177.3030303030303" y="-78.84848484848484"/>
      <point x="210.54545454545453" y="25.303030303030305" type="curve" smooth="yes"/>
      <point x="221.06060606060606" y="62.90909090909091"/>
      <point x="234.54545454545453" y="144.21212121212122"/>
      <point x="238.78787878787878" y="162.96969696969697" type="curve" smooth="yes"/>
      <point x="252.8181818181818" y="230.72727272727272"/>
      <point x="271.90909090909093" y="261.06060606060606"/>
      <point x="362.93939393939394" y="285.57575757575756" type="curve"/>
      <point x="374.8181818181818" y="335.1212121212121" type="line"/>
      <point x="324.57575757575756" y="351.5151515151515"/>
      <point x="301.0" y="371.93939393939394"/>
      <point x="301.0" y="415.57575757575756" type="curve" smooth="yes"/>
      <point x="301.0" y="452.54545454545456"/>
      <point x="349.06060606060606" y="577.8787878787879"/>
      <point x="349.06060606060606" y="635.5454545454545" type="curve" smooth="yes"/>
      <point x="349.06060606060606" y="707.969696969697"/>
      <point x="303.4848484848485" y="745.3939393939394"/>
    </contour>
  </outline>
</glyph>
<glyph name="asciitilde" format="2">
  <advance width="560.0"/>
  <unicode hex="007E"/>
  <outline>
    <contour>
      <point x="441.4848484848485" y="201.8181818181818" type="curve" smooth="yes"/>
      <point x="480.1818181818182" y="201.8181818181818"/>
      <point x="527.6969696969697" y="232.33333333333334"/>
      <point x="553.7272727272727" y="255.84848484848484" type="curve"/>
      <point x="543.4545454545455" y="305.27272727272725" type="line" name="hr00"/>
      <point x="515.6969696969697" y="284.72727272727275"/>
      <point x="467.93939393939394" y="256.6666666666667"/>
      <point x="441.45454545454544" y="256.6666666666667" type="curve" smooth="yes"/>
      <point x="398.0" y="256.6666666666667"/>
      <point x="297.0" y="322.6363636363636"/>
      <point x="243.0" y="322.6363636363636" type="curve" smooth="yes"/>
      <point x="205.06060606060606" y="322.6363636363636"/>
      <point x="155.33333333333334" y="291.8787878787879"/>
      <point x="128.33333333333334" y="269.1212121212121" type="curve"/>
      <point x="139.0909090909091" y="218.93939393939394" type="line"/>
      <point x="166.6060606060606" y="239.72727272727272"/>
      <point x="214.6060606060606" y="267.7878787878788"/>
      <point x="242.78787878787878" y="267.7878787878788" type="curve" smooth="yes"/>
      <point x="283.8181818181818" y="267.7878787878788"/>
      <point x="387.4848484848485" y="201.8181818181818"/>
    </contour>
  </outline>
</glyph>
<glyph name="exclamdown" format="2">
  <advance width="182.21212121212122"/>
  <unicode hex="00A1"/>
  <outline>
    <contour>
      <point x="183.57575757575756" y="277.6060606060606" type="line"/>
      <point x="131.8181818181818" y="277.6060606060606" type="line"/>
      <point x="15.272727272727273" y="-200.0" type="line"/>
      <point x="74.93939393939394" y="-200.0" type="line"/>
    </contour>
    <contour>
      <point x="233.6969696969697" y="500.0" type="line"/>
      <point x="173.45454545454544" y="500.0" type="line"/>
      <point x="150.57575757575756" y="400.030303030303" type="line"/>
      <point x="210.8181818181818" y="400.030303030303" type="line"/>
    </contour>
  </outline>
</glyph>
<glyph name="cent" format="2">
  <advance width="560.0"/>
  <unicode hex="00A2"/>
  <outline>
    <contour>
      <point x="258.57575757575756" y="-81.57575757575758" type="line" name="hr00"/>
      <point x="310.030303030303" y="-81.57575757575758" type="line"/>
      <point x="338.8181818181818" y="41.303030303030305" type="line"/>
      <point x="368.3333333333333" y="41.03030303030303"/>
      <point x="414.4848484848485" y="45.78787878787879"/>
      <point x="441.8484848484849" y="48.78787878787879" type="curve"/>
      <point x="453.75757575757575" y="101.6969696969697" type="line"/>
      <point x="417.45454545454544" y="98.93939393939394"/>
      <point x="357.3636363636364" y="94.66666666666667"/>
      <point x="326.06060606060606" y="94.66666666666667" type="curve" smooth="yes"/>
      <point x="207.75757575757575" y="94.66666666666667"/>
      <point x="208.66666666666666" y="161.78787878787878"/>
      <point x="229.96969696969697" y="247.72727272727272" type="curve" smooth="yes"/>
      <point x="254.03030303030303" y="345.0"/>
      <point x="308.0" y="405.8484848484849"/>
      <point x="398.6060606060606" y="405.8484848484849" type="curve" smooth="yes"/>
      <point x="424.6060606060606" y="405.8484848484849"/>
      <point x="482.93939393939394" y="400.8181818181818"/>
      <point x="519.2424242424242" y="397.54545454545456" type="curve"/>
      <point x="535.060606060606" y="451.2121212121212" type="line"/>
      <point x="527.8787878787879" y="452.6969696969697"/>
      <point x="459.4848484848485" y="459.72727272727275"/>
      <point x="437.030303030303" y="461.2121212121212" type="curve"/>
      <point x="466.8181818181818" y="585.1515151515151" type="line"/>
      <point x="415.6363636363636" y="585.1515151515151" type="line"/>
      <point x="386.57575757575756" y="461.1818181818182" type="line"/>
      <point x="283.6060606060606" y="457.969696969697"/>
      <point x="205.9090909090909" y="387.2121212121212"/>
      <point x="170.15151515151516" y="247.72727272727272" type="curve" smooth="yes"/>
      <point x="143.87878787878788" y="144.45454545454547"/>
      <point x="152.5151515151515" y="40.03030303030303"/>
      <point x="286.8787878787879" y="38.09090909090909" type="curve"/>
    </contour>
  </outline>
</glyph>
<glyph name="sterling" format="2">
  <advance width="560.0"/>
  <unicode hex="00A3"/>
  <outline>
    <contour>
      <point x="81.06060606060606" y="0.0" type="line"/>
      <point x="398.3333333333333" y="0.0" type="line"/>
      <point x="477.6363636363636" y="17.757575757575758" type="line"/>
      <point x="478.3636363636364" y="69.12121212121212" type="line"/>
      <point x="400.5151515151515" y="52.63636363636364" type="line"/>
      <point x="250.1818181818182" y="52.63636363636364" type="line"/>
      <point x="319.8787878787879" y="362.3333333333333" type="line"/>
      <point x="523.6060606060606" y="362.3333333333333" type="line"/>
      <point x="536.2121212121212" y="414.969696969697" type="line"/>
      <point x="332.24242424242425" y="414.969696969697" type="line"/>
      <point x="344.06060606060606" y="463.75757575757575" type="line" smooth="yes"/>
      <point x="367.3939393939394" y="559.3636363636364"/>
      <point x="382.93939393939394" y="625.3939393939394"/>
      <point x="467.27272727272725" y="625.3939393939394" type="curve" smooth="yes"/>
      <point x="504.6060606060606" y="625.3939393939394"/>
      <point x="559.1818181818181" y="620.3939393939394"/>
      <point x="589.969696969697" y="617.3939393939394" type="curve"/>
      <point x="602.7878787878788" y="664.6060606060606" type="line"/>
      <point x="569.6060606060606" y="671.060606060606"/>
      <point x="510.42424242424244" y="679.0"/>
      <point x="471.1515151515151" y="679.0" type="curve" smooth="yes"/>
      <point x="348.09090909090907" y="679.0"/>
      <point x="315.24242424242425" y="600.2727272727273"/>
      <point x="284.54545454545456" y="470.6666666666667" type="curve" smooth="yes"/>
      <point x="271.75757575757575" y="414.969696969697" type="line"/>
      <point x="198.06060606060606" y="414.969696969697" type="line"/>
      <point x="185.45454545454547" y="362.3333333333333" type="line"/>
      <point x="259.3939393939394" y="362.3333333333333" type="line"/>
      <point x="189.1818181818182" y="52.63636363636364" type="line"/>
      <point x="93.42424242424242" y="52.63636363636364" type="line"/>
    </contour>
  </outline>
</glyph>
<glyph name="currency" format="2">
  <advance width="560.0"/>
  <unicode hex="00A4"/>
  <outline>
    <contour>
      <point x="212.87878787878788" y="127.39393939393939" type="curve" smooth="yes"/>
      <point x="281.54545454545456" y="58.21212121212121"/>
      <point x="393.42424242424244" y="58.21212121212121"/>
      <point x="462.09090909090907" y="127.39393939393939" type="curve" smooth="yes"/>
      <point x="531.2727272727273" y="196.06060606060606"/>
      <point x="531.2727272727273" y="307.93939393939394"/>
      <point x="462.09090909090907" y="376.6060606060606" type="curve" smooth="yes"/>
      <point x="393.42424242424244" y="445.7878787878788"/>
      <point x="281.54545454545456" y="445.7878787878788"/>
      <point x="212.87878787878788" y="376.6060606060606" type="curve" smooth="yes"/>
      <point x="143.6969696969697" y="307.93939393939394"/>
      <point x="143.6969696969697" y="196.06060606060606"/>
    </contour>
    <contour>
      <point x="165.0909090909091" y="37.60606060606061" type="line"/>
      <point x="262.72727272727275" y="136.0" type="line"/>
      <point x="221.4848484848485" y="177.24242424242425" type="line"/>
      <point x="123.0909090909091" y="79.60606060606061" type="line"/>
    </contour>
    <contour>
      <point x="252.66666666666666" y="167.1818181818182" type="curve" smooth="yes"/>
      <point x="207.0" y="213.6060606060606"/>
      <point x="207.0" y="290.3939393939394"/>
      <point x="252.66666666666666" y="336.8181818181818" type="curve" smooth="yes"/>
      <point x="299.09090909090907" y="382.4848484848485"/>
      <point x="375.8787878787879" y="382.4848484848485"/>
      <point x="422.3030303030303" y="336.8181818181818" type="curve" smooth="yes"/>
      <point x="467.969696969697" y="290.3939393939394"/>
      <point x="467.969696969697" y="213.6060606060606"/>
      <point x="422.3030303030303" y="167.1818181818182" type="curve" smooth="yes"/>
      <point x="375.8787878787879" y="121.51515151515152"/>
      <point x="299.09090909090907" y="121.51515151515152"/>
    </contour>
    <contour>
      <point x="221.4848484848485" y="326.75757575757575" type="line"/>
      <point x="262.72727272727275" y="368.0" type="line"/>
      <point x="165.0909090909091" y="466.3939393939394" type="line"/>
      <point x="123.0909090909091" y="424.3939393939394" type="line"/>
    </contour>
    <contour>
      <point x="509.8787878787879" y="37.60606060606061" type="line"/>
      <point x="551.8787878787879" y="79.60606060606061" type="line"/>
      <point x="453.4848484848485" y="177.24242424242425" type="line"/>
      <point x="412.24242424242425" y="136.0" type="line"/>
    </contour>
    <contour>
      <point x="453.4848484848485" y="326.75757575757575" type="line"/>
      <point x="551.8787878787879" y="424.3939393939394" type="line"/>
      <point x="509.8787878787879" y="466.3939393939394" type="line"/>
      <point x="412.24242424242425" y="368.0" type="line"/>
    </contour>
  </outline>
</glyph>
<glyph name="yen" format="2">
  <advance width="560.0"/>
  <unicode hex="00A5"/>
  <outline>
    <contour>
      <point x="249.3030303030303" y="0.0" type="line"/>
      <point x="309.030303030303" y="0.0" type="line"/>
      <point x="348.6363636363636" y="168.93939393939394" type="line"/>
      <point x="526.5151515151515" y="168.93939393939394" type="line"/>
      <point x="539.1212121212121" y="222.54545454545453" type="line"/>
      <point x="361.24242424242425" y="222.54545454545453" type="line"/>
      <point x="379.3636363636364" y="300.6060606060606" type="line"/>
      <point x="394.42424242424244" y="318.42424242424244" type="line"/>
      <point x="561.2727272727273" y="318.42424242424244" type="line"/>
      <point x="573.3636363636364" y="372.030303030303" type="line"/>
      <point x="437.2121212121212" y="372.030303030303" type="line"/>
      <point x="683.030303030303" y="660.7575757575758" type="line"/>
      <point x="605.030303030303" y="660.7575757575758" type="line"/>
      <point x="360.3636363636364" y="369.1515151515151" type="line"/>
      <point x="243.42424242424244" y="660.7575757575758" type="line"/>
      <point x="178.5151515151515" y="660.7575757575758" type="line"/>
      <point x="294.09090909090907" y="372.030303030303" type="line"/>
      <point x="154.3939393939394" y="372.030303030303" type="line"/>
      <point x="142.03030303030303" y="318.42424242424244" type="line"/>
      <point x="314.3636363636364" y="318.42424242424244" type="line"/>
      <point x="318.8787878787879" y="302.1212121212121" type="line"/>
      <point x="300.24242424242425" y="222.54545454545453" type="line"/>
      <point x="119.63636363636364" y="222.54545454545453" type="line"/>
      <point x="106.78787878787878" y="168.93939393939394" type="line"/>
      <point x="288.3939393939394" y="168.93939393939394" type="line"/>
    </contour>
  </outline>
</glyph>
<glyph name="brokenbar" format="2">
  <advance width="313.030303030303"/>
  <unicode hex="00A6"/>
  <outline>
    <contour>
      <point x="184.27272727272728" y="347.6969696969697" type="line"/>
      <point x="243.27272727272728" y="347.6969696969697" type="line"/>
      <point x="243.27272727272728" y="722.7272727272727" type="line"/>
      <point x="184.27272727272728" y="722.7272727272727" type="line"/>
    </contour>
    <contour>
      <point x="184.27272727272728" y="-225.15151515151516" type="line"/>
      <point x="243.27272727272728" y="-225.15151515151516" type="line"/>
      <point x="243.27272727272728" y="151.8181818181818" type="line"/>
      <point x="184.27272727272728" y="151.8181818181818" type="line"/>
    </contour>
  </outline>
</glyph>
<glyph name="section" format="2">
  <advance width="465.7878787878788"/>
  <unicode hex="00A7"/>
  <outline>
    <contour>
      <point x="197.36363636363637" y="-138.0" type="curve" smooth="yes"/>
      <point x="374.57575757575756" y="-138.0"/>
      <point x="415.4848484848485" y="11.515151515151516"/>
      <point x="415.4848484848485" y="64.18181818181819" type="curve" smooth="yes"/>
      <point x="415.4848484848485" y="87.24242424242425"/>
      <point x="414.24242424242425" y="102.48484848484848"/>
      <point x="398.4848484848485" y="122.6969696969697" type="curve"/>
      <point x="430.45454545454544" y="162.6969696969697"/>
      <point x="474.8787878787879" y="231.54545454545453"/>
      <point x="474.8787878787879" y="287.969696969697" type="curve" smooth="yes"/>
      <point x="474.8787878787879" y="334.030303030303"/>
      <point x="446.75757575757575" y="377.3333333333333"/>
      <point x="347.5151515151515" y="395.27272727272725" type="curve" smooth="yes"/>
      <point x="273.8181818181818" y="408.27272727272725"/>
      <point x="236.78787878787878" y="417.030303030303"/>
      <point x="236.78787878787878" y="470.90909090909093" type="curve" smooth="yes"/>
      <point x="236.78787878787878" y="545.5151515151515"/>
      <point x="285.3939393939394" y="597.5454545454545"/>
      <point x="382.42424242424244" y="597.5454545454545" type="curve" smooth="yes"/>
      <point x="415.1818181818182" y="597.5454545454545"/>
      <point x="483.1515151515151" y="590.060606060606"/>
      <point x="525.8787878787879" y="583.8181818181819" type="curve"/>
      <point x="540.7272727272727" y="638.0" type="line"/>
      <point x="503.0" y="644.969696969697"/>
      <point x="436.54545454545456" y="653.6666666666666"/>
      <point x="393.09090909090907" y="653.6666666666666" type="curve" smooth="yes"/>
      <point x="247.87878787878788" y="653.6666666666666"/>
      <point x="174.45454545454547" y="553.4545454545455"/>
      <point x="174.45454545454547" y="462.8484848484849" type="curve" smooth="yes"/>
      <point x="174.45454545454547" y="427.93939393939394"/>
      <point x="179.75757575757575" y="407.93939393939394"/>
      <point x="194.45454545454547" y="389.1818181818182" type="curve"/>
      <point x="159.45454545454547" y="358.6363636363636"/>
      <point x="109.06060606060606" y="296.3030303030303"/>
      <point x="109.06060606060606" y="230.4848484848485" type="curve" smooth="yes"/>
      <point x="109.06060606060606" y="174.27272727272728"/>
      <point x="140.06060606060606" y="135.5151515151515"/>
      <point x="241.21212121212122" y="118.36363636363636" type="curve" smooth="yes"/>
      <point x="333.969696969697" y="101.48484848484848"/>
      <point x="354.1818181818182" y="90.0909090909091"/>
      <point x="354.1818181818182" y="47.81818181818181" type="curve" smooth="yes"/>
      <point x="354.1818181818182" y="-7.363636363636363"/>
      <point x="303.6060606060606" y="-82.63636363636364"/>
      <point x="207.78787878787878" y="-82.63636363636364" type="curve" smooth="yes"/>
      <point x="170.78787878787878" y="-82.63636363636364"/>
      <point x="99.27272727272727" y="-74.63636363636364"/>
      <point x="55.515151515151516" y="-68.63636363636364" type="curve"/>
      <point x="37.96969696969697" y="-122.81818181818181" type="line"/>
      <point x="81.45454545454545" y="-129.54545454545456"/>
      <point x="153.9090909090909" y="-138.0"/>
    </contour>
    <contour>
      <point x="358.969696969697" y="147.96969696969697" type="curve"/>
      <point x="335.93939393939394" y="160.75757575757575"/>
      <point x="306.3939393939394" y="168.0"/>
      <point x="268.57575757575756" y="175.45454545454547" type="curve" smooth="yes"/>
      <point x="192.57575757575756" y="187.72727272727272"/>
      <point x="170.3030303030303" y="207.87878787878788"/>
      <point x="170.3030303030303" y="248.57575757575756" type="curve" smooth="yes"/>
      <point x="170.3030303030303" y="287.93939393939394"/>
      <point x="205.66666666666666" y="340.5151515151515"/>
      <point x="230.8181818181818" y="365.3939393939394" type="curve"/>
      <point x="239.33333333333334" y="358.3636363636364"/>
      <point x="278.42424242424244" y="348.09090909090907"/>
      <point x="316.06060606060606" y="341.3333333333333" type="curve" smooth="yes"/>
      <point x="388.8484848484849" y="328.57575757575756"/>
      <point x="414.6666666666667" y="308.4848484848485"/>
      <point x="414.6666666666667" y="273.8787878787879" type="curve" smooth="yes"/>
      <point x="414.6666666666667" y="236.5151515151515"/>
      <point x="382.8181818181818" y="178.63636363636363"/>
    </contour>
  </outline>
</glyph>
<glyph name="dieresis" format="2">
  <advance width="723.8484848484849"/>
  <unicode hex="00A8"/>
  <outline>
    <contour>
      <point x="428.6969696969697" y="625.2424242424242" type="line"/>
      <point x="475.8181818181818" y="625.2424242424242" type="line"/>
      <point x="494.93939393939394" y="707.2121212121212" type="line"/>
      <point x="446.06060606060606" y="707.2121212121212" type="line"/>
    </contour>
    <contour>
      <point x="249.0909090909091" y="625.2424242424242" type="line"/>
      <point x="297.72727272727275" y="625.2424242424242" type="line"/>
      <point x="316.8484848484849" y="707.2121212121212" type="line"/>
      <point x="267.969696969697" y="707.2121212121212" type="line"/>
    </contour>
  </outline>
</glyph>
<glyph name="copyright" format="2">
  <advance width="644.7878787878788"/>
  <unicode hex="00A9"/>
  <outline>
    <contour>
      <point x="422.030303030303" y="164.3939393939394" type="curve" smooth="yes"/>
      <point x="574.6060606060606" y="164.3939393939394"/>
      <point x="683.1212121212121" y="283.6060606060606"/>
      <point x="683.1212121212121" y="434.0" type="curve" smooth="yes"/>
      <point x="683.1212121212121" y="582.6969696969697"/>
      <point x="574.6060606060606" y="704.3636363636364"/>
      <point x="422.5151515151515" y="704.3636363636364" type="curve" smooth="yes"/>
      <point x="272.3636363636364" y="704.3636363636364"/>
      <point x="162.42424242424244" y="585.1212121212121"/>
      <point x="162.42424242424244" y="434.0" type="curve" smooth="yes"/>
      <point x="162.42424242424244" y="283.8484848484849"/>
      <point x="272.6060606060606" y="164.3939393939394"/>
    </contour>
    <contour>
      <point x="424.45454545454544" y="278.09090909090907" type="curve" smooth="yes"/>
      <point x="451.8181818181818" y="278.09090909090907"/>
      <point x="484.3333333333333" y="284.3030303030303"/>
      <point x="500.8787878787879" y="288.5151515151515" type="curve"/>
      <point x="498.42424242424244" y="332.6363636363636" type="line"/>
      <point x="480.3939393939394" y="329.8787878787879"/>
      <point x="447.6060606060606" y="325.3636363636364"/>
      <point x="426.8787878787879" y="325.3636363636364" type="curve" smooth="yes"/>
      <point x="372.3333333333333" y="325.3636363636364"/>
      <point x="360.06060606060606" y="364.030303030303"/>
      <point x="360.06060606060606" y="434.45454545454544" type="curve" smooth="yes"/>
      <point x="360.06060606060606" y="504.6666666666667"/>
      <point x="367.54545454545456" y="542.3939393939394"/>
      <point x="426.8787878787879" y="542.3939393939394" type="curve" smooth="yes"/>
      <point x="449.8787878787879" y="542.3939393939394"/>
      <point x="481.1515151515151" y="538.6363636363636"/>
      <point x="498.42424242424244" y="535.6363636363636" type="curve"/>
      <point x="500.8787878787879" y="580.7272727272727" type="line"/>
      <point x="486.1212121212121" y="584.4545454545455"/>
      <point x="455.1212121212121" y="589.6666666666666"/>
      <point x="425.42424242424244" y="589.6666666666666" type="curve" smooth="yes"/>
      <point x="334.93939393939394" y="589.6666666666666"/>
      <point x="310.8484848484849" y="532.969696969697"/>
      <point x="310.8484848484849" y="434.45454545454544" type="curve" smooth="yes"/>
      <point x="310.8484848484849" y="332.54545454545456"/>
      <point x="336.45454545454544" y="278.09090909090907"/>
    </contour>
    <contour>
      <point x="422.030303030303" y="203.1818181818182" type="curve" smooth="yes"/>
      <point x="294.72727272727275" y="203.1818181818182"/>
      <point x="201.6969696969697" y="306.6969696969697"/>
      <point x="201.6969696969697" y="434.0" type="curve" smooth="yes"/>
      <point x="201.6969696969697" y="561.3030303030303"/>
      <point x="294.969696969697" y="665.5757575757576"/>
      <point x="422.27272727272725" y="665.5757575757576" type="curve" smooth="yes"/>
      <point x="549.5757575757576" y="665.5757575757576"/>
      <point x="643.8484848484849" y="561.3030303030303"/>
      <point x="643.8484848484849" y="434.0" type="curve" smooth="yes"/>
      <point x="643.8484848484849" y="306.45454545454544"/>
      <point x="550.060606060606" y="203.1818181818182"/>
    </contour>
  </outline>
</glyph>
<glyph name="ordfeminine" format="2">
  <advance width="347.93939393939394"/>
  <unicode hex="00AA"/>
  <outline>
    <contour>
      <point x="392.1212121212121" y="368.3030303030303" type="curve"/>
      <point x="402.1212121212121" y="409.90909090909093" type="line"/>
      <point x="389.8181818181818" y="412.42424242424244"/>
      <point x="378.75757575757575" y="416.969696969697"/>
      <point x="374.0" y="427.7878787878788" type="curve"/>
      <point x="407.2121212121212" y="562.2424242424242" type="line" smooth="yes"/>
      <point x="423.42424242424244" y="631.060606060606"/>
      <point x="395.1212121212121" y="659.7575757575758"/>
      <point x="326.6969696969697" y="659.7575757575758" type="curve" smooth="yes"/>
      <point x="295.1212121212121" y="659.7575757575758"/>
      <point x="245.84848484848484" y="654.2727272727273"/>
      <point x="210.0" y="647.8787878787879" type="curve"/>
      <point x="209.03030303030303" y="606.4848484848485" type="line"/>
      <point x="241.93939393939394" y="609.4848484848485"/>
      <point x="294.3030303030303" y="614.0"/>
      <point x="321.7878787878788" y="614.0" type="curve" smooth="yes"/>
      <point x="357.1515151515151" y="614.4848484848485"/>
      <point x="365.6363636363636" y="606.1515151515151"/>
      <point x="357.57575757575756" y="569.6363636363636" type="curve" smooth="yes"/>
      <point x="323.1515151515151" y="418.93939393939394" type="line"/>
      <point x="327.06060606060606" y="387.1212121212121"/>
      <point x="348.72727272727275" y="373.6060606060606"/>
    </contour>
    <contour>
      <point x="212.72727272727272" y="369.3030303030303" type="curve" smooth="yes"/>
      <point x="254.75757575757575" y="369.3030303030303"/>
      <point x="308.8787878787879" y="382.7878787878788"/>
      <point x="342.54545454545456" y="398.8484848484849" type="curve"/>
      <point x="352.7878787878788" y="442.42424242424244" type="line"/>
      <point x="304.1515151515151" y="427.1212121212121"/>
      <point x="262.27272727272725" y="413.3636363636364"/>
      <point x="223.42424242424244" y="413.3636363636364" type="curve" smooth="yes"/>
      <point x="202.87878787878788" y="413.3636363636364"/>
      <point x="194.33333333333334" y="426.2121212121212"/>
      <point x="200.12121212121212" y="452.1212121212121" type="curve" smooth="yes"/>
      <point x="206.63636363636363" y="482.6969696969697"/>
      <point x="224.36363636363637" y="496.6969696969697"/>
      <point x="255.96969696969697" y="498.6969696969697" type="curve" smooth="yes"/>
      <point x="354.8181818181818" y="505.6969696969697" type="line"/>
      <point x="362.4848484848485" y="545.1515151515151" type="line"/>
      <point x="254.0909090909091" y="538.6363636363636" type="line" smooth="yes"/>
      <point x="194.6060606060606" y="535.3939393939394"/>
      <point x="162.96969696969697" y="511.42424242424244"/>
      <point x="151.4848484848485" y="461.27272727272725" type="curve" smooth="yes"/>
      <point x="138.75757575757575" y="406.42424242424244"/>
      <point x="163.6969696969697" y="369.3030303030303"/>
    </contour>
  </outline>
</glyph>
<glyph name="logicalnot" format="2">
  <advance width="560.0"/>
  <unicode hex="00AC"/>
  <outline>
    <contour>
      <point x="494.90909090909093" y="120.66666666666667" type="line"/>
      <point x="551.2727272727273" y="120.66666666666667" type="line"/>
      <point x="551.2727272727273" y="338.3030303030303" type="line"/>
      <point x="125.87878787878788" y="338.3030303030303" type="line"/>
      <point x="125.87878787878788" y="283.45454545454544" type="line"/>
      <point x="494.90909090909093" y="283.45454545454544" type="line"/>
    </contour>
  </outline>
</glyph>
<glyph name="registered" format="2">
  <advance width="644.7878787878788"/>
  <unicode hex="00AE"/>
  <outline>
    <contour>
      <point x="422.27272727272725" y="164.3939393939394" type="curve" smooth="yes"/>
      <point x="574.6060606060606" y="164.3939393939394"/>
      <point x="683.1212121212121" y="283.6060606060606"/>
      <point x="683.1212121212121" y="434.0" type="curve" smooth="yes"/>
      <point x="683.1212121212121" y="582.6969696969697"/>
      <point x="574.6060606060606" y="704.3636363636364"/>
      <point x="422.27272727272725" y="704.3636363636364" type="curve" smooth="yes"/>
      <point x="272.3636363636364" y="704.3636363636364"/>
      <point x="162.42424242424244" y="585.1212121212121"/>
      <point x="162.42424242424244" y="434.0" type="curve" smooth="yes"/>
      <point x="162.42424242424244" y="283.8484848484849"/>
      <point x="272.6060606060606" y="164.3939393939394"/>
    </contour>
    <contour>
      <point x="422.27272727272725" y="203.1818181818182" type="curve" smooth="yes"/>
      <point x="295.6969696969697" y="203.1818181818182"/>
      <point x="201.6969696969697" y="306.6969696969697"/>
      <point x="201.6969696969697" y="434.0" type="curve" smooth="yes"/>
      <point x="201.6969696969697" y="561.3030303030303"/>
      <point x="295.2121212121212" y="665.5757575757576"/>
      <point x="422.27272727272725" y="665.5757575757576" type="curve" smooth="yes"/>
      <point x="549.5757575757576" y="665.5757575757576"/>
      <point x="643.8484848484849" y="561.3030303030303"/>
      <point x="643.8484848484849" y="434.0" type="curve" smooth="yes"/>
      <point x="643.8484848484849" y="306.45454545454544"/>
      <point x="550.060606060606" y="203.1818181818182"/>
    </contour>
    <contour>
      <point x="315.90909090909093" y="283.57575757575756" type="line"/>
      <point x="363.42424242424244" y="283.57575757575756" type="line"/>
      <point x="363.42424242424244" y="394.0" type="line"/>
      <point x="431.8181818181818" y="394.0" type="line"/>
      <point x="486.3333333333333" y="283.57575757575756" type="line"/>
      <point x="537.8484848484849" y="283.57575757575756" type="line"/>
      <point x="478.6666666666667" y="400.3939393939394" type="line"/>
      <point x="519.030303030303" y="414.54545454545456"/>
      <point x="532.5757575757576" y="442.3333333333333"/>
      <point x="532.5757575757576" y="490.54545454545456" type="curve" smooth="yes"/>
      <point x="532.5757575757576" y="560.4848484848485"/>
      <point x="492.6666666666667" y="583.4242424242424"/>
      <point x="419.3333333333333" y="583.4242424242424" type="curve" smooth="yes"/>
      <point x="315.90909090909093" y="583.4242424242424" type="line"/>
    </contour>
    <contour>
      <point x="363.1818181818182" y="434.6969696969697" type="line"/>
      <point x="363.1818181818182" y="542.4848484848485" type="line"/>
      <point x="416.6969696969697" y="542.4848484848485" type="line" smooth="yes"/>
      <point x="463.42424242424244" y="542.4848484848485"/>
      <point x="485.7878787878788" y="528.7575757575758"/>
      <point x="485.7878787878788" y="488.8484848484849" type="curve" smooth="yes"/>
      <point x="485.7878787878788" y="449.1818181818182"/>
      <point x="469.24242424242425" y="434.6969696969697"/>
      <point x="430.57575757575756" y="434.6969696969697" type="curve" smooth="yes"/>
    </contour>
  </outline>
</glyph>
<glyph name="macron" format="2">
  <advance width="433.2121212121212"/>
  <unicode hex="00AF"/>
  <outline>
    <contour>
      <point x="232.15151515151516" y="642.1515151515151" type="line"/>
      <point x="497.72727272727275" y="642.1515151515151" type="line"/>
      <point x="509.3333333333333" y="688.2727272727273" type="line"/>
      <point x="242.75757575757575" y="688.2727272727273" type="line"/>
    </contour>
  </outline>
</glyph>
<glyph name="degree" format="2">
  <advance width="560.0"/>
  <unicode hex="00B0"/>
  <outline>
    <contour>
      <point x="409.54545454545456" y="427.09090909090907" type="curve" smooth="yes"/>
      <point x="492.4848484848485" y="427.09090909090907"/>
      <point x="548.939393939394" y="482.54545454545456"/>
      <point x="548.939393939394" y="565.4848484848485" type="curve" smooth="yes"/>
      <point x="548.939393939394" y="648.4242424242424"/>
      <point x="492.4848484848485" y="704.8787878787879"/>
      <point x="409.54545454545456" y="704.8787878787879" type="curve" smooth="yes"/>
      <point x="326.6060606060606" y="704.8787878787879"/>
      <point x="270.1515151515151" y="648.4242424242424"/>
      <point x="270.1515151515151" y="565.4848484848485" type="curve" smooth="yes"/>
      <point x="270.1515151515151" y="482.54545454545456"/>
      <point x="326.6060606060606" y="427.09090909090907"/>
    </contour>
    <contour>
      <point x="409.54545454545456" y="469.030303030303" type="curve" smooth="yes"/>
      <point x="351.6666666666667" y="469.030303030303"/>
      <point x="314.09090909090907" y="507.6060606060606"/>
      <point x="314.09090909090907" y="565.4848484848485" type="curve" smooth="yes"/>
      <point x="314.09090909090907" y="623.3636363636364"/>
      <point x="351.6666666666667" y="662.939393939394"/>
      <point x="409.54545454545456" y="662.939393939394" type="curve" smooth="yes"/>
      <point x="467.42424242424244" y="662.939393939394"/>
      <point x="507.0" y="623.3636363636364"/>
      <point x="507.0" y="565.4848484848485" type="curve" smooth="yes"/>
      <point x="507.0" y="507.6060606060606"/>
      <point x="467.42424242424244" y="469.030303030303"/>
    </contour>
  </outline>
</glyph>
<glyph name="plusminus" format="2">
  <advance width="560.0"/>
  <unicode hex="00B1"/>
  <outline>
    <contour>
      <point x="297.54545454545456" y="165.45454545454547" type="line"/>
      <point x="353.90909090909093" y="165.45454545454547" type="line"/>
      <point x="353.90909090909093" y="298.7878787878788" type="line"/>
      <point x="549.9090909090909" y="298.7878787878788" type="line"/>
      <point x="549.9090909090909" y="353.6363636363636" type="line"/>
      <point x="353.90909090909093" y="353.6363636363636" type="line"/>
      <point x="353.90909090909093" y="484.3636363636364" type="line"/>
      <point x="297.54545454545456" y="484.3636363636364" type="line"/>
      <point x="297.54545454545456" y="353.6363636363636" type="line"/>
      <point x="103.54545454545455" y="353.6363636363636" type="line"/>
      <point x="103.54545454545455" y="298.7878787878788" type="line"/>
      <point x="297.54545454545456" y="298.7878787878788" type="line"/>
    </contour>
    <contour>
      <point x="103.54545454545455" y="42.484848484848484" type="line"/>
      <point x="549.9090909090909" y="42.484848484848484" type="line"/>
      <point x="549.9090909090909" y="97.33333333333333" type="line"/>
      <point x="103.54545454545455" y="97.33333333333333" type="line"/>
    </contour>
  </outline>
</glyph>
<glyph name="twosuperior" format="2">
  <advance width="280.0"/>
  <unicode hex="00B2"/>
  <outline>
    <contour>
      <point x="143.6060606060606" y="478.0" type="line"/>
      <point x="347.3333333333333" y="478.0" type="line"/>
      <point x="358.969696969697" y="526.7878787878788" type="line"/>
      <point x="224.06060606060606" y="526.7878787878788" type="line"/>
      <point x="307.6969696969697" y="594.939393939394" type="line" smooth="yes"/>
      <point x="357.2121212121212" y="633.030303030303"/>
      <point x="388.2460606060606" y="664.3473939393939"/>
      <point x="400.06060606060606" y="710.8484848484849" type="curve" smooth="yes"/>
      <point x="414.97333333333336" y="771.2567272727273"/>
      <point x="391.0" y="799.4848484848485"/>
      <point x="325.42424242424244" y="799.4848484848485" type="curve" smooth="yes"/>
      <point x="293.93939393939394" y="799.4848484848485"/>
      <point x="248.78787878787878" y="792.969696969697"/>
      <point x="222.84848484848484" y="787.4545454545455" type="curve"/>
      <point x="213.21212121212122" y="738.4545454545455" type="line"/>
      <point x="237.96969696969697" y="742.969696969697"/>
      <point x="279.75757575757575" y="749.0"/>
      <point x="302.57575757575756" y="749.0" type="curve" smooth="yes"/>
      <point x="332.8787878787879" y="749.0"/>
      <point x="352.2373333333333" y="737.6601212121212"/>
      <point x="344.6666666666667" y="707.4848484848485" type="curve" smooth="yes"/>
      <point x="336.14642424242425" y="673.5389090909091"/>
      <point x="308.24242424242425" y="648.6969696969697"/>
      <point x="270.27272727272725" y="618.6666666666666" type="curve" smooth="yes"/>
      <point x="155.0" y="525.5757575757576" type="line"/>
    </contour>
  </outline>
</glyph>
<glyph name="threesuperior" format="2">
  <advance width="280.0"/>
  <unicode hex="00B3"/>
  <outline>
    <contour>
      <point x="248.5151515151515" y="468.5151515151515" type="curve" smooth="yes"/>
      <point x="313.93939393939394" y="468.5151515151515"/>
      <point x="360.8218181818182" y="498.4989090909091"/>
      <point x="377.1212121212121" y="563.6969696969697" type="curve" smooth="yes"/>
      <point x="390.3369696969697" y="618.074909090909"/>
      <point x="374.3030303030303" y="631.2424242424242"/>
      <point x="344.45454545454544" y="641.2424242424242" type="curve"/>
      <point x="366.969696969697" y="649.969696969697"/>
      <point x="396.8484848484849" y="675.7272727272727"/>
      <point x="407.1212121212121" y="717.3030303030303" type="curve" smooth="yes"/>
      <point x="420.8787878787879" y="772.3333333333334"/>
      <point x="394.90909090909093" y="797.3030303030303"/>
      <point x="326.75757575757575" y="797.7878787878788" type="curve" smooth="yes"/>
      <point x="315.3636363636364" y="798.030303030303"/>
      <point x="271.8181818181818" y="796.3333333333334"/>
      <point x="219.93939393939394" y="785.3333333333334" type="curve"/>
      <point x="214.45454545454547" y="742.6666666666666" type="line"/>
      <point x="236.21212121212122" y="746.1818181818181"/>
      <point x="277.24242424242425" y="750.6969696969697"/>
      <point x="309.54545454545456" y="750.6969696969697" type="curve" smooth="yes"/>
      <point x="346.75757575757575" y="750.6969696969697"/>
      <point x="356.75757575757575" y="737.8484848484849"/>
      <point x="350.72727272727275" y="712.2121212121212" type="curve" smooth="yes"/>
      <point x="343.1818181818182" y="683.2727272727273"/>
      <point x="313.969696969697" y="661.0909090909091"/>
      <point x="294.1515151515151" y="661.0909090909091" type="curve" smooth="yes"/>
      <point x="229.3939393939394" y="661.0909090909091" type="line"/>
      <point x="218.24242424242425" y="614.7272727272727" type="line"/>
      <point x="283.4848484848485" y="614.7272727272727" type="line" smooth="yes"/>
      <point x="313.6060606060606" y="614.7272727272727"/>
      <point x="332.2121212121212" y="602.8787878787879"/>
      <point x="322.3939393939394" y="565.1212121212121" type="curve" smooth="yes"/>
      <point x="315.6060606060606" y="536.4545454545455"/>
      <point x="294.4848484848485" y="517.3030303030303"/>
      <point x="256.06060606060606" y="517.3030303030303" type="curve" smooth="yes"/>
      <point x="222.96969696969697" y="517.3030303030303"/>
      <point x="179.21212121212122" y="521.8181818181819"/>
      <point x="156.24242424242425" y="525.5757575757576" type="curve"/>
      <point x="140.87878787878788" y="478.7878787878788" type="line"/>
      <point x="166.33333333333334" y="474.27272727272725"/>
      <point x="212.5151515151515" y="468.5151515151515"/>
    </contour>
  </outline>
</glyph>
<glyph name="acute" format="2">
  <advance width="542.3333333333334"/>
  <unicode hex="00B4"/>
  <outline>
    <contour>
      <point x="285.8181818181818" y="601.7575757575758" type="line"/>
      <point x="504.3636363636364" y="688.8484848484849" type="line"/>
      <point x="497.3939393939394" y="740.6666666666666" type="line"/>
      <point x="279.6060606060606" y="646.6363636363636" type="line"/>
    </contour>
  </outline>
</glyph>
<glyph name="mu" format="2">
  <advance width="620.969696969697"/>
  <unicode hex="00B5"/>
  <outline>
    <contour>
      <point x="156.33333333333334" y="-149.12121212121212" type="line"/>
      <point x="214.33333333333334" y="-149.12121212121212" type="line"/>
      <point x="330.09090909090907" y="350.8787878787879" type="line"/>
      <point x="272.09090909090907" y="350.8787878787879" type="line"/>
    </contour>
    <component base="u" xOffset="126.9090909090909"/>
  </outline>
</glyph>
<glyph name="paragraph" format="2">
  <advance width="554.3939393939394"/>
  <unicode hex="00B6"/>
  <outline>
    <contour>
      <point x="209.03030303030303" y="0.0" type="line"/>
      <point x="260.969696969697" y="0.0" type="line"/>
      <point x="415.8484848484849" y="647.030303030303" type="line"/>
      <point x="538.0" y="647.030303030303" type="line"/>
      <point x="384.1212121212121" y="0.0" type="line"/>
      <point x="435.8181818181818" y="0.0" type="line"/>
      <point x="589.939393939394" y="647.030303030303" type="line"/>
      <point x="667.8787878787879" y="647.030303030303" type="line"/>
      <point x="679.2424242424242" y="700.0" type="line"/>
      <point x="369.27272727272725" y="700.0" type="line" smooth="yes"/>
      <point x="238.33333333333334" y="700.0"/>
      <point x="146.8181818181818" y="580.5151515151515"/>
      <point x="146.8181818181818" y="475.90909090909093" type="curve" smooth="yes"/>
      <point x="146.8181818181818" y="405.0"/>
      <point x="187.3939393939394" y="339.8181818181818"/>
      <point x="291.1212121212121" y="338.57575757575756" type="curve"/>
    </contour>
  </outline>
</glyph>
<glyph name="periodcentered" format="2">
  <advance width="174.4848484848485"/>
  <unicode hex="00B7"/>
  <outline>
    <contour>
      <point x="115.0909090909091" y="254.72727272727272" type="line"/>
      <point x="176.6060606060606" y="254.72727272727272" type="line"/>
      <point x="199.45454545454547" y="358.57575757575756" type="line"/>
      <point x="137.93939393939394" y="358.57575757575756" type="line"/>
    </contour>
  </outline>
</glyph>
<glyph name="cedilla" format="2">
  <advance width="791.0"/>
  <unicode hex="00B8"/>
  <outline>
    <contour>
      <point x="395.6969696969697" y="-206.27272727272728" type="curve" smooth="yes"/>
      <point x="451.8181818181818" y="-206.27272727272728"/>
      <point x="485.9893333333333" y="-181.39854545454546"/>
      <point x="498.93939393939394" y="-124.0" type="curve" smooth="yes"/>
      <point x="512.1711515151516" y="-66.1561212121212"/>
      <point x="472.45454545454544" y="-48.15151515151515"/>
      <point x="419.030303030303" y="-48.15151515151515" type="curve" smooth="yes"/>
      <point x="413.7878787878788" y="-48.15151515151515" type="line"/>
      <point x="427.8181818181818" y="5.0" type="line"/>
      <point x="390.969696969697" y="5.0" type="line"/>
      <point x="369.72727272727275" y="-85.66666666666667" type="line"/>
      <point x="413.6969696969697" y="-85.66666666666667" type="line" smooth="yes"/>
      <point x="435.6969696969697" y="-85.66666666666667"/>
      <point x="454.94666666666666" y="-91.44"/>
      <point x="447.72727272727275" y="-121.57575757575758" type="curve" smooth="yes"/>
      <point x="440.64363636363635" y="-150.4407272727273"/>
      <point x="423.3939393939394" y="-160.72727272727272"/>
      <point x="395.1212121212121" y="-160.72727272727272" type="curve" smooth="yes"/>
      <point x="374.7878787878788" y="-160.72727272727272"/>
      <point x="345.45454545454544" y="-158.96969696969697"/>
      <point x="328.6666666666667" y="-157.45454545454547" type="curve"/>
      <point x="317.75757575757575" y="-200.57575757575756" type="line"/>
      <point x="333.4848484848485" y="-203.3030303030303"/>
      <point x="364.93939393939394" y="-206.27272727272728"/>
    </contour>
  </outline>
</glyph>
<glyph name="onesuperior" format="2">
  <advance width="280.0"/>
  <unicode hex="00B9"/>
  <outline>
    <contour>
      <point x="243.42424242424244" y="478.0" type="line"/>
      <point x="296.3939393939394" y="478.0" type="line"/>
      <point x="373.3939393939394" y="790.0" type="line"/>
      <point x="322.8484848484849" y="790.0" type="line"/>
      <point x="205.66666666666666" y="721.060606060606" type="line"/>
      <point x="220.5151515151515" y="681.9090909090909" type="line"/>
      <point x="306.57575757575756" y="732.0909090909091" type="line"/>
    </contour>
  </outline>
</glyph>
<glyph name="ordmasculine" format="2">
  <advance width="339.969696969697"/>
  <unicode hex="00BA"/>
  <outline>
    <contour>
      <point x="252.63636363636363" y="366.27272727272725" type="curve" smooth="yes"/>
      <point x="340.57575757575756" y="366.27272727272725"/>
      <point x="389.1818181818182" y="410.7878787878788"/>
      <point x="411.57575757575756" y="509.90909090909093" type="curve" smooth="yes"/>
      <point x="417.06060606060606" y="534.3636363636364"/>
      <point x="420.3030303030303" y="556.2424242424242"/>
      <point x="418.3636363636364" y="582.6666666666666" type="curve" smooth="yes"/>
      <point x="415.45454545454544" y="635.6969696969697"/>
      <point x="376.24242424242425" y="658.4848484848485"/>
      <point x="321.0" y="658.4848484848485" type="curve" smooth="yes"/>
      <point x="235.72727272727272" y="658.4848484848485"/>
      <point x="188.66666666666666" y="618.5151515151515"/>
      <point x="163.21212121212122" y="515.4545454545455" type="curve" smooth="yes"/>
      <point x="158.21212121212122" y="494.6969696969697"/>
      <point x="155.96969696969697" y="475.93939393939394"/>
      <point x="155.72727272727272" y="459.6969696969697" type="curve" smooth="yes"/>
      <point x="154.5151515151515" y="399.1212121212121"/>
      <point x="190.12121212121212" y="366.27272727272725"/>
    </contour>
    <contour>
      <point x="263.75757575757575" y="416.8181818181818" type="curve" smooth="yes"/>
      <point x="226.93939393939394" y="416.8181818181818"/>
      <point x="210.36363636363637" y="431.8484848484849"/>
      <point x="210.36363636363637" y="466.42424242424244" type="curve" smooth="yes"/>
      <point x="210.36363636363637" y="480.6666666666667"/>
      <point x="212.6060606060606" y="496.42424242424244"/>
      <point x="217.6060606060606" y="516.1818181818181" type="curve" smooth="yes"/>
      <point x="234.3939393939394" y="584.8484848484849"/>
      <point x="260.969696969697" y="608.9090909090909"/>
      <point x="310.8484848484849" y="608.9090909090909" type="curve" smooth="yes"/>
      <point x="347.42424242424244" y="608.9090909090909"/>
      <point x="363.6969696969697" y="596.1515151515151"/>
      <point x="363.6969696969697" y="562.0909090909091" type="curve" smooth="yes"/>
      <point x="363.6969696969697" y="549.0909090909091"/>
      <point x="362.45454545454544" y="533.5454545454545"/>
      <point x="357.93939393939394" y="514.7272727272727" type="curve" smooth="yes"/>
      <point x="339.93939393939394" y="442.3939393939394"/>
      <point x="313.8787878787879" y="416.8181818181818"/>
    </contour>
  </outline>
</glyph>
<glyph name="guillemotright" format="2">
  <advance width="481.57575757575756"/>
  <unicode hex="00BB"/>
  <outline>
    <contour>
      <point x="373.3636363636364" y="401.90909090909093" type="line"/>
      <point x="357.030303030303" y="346.3030303030303" type="line"/>
      <point x="447.6363636363636" y="244.3030303030303" type="line"/>
      <point x="311.1515151515151" y="152.03030303030303" type="line"/>
      <point x="293.09090909090907" y="89.21212121212122" type="line"/>
      <point x="496.8787878787879" y="225.6969696969697" type="line"/>
      <point x="508.5151515151515" y="257.1515151515151" type="line"/>
    </contour>
    <contour>
      <point x="154.57575757575756" y="401.90909090909093" type="line"/>
      <point x="138.24242424242425" y="346.3030303030303" type="line"/>
      <point x="228.84848484848484" y="244.3030303030303" type="line"/>
      <point x="92.36363636363636" y="152.03030303030303" type="line"/>
      <point x="74.3030303030303" y="89.21212121212122" type="line"/>
      <point x="278.09090909090907" y="225.6969696969697" type="line"/>
      <point x="289.72727272727275" y="257.1515151515151" type="line"/>
    </contour>
  </outline>
</glyph>
<glyph name="questiondown" format="2">
  <advance width="400.93939393939394"/>
  <unicode hex="00BF"/>
  <outline>
    <contour>
      <point x="336.1212121212121" y="307.90909090909093" type="curve"/>
      <point x="279.8181818181818" y="307.90909090909093" type="line"/>
      <point x="271.57575757575756" y="268.6666666666667" type="line" smooth="yes"/>
      <point x="265.06060606060606" y="236.06060606060606"/>
      <point x="240.27272727272728" y="200.96969696969697"/>
      <point x="189.87878787878788" y="160.8181818181818" type="curve" smooth="yes"/>
      <point x="60.18181818181818" y="58.303030303030305"/>
      <point x="22.21212121212121" y="21.12121212121212"/>
      <point x="22.21212121212121" y="-79.93939393939394" type="curve" smooth="yes"/>
      <point x="22.21212121212121" y="-169.96969696969697"/>
      <point x="90.18181818181819" y="-204.12121212121212"/>
      <point x="181.96969696969697" y="-204.12121212121212" type="curve" smooth="yes"/>
      <point x="229.93939393939394" y="-204.12121212121212"/>
      <point x="297.6666666666667" y="-189.87878787878788"/>
      <point x="335.1515151515151" y="-179.3939393939394" type="curve"/>
      <point x="338.54545454545456" y="-129.6969696969697" type="line"/>
      <point x="301.4848484848485" y="-137.72727272727272"/>
      <point x="235.93939393939394" y="-149.27272727272728"/>
      <point x="194.03030303030303" y="-149.27272727272728" type="curve" smooth="yes"/>
      <point x="127.81818181818181" y="-149.27272727272728"/>
      <point x="85.42424242424242" y="-130.63636363636363"/>
      <point x="85.42424242424242" y="-76.54545454545455" type="curve" smooth="yes"/>
      <point x="85.42424242424242" y="-0.9090909090909092"/>
      <point x="119.93939393939394" y="32.90909090909091"/>
      <point x="226.54545454545456" y="117.75757575757575" type="curve" smooth="yes"/>
      <point x="287.09090909090907" y="165.33333333333334"/>
      <point x="320.6060606060606" y="206.63636363636363"/>
      <point x="329.6363636363636" y="253.5151515151515" type="curve" smooth="yes"/>
      <point x="333.3636363636364" y="272.1515151515151"/>
      <point x="335.3636363636364" y="296.0"/>
    </contour>
    <contour>
      <point x="374.969696969697" y="500.0" type="line"/>
      <point x="314.72727272727275" y="500.0" type="line"/>
      <point x="291.8787878787879" y="397.1515151515151" type="line"/>
      <point x="352.8787878787879" y="397.1515151515151" type="line"/>
    </contour>
  </outline>
</glyph>
<glyph name="AE" format="2">
  <advance width="786.5757575757576"/>
  <unicode hex="00C6"/>
  <outline>
    <contour>
      <point x="27.636363636363637" y="0.0" type="line"/>
      <point x="85.9090909090909" y="0.0" type="line"/>
      <point x="185.12121212121212" y="191.72727272727272" type="line"/>
      <point x="401.6060606060606" y="191.72727272727272" type="line"/>
      <point x="357.6969696969697" y="0.0" type="line"/>
      <point x="741.7272727272727" y="0.0" type="line"/>
      <point x="753.3030303030303" y="56.515151515151516" type="line"/>
      <point x="428.06060606060606" y="56.515151515151516" type="line"/>
      <point x="491.8484848484849" y="327.0" type="line"/>
      <point x="762.8484848484849" y="327.0" type="line"/>
      <point x="774.4242424242424" y="382.3030303030303" type="line"/>
      <point x="503.6666666666667" y="382.3030303030303" type="line"/>
      <point x="566.6666666666666" y="642.8181818181819" type="line"/>
      <point x="893.4242424242424" y="640.8181818181819" type="line"/>
      <point x="905.2424242424242" y="697.5757575757576" type="line"/>
      <point x="382.6060606060606" y="697.5757575757576" type="line"/>
    </contour>
    <contour>
      <point x="211.3030303030303" y="247.0" type="line"/>
      <point x="411.93939393939394" y="641.060606060606" type="line"/>
      <point x="509.3939393939394" y="641.060606060606" type="line"/>
      <point x="414.42424242424244" y="247.0" type="line"/>
    </contour>
  </outline>
</glyph>
<glyph name="Eth" format="2">
  <advance width="610.7272727272727"/>
  <unicode hex="00D0"/>
  <outline>
    <contour>
      <point x="87.54545454545455" y="318.1818181818182" type="line"/>
      <point x="368.3333333333333" y="318.1818181818182" type="line"/>
      <point x="382.42424242424244" y="379.93939393939394" type="line"/>
      <point x="99.87878787878788" y="379.93939393939394" type="line"/>
    </contour>
    <component base="D" xOffset="3.4545454545454546"/>
  </outline>
</glyph>
<glyph name="Odieresis" format="2">
  <advance width="630.9090909090909"/>
  <unicode hex="00D6"/>
  <outline>
    <contour>
      <point x="383.8787878787879" y="820.3939393939394" type="line"/>
      <point x="438.72727272727275" y="820.3939393939394" type="line"/>
      <point x="457.8484848484849" y="902.3636363636364" type="line"/>
      <point x="402.75757575757575" y="902.3636363636364" type="line"/>
    </contour>
    <contour>
      <point x="569.6969696969697" y="820.3939393939394" type="line"/>
      <point x="623.030303030303" y="820.3939393939394" type="line"/>
      <point x="642.1515151515151" y="902.3636363636364" type="line"/>
      <point x="587.060606060606" y="902.3636363636364" type="line"/>
    </contour>
    <component base="O"/>
  </outline>
</glyph>
<glyph name="multiply" format="2">
  <advance width="560.0"/>
  <unicode hex="00D7"/>
  <outline>
    <contour>
      <point x="503.5151515151515" y="45.696969696969695" type="line"/>
      <point x="542.3030303030303" y="84.48484848484848" type="line"/>
      <point x="374.3030303030303" y="250.75757575757575" type="line"/>
      <point x="542.3030303030303" y="417.27272727272725" type="line"/>
      <point x="503.75757575757575" y="456.06060606060606" type="line"/>
      <point x="337.24242424242425" y="288.06060606060606" type="line"/>
      <point x="171.21212121212122" y="455.57575757575756" type="line"/>
      <point x="132.42424242424244" y="416.7878787878788" type="line"/>
      <point x="299.93939393939394" y="250.75757575757575" type="line"/>
      <point x="132.1818181818182" y="84.48484848484848" type="line"/>
      <point x="170.96969696969697" y="45.93939393939394" type="line"/>
      <point x="337.24242424242425" y="213.45454545454544" type="line"/>
    </contour>
  </outline>
</glyph>
<glyph name="Oslash" format="2">
  <advance width="630.9090909090909"/>
  <unicode hex="00D8"/>
  <outline>
    <contour>
      <point x="109.15151515151516" y="-112.66666666666667" type="line"/>
      <point x="412.3939393939394" y="330.3030303030303" type="line"/>
      <point x="715.8787878787879" y="776.2727272727273" type="line"/>
      <point x="675.2121212121212" y="794.3939393939394" type="line"/>
      <point x="373.45454545454544" y="351.6363636363636" type="line"/>
      <point x="72.6969696969697" y="-90.84848484848484" type="line"/>
    </contour>
    <component base="O"/>
  </outline>
</glyph>
<glyph name="Udieresis" format="2">
  <advance width="593.4848484848485"/>
  <unicode hex="00DC"/>
  <outline>
    <contour>
      <point x="404.45454545454544" y="820.3939393939394" type="line"/>
      <point x="459.3030303030303" y="820.3939393939394" type="line"/>
      <point x="478.42424242424244" y="902.3636363636364" type="line"/>
      <point x="423.3333333333333" y="902.3636363636364" type="line"/>
    </contour>
    <contour>
      <point x="491.3636363636364" y="820.3939393939394" type="line"/>
      <point x="544.6969696969697" y="820.3939393939394" type="line"/>
      <point x="563.8181818181819" y="902.3636363636364" type="line"/>
      <point x="508.72727272727275" y="902.3636363636364" type="line"/>
    </contour>
    <component base="U"/>
  </outline>
</glyph>
<glyph name="Thorn" format="2">
  <advance width="551.6363636363636"/>
  <unicode hex="00DE"/>
  <outline>
    <contour>
      <point x="79.66666666666667" y="0.0" type="line"/>
      <point x="138.45454545454544" y="0.0" type="line"/>
      <point x="167.5151515151515" y="125.75757575757575" type="line"/>
      <point x="343.06060606060606" y="125.51515151515152" type="line" smooth="yes"/>
      <point x="482.24242424242425" y="125.03030303030303"/>
      <point x="567.2727272727273" y="224.06060606060606"/>
      <point x="597.4848484848485" y="362.3939393939394" type="curve" smooth="yes"/>
      <point x="623.4545454545455" y="482.24242424242425"/>
      <point x="591.2727272727273" y="582.3939393939394"/>
      <point x="446.1818181818182" y="582.3939393939394" type="curve" smooth="yes"/>
      <point x="275.1818181818182" y="582.3939393939394" type="line"/>
      <point x="302.45454545454544" y="697.5757575757576" type="line"/>
      <point x="243.42424242424244" y="697.5757575757576" type="line"/>
    </contour>
    <contour>
      <point x="181.33333333333334" y="182.96969696969697" type="line"/>
      <point x="262.3636363636364" y="525.6666666666666" type="line"/>
      <point x="432.6060606060606" y="525.1818181818181" type="line" smooth="yes"/>
      <point x="545.5454545454545" y="524.6969696969697"/>
      <point x="559.030303030303" y="447.93939393939394"/>
      <point x="537.4545454545455" y="362.3939393939394" type="curve" smooth="yes"/>
      <point x="511.8787878787879" y="261.8484848484849"/>
      <point x="458.75757575757575" y="182.96969696969697"/>
      <point x="356.6363636363636" y="182.96969696969697" type="curve" smooth="yes"/>
    </contour>
  </outline>
</glyph>
<glyph name="germandbls" format="2">
  <advance width="532.1818181818181"/>
  <unicode hex="00DF"/>
  <outline>
    <contour>
      <point x="316.3939393939394" y="-9.727272727272727" type="curve" smooth="yes"/>
      <point x="458.030303030303" y="-9.727272727272727"/>
      <point x="538.3030303030303" y="72.60606060606061"/>
      <point x="538.3030303030303" y="197.42424242424244" type="curve" smooth="yes"/>
      <point x="538.3030303030303" y="265.93939393939394"/>
      <point x="514.060606060606" y="283.6969696969697"/>
      <point x="445.6363636363636" y="325.7878787878788" type="curve" smooth="yes"/>
      <point x="393.90909090909093" y="357.75757575757575"/>
      <point x="384.1818181818182" y="369.030303030303"/>
      <point x="384.1818181818182" y="394.57575757575756" type="curve" smooth="yes"/>
      <point x="384.1818181818182" y="420.8181818181818"/>
      <point x="406.6666666666667" y="435.09090909090907"/>
      <point x="465.09090909090907" y="464.1212121212121" type="curve" smooth="yes"/>
      <point x="524.969696969697" y="493.6363636363636"/>
      <point x="562.9090909090909" y="537.6060606060606"/>
      <point x="562.9090909090909" y="618.5151515151515" type="curve" smooth="yes"/>
      <point x="562.9090909090909" y="690.8181818181819"/>
      <point x="513.8484848484849" y="732.4545454545455"/>
      <point x="408.09090909090907" y="732.4545454545455" type="curve" smooth="yes"/>
      <point x="288.0" y="732.4545454545455"/>
      <point x="228.15151515151516" y="680.6060606060606"/>
      <point x="192.9090909090909" y="531.3636363636364" type="curve" smooth="yes"/>
      <point x="68.39393939393939" y="0.0" type="line"/>
      <point x="124.6969696969697" y="0.0" type="line"/>
      <point x="247.24242424242425" y="524.7272727272727" type="line" smooth="yes"/>
      <point x="273.09090909090907" y="636.1515151515151"/>
      <point x="311.3939393939394" y="680.5757575757576"/>
      <point x="403.93939393939394" y="680.5757575757576" type="curve" smooth="yes"/>
      <point x="475.6363636363636" y="680.5757575757576"/>
      <point x="502.6666666666667" y="657.030303030303"/>
      <point x="502.6666666666667" y="611.3333333333334" type="curve" smooth="yes"/>
      <point x="502.6666666666667" y="557.5757575757576"/>
      <point x="478.7878787878788" y="528.1212121212121"/>
      <point x="425.3939393939394" y="500.3939393939394" type="curve" smooth="yes"/>
      <point x="350.06060606060606" y="461.06060606060606"/>
      <point x="324.6969696969697" y="437.93939393939394"/>
      <point x="324.6969696969697" y="384.72727272727275" type="curve" smooth="yes"/>
      <point x="324.6969696969697" y="347.8787878787879"/>
      <point x="340.90909090909093" y="324.3939393939394"/>
      <point x="398.3636363636364" y="289.6666666666667" type="curve" smooth="yes"/>
      <point x="464.0" y="249.57575757575756"/>
      <point x="478.06060606060606" y="234.24242424242425"/>
      <point x="478.06060606060606" y="192.06060606060606" type="curve" smooth="yes"/>
      <point x="478.06060606060606" y="102.45454545454545"/>
      <point x="419.2121212121212" y="42.151515151515156"/>
      <point x="315.54545454545456" y="42.151515151515156" type="curve" smooth="yes"/>
      <point x="286.09090909090907" y="42.151515151515156"/>
      <point x="237.87878787878788" y="49.90909090909091"/>
      <point x="210.15151515151516" y="55.66666666666667" type="curve"/>
      <point x="199.33333333333334" y="7.666666666666667" type="line"/>
      <point x="227.24242424242425" y="0.21212121212121215"/>
      <point x="278.3030303030303" y="-9.727272727272727"/>
    </contour>
  </outline>
</glyph>
<glyph name="acircumflex" format="2">
  <advance width="493.1515151515151"/>
  <unicode hex="00E2"/>
  <outline>
    <contour>
      <point x="248.36363636363637" y="590.1515151515151" type="line"/>
      <point x="314.8787878787879" y="590.1515151515151" type="line"/>
      <point x="412.27272727272725" y="682.1818181818181" type="line"/>
      <point x="466.57575757575756" y="590.1515151515151" type="line"/>
      <point x="527.3636363636364" y="590.1515151515151" type="line"/>
      <point x="440.6060606060606" y="734.8484848484849" type="line"/>
      <point x="399.6969696969697" y="734.8484848484849" type="line"/>
    </contour>
    <component base="a"/>
  </outline>
</glyph>
<glyph name="adieresis" format="2">
  <advance width="493.1515151515151"/>
  <unicode hex="00E4"/>
  <outline>
    <contour>
      <point x="321.75757575757575" y="625.2424242424242" type="line"/>
      <point x="376.6060606060606" y="625.2424242424242" type="line"/>
      <point x="395.72727272727275" y="707.2121212121212" type="line"/>
      <point x="340.6363636363636" y="707.2121212121212" type="line"/>
    </contour>
    <contour>
      <point x="408.6666666666667" y="625.2424242424242" type="line"/>
      <point x="462.0" y="625.2424242424242" type="line"/>
      <point x="481.1212121212121" y="707.2121212121212" type="line"/>
      <point x="426.030303030303" y="707.2121212121212" type="line"/>
    </contour>
    <component base="a"/>
  </outline>
</glyph>
